<svg width="33" height="11" viewBox="0 0 33 11" fill="none" xmlns="http://www.w3.org/2000/svg">
<path d="M3.59828 1.528C4.18228 1.528 4.69028 1.612 5.12228 1.78C5.55428 1.948 5.95828 2.204 6.33428 2.548L5.55428 3.448C5.25828 3.2 4.95828 3.02 4.65428 2.908C4.35828 2.796 4.03828 2.74 3.69428 2.74C3.31028 2.74 2.99828 2.828 2.75828 3.004C2.52628 3.172 2.41028 3.412 2.41028 3.724C2.41028 3.932 2.45428 4.104 2.54228 4.24C2.63828 4.376 2.80628 4.504 3.04628 4.624C3.28628 4.744 3.64228 4.876 4.11428 5.02C4.93028 5.276 5.54228 5.596 5.95028 5.98C6.36628 6.356 6.57428 6.908 6.57428 7.636C6.57428 8.132 6.44628 8.572 6.19028 8.956C5.94228 9.34 5.58228 9.64 5.11028 9.856C4.63828 10.072 4.07828 10.18 3.43028 10.18C2.79828 10.18 2.23028 10.08 1.72628 9.88C1.23028 9.672 0.802281 9.392 0.442281 9.04L1.25828 8.128C1.57828 8.4 1.91028 8.608 2.25428 8.752C2.59828 8.888 2.97828 8.956 3.39428 8.956C3.85028 8.956 4.21828 8.848 4.49828 8.632C4.77828 8.416 4.91828 8.112 4.91828 7.72C4.91828 7.48 4.87028 7.284 4.77428 7.132C4.67828 6.972 4.51428 6.832 4.28228 6.712C4.05028 6.584 3.71428 6.452 3.27428 6.316C2.39428 6.044 1.75828 5.716 1.36628 5.332C0.974281 4.948 0.778281 4.444 0.778281 3.82C0.778281 3.364 0.898281 2.964 1.13828 2.62C1.37828 2.276 1.71028 2.008 2.13428 1.816C2.56628 1.624 3.05428 1.528 3.59828 1.528ZM15.9531 10H14.6211L14.5371 9.112C14.3051 9.472 14.0291 9.74 13.7091 9.916C13.3971 10.092 13.0251 10.18 12.5931 10.18C12.0251 10.18 11.5851 10.008 11.2731 9.664C10.9691 9.312 10.8171 8.828 10.8171 8.212V3.652H12.3531V8.02C12.3531 8.38 12.4131 8.636 12.5331 8.788C12.6611 8.94 12.8611 9.016 13.1331 9.016C13.6211 9.016 14.0491 8.716 14.4171 8.116V3.652H15.9531V10ZM23.9349 3.484C24.1669 3.484 24.3789 3.512 24.5709 3.568L24.3069 5.056C24.1149 5.008 23.9269 4.984 23.7429 4.984C23.3669 4.984 23.0709 5.12 22.8549 5.392C22.6389 5.656 22.4669 6.064 22.3389 6.616V10H20.8029V3.652H22.1349L22.2789 4.9C22.4309 4.444 22.6509 4.096 22.9389 3.856C23.2269 3.608 23.5589 3.484 23.9349 3.484ZM31.0936 2.104C30.7896 2.104 30.5696 2.176 30.4336 2.32C30.3056 2.456 30.2416 2.676 30.2416 2.98V3.652H31.7656L31.5976 4.756H30.2416V10H28.7056V4.756H27.6736V3.652H28.7056V2.956C28.7056 2.356 28.8976 1.872 29.2816 1.504C29.6736 1.128 30.2256 0.939999 30.9376 0.939999C31.4976 0.939999 32.0456 1.064 32.5816 1.312L32.1376 2.344C31.7936 2.184 31.4456 2.104 31.0936 2.104Z" fill="white"/>
</svg>
