<svg width="278" height="80" viewBox="0 0 278 80" fill="none" xmlns="http://www.w3.org/2000/svg">
<rect x="110" width="168" height="80" fill="#4AF6CD"/>
<path d="M24.9944 26.2L17.6344 54H8.19438L0.474375 26.2H8.27438L13.0344 48.6L17.4344 26.2H24.9944ZM33.8022 26.2V54H26.4022V26.2H33.8022ZM55.7609 26.2L55.0009 31.44H45.5209V37.36H53.8009V42.44H45.5209V48.76H55.6409V54H38.1209V26.2H55.7609ZM90.8184 26.2L86.4984 54H76.8584L73.8984 33.4L70.6984 54H61.2984L57.0984 26.2H64.4584L66.7384 48.52L70.1384 26.2H77.8984L80.9384 48.52L83.7384 26.2H90.8184Z" fill="white"/>
<rect x="99" y="40" width="20" height="1" fill="white"/>
<path d="M138.76 25.48C140.867 25.48 142.72 25.7867 144.32 26.4C145.947 27.0133 147.4 27.9333 148.68 29.16L145.36 33.08C143.44 31.56 141.427 30.8 139.32 30.8C138.227 30.8 137.387 31.0133 136.8 31.44C136.24 31.84 135.96 32.4133 135.96 33.16C135.96 33.6933 136.107 34.1333 136.4 34.48C136.693 34.8267 137.187 35.16 137.88 35.48C138.573 35.8 139.667 36.2 141.16 36.68C144.013 37.5867 146.093 38.7333 147.4 40.12C148.733 41.48 149.4 43.3733 149.4 45.8C149.4 47.56 148.947 49.12 148.04 50.48C147.133 51.8133 145.813 52.8533 144.08 53.6C142.373 54.3467 140.36 54.72 138.04 54.72C133.613 54.72 130 53.3733 127.2 50.68L130.84 46.64C133.053 48.4533 135.36 49.36 137.76 49.36C139.013 49.36 139.987 49.0933 140.68 48.56C141.373 48 141.72 47.2667 141.72 46.36C141.72 45.72 141.587 45.2 141.32 44.8C141.053 44.3733 140.573 44 139.88 43.68C139.213 43.3333 138.227 42.96 136.92 42.56C133.773 41.5733 131.56 40.3867 130.28 39C129 37.6133 128.36 35.8667 128.36 33.76C128.36 32.1067 128.8 30.6533 129.68 29.4C130.587 28.1467 131.827 27.1867 133.4 26.52C135 25.8267 136.787 25.48 138.76 25.48ZM174.363 44.68C174.363 46.6 173.936 48.32 173.083 49.84C172.256 51.36 171.003 52.56 169.323 53.44C167.643 54.2933 165.59 54.72 163.163 54.72C159.483 54.72 156.696 53.8267 154.803 52.04C152.91 50.2267 151.963 47.7733 151.963 44.68V26.2H159.363V44.44C159.363 46.12 159.656 47.36 160.243 48.16C160.856 48.9333 161.83 49.32 163.163 49.32C164.496 49.32 165.456 48.92 166.043 48.12C166.63 47.32 166.923 46.0933 166.923 44.44V26.2H174.363V44.68ZM187.702 43.76H185.662V54H178.262V26.2H187.902C191.822 26.2 194.742 26.9067 196.662 28.32C198.608 29.7333 199.582 31.9067 199.582 34.84C199.582 36.6 199.168 38.0667 198.342 39.24C197.542 40.4133 196.248 41.4667 194.462 42.4L201.382 54H193.142L187.702 43.76ZM185.662 38.72H188.142C190.702 38.72 191.982 37.4267 191.982 34.84C191.982 33.64 191.622 32.76 190.902 32.2C190.208 31.64 189.155 31.36 187.742 31.36H185.662V38.72ZM203.066 54V26.2H220.146L219.386 31.44H210.466V38.12H218.306V43.36H210.466V54H203.066Z" fill="white"/>
<path d="M252.369 49.5872L260.582 41.4365C261.335 40.6853 261.335 39.4661 260.582 38.7175L252.369 30.5618C251.61 29.8107 250.382 29.8145 249.623 30.5618C248.872 31.3142 248.872 32.5284 249.623 33.2808L254.429 38.0483H239.014C237.901 38.0483 237 38.9479 237 40.0614C237 41.1736 237.901 42.0745 239.014 42.0745H254.458L249.623 46.8671C248.872 47.6182 248.872 48.8337 249.623 49.5848C250.381 50.3372 251.609 50.3385 252.369 49.5873V49.5872Z" fill="white"/>
</svg>
