<svg width="1001" height="496" viewBox="0 0 1001 496" fill="none" xmlns="http://www.w3.org/2000/svg">
<g opacity="0.29827">
<path d="M1008.08 163.448L443.182 -356.858V-747.19L28.1096 -770C24.9043 -762.456 4.36709 -740.714 7.57176 -728.596C11.43 -714.102 30.8387 -718.735 36.4776 -709.409C43.0661 -698.42 31.7291 -653.749 28.3457 -640.86C21.8759 -616.445 7.09676 -596.665 2.82235 -572.25C-4.35982 -531.263 10.1824 -534.53 37.7242 -508.927C84.141 -465.742 46.9244 -420.952 58.6176 -370.223C68.1146 -328.878 109.605 -307.554 124.8 -266.211C136.553 -234.37 152.697 -226.233 177.746 -202.947C177.153 -217.084 164.51 -258.785 188.253 -255.102C211.817 -251.478 202.736 -216.669 207.247 -202.115C211.045 -189.997 237.933 -165.761 215.616 -154.593C208.196 -150.91 187.066 -165.582 178.577 -169.503C184.572 -150.791 180.774 -131.367 190.271 -113.487C201.608 -92.162 213.835 -100.359 228.853 -88.7754C244.344 -76.8355 242.683 -63.1137 235.797 -45.0554C228.615 -26.2247 221.196 -29.1352 232.592 -6.44342C240.843 9.95119 254.85 30.7421 266.9 43.2164C273.904 50.4634 281.502 52.1267 288.506 61.3932C294.323 69.1155 292.067 79.2142 299.012 86.1638C310.883 98.1037 331.006 98.282 340.384 113.904C350.831 131.309 338.96 144.437 369.706 142.833C371.309 177.643 377.897 209.185 377.541 243.994C394.695 250.825 422.414 242.687 440.399 239.063C458.266 263.18 481.355 246.429 501.774 259.558C510.678 265.26 508.837 279.517 514.239 284.506C525.339 294.723 533.529 288.308 547.301 291.872C557.51 294.486 565.404 301.97 575.138 304.703C584.338 307.257 599.475 301.258 606.301 309.396C614.492 319.138 600.78 336.958 613.127 344.799C623.395 351.333 638.115 335.77 648.088 338.027C659.721 340.7 693.079 371.174 701.271 381.212C710.59 392.677 719.969 414.062 725.25 428.793C733.501 451.841 732.373 463.127 749.408 479.998C760.27 490.75 749.942 491.522 767.63 494.67C779.204 496.749 794.518 488.374 806.212 487.067C830.549 484.394 855.122 489.027 879.102 484.453C901.421 480.176 922.729 473.166 945.64 469.899C965.465 467.048 1000.37 469.246 1017.94 459.801C1036.99 449.643 1038.71 426.654 1011.17 430.932C1008.97 416.26 1018.77 396.003 1007.85 385.847C1023.04 365.056 1028.56 350.384 1030.93 324.959C1032 313.792 1032.48 301.436 1038 292.05C1043.4 282.783 1058.59 277.259 1061.56 269.299C1066.13 256.943 1058.83 251.419 1053.25 244.528C1049.69 240.073 1039.54 242.212 1036.63 238.291C1031.23 231.103 1036.57 223.678 1033.6 216.431C1024.94 195.462 1014.61 187.205 1008.08 163.444C1008.26 167.424 1008.44 171.463 1008.2 175.384" stroke="white" stroke-width="2" stroke-linecap="round" stroke-linejoin="round"/>
</g>
	<path d="M750.037 855.704H741.75C741.485 855.704 741.269 855.922 741.269 856.189C741.269 856.457 741.485 856.675 741.75 856.675H750.037C750.302 856.675 750.519 856.457 750.519 856.189C750.519 855.922 750.302 855.704 750.037 855.704Z" fill="white"/>
			<path d="M750.037 861.856H740.746C740.481 861.856 740.264 862.074 740.264 862.341C740.264 862.608 740.481 862.826 740.746 862.826H750.037C750.302 862.826 750.519 862.608 750.519 862.341C750.519 862.074 750.302 861.856 750.037 861.856Z" fill="white"/>
			<path d="M712.481 859.207H719.974C720.239 859.207 720.456 858.989 720.456 858.722C720.456 858.455 720.239 858.237 719.974 858.237H712.481C712.216 858.237 712 858.455 712 858.722C712 858.991 712.216 859.207 712.481 859.207Z" fill="white"/>
			<path fill-rule="evenodd" clip-rule="evenodd" d="M715.745 824.05C715.931 823.958 716.153 823.995 716.3 824.143L716.3 824.144C716.445 824.291 716.482 824.517 716.388 824.705C716.089 825.308 715.939 825.95 715.939 826.616C715.939 828.993 717.868 830.928 720.238 830.928C720.902 830.928 721.544 830.775 722.145 830.475C722.332 830.383 722.553 830.42 722.7 830.568C722.847 830.716 722.883 830.942 722.79 831.128C721.893 832.942 720.088 834.068 718.079 834.068C715.177 834.068 712.816 831.696 712.816 828.782C712.816 826.763 713.939 824.951 715.745 824.05ZM721.128 831.823C720.834 831.874 720.539 831.899 720.238 831.899L720.238 831.899C717.336 831.899 714.976 829.529 714.977 826.615C714.977 826.312 715.002 826.014 715.053 825.72C714.248 826.515 713.779 827.607 713.779 828.782C713.779 831.161 715.709 833.097 718.079 833.097C719.251 833.097 720.336 832.629 721.128 831.823Z" fill="white"/>
			<path fill-rule="evenodd" clip-rule="evenodd" d="M750.039 847.926H750.037C749.772 847.926 749.558 848.142 749.556 848.409L749.544 851.001L731.677 824.439C731.498 824.172 731.06 824.172 730.88 824.439L713.025 850.982L713.037 848.231C713.038 847.964 712.822 847.744 712.557 847.744H712.555C712.29 847.744 712.076 847.96 712.074 848.227L712.057 852.568C712.055 852.783 712.194 852.97 712.395 853.035C712.442 853.05 712.489 853.056 712.538 853.056C712.694 853.056 712.845 852.978 712.937 852.843L715.747 848.667V852.572C715.747 852.84 715.963 853.058 716.228 853.058H726.952C727.5 854.847 729.16 856.151 731.12 856.151C731.127 856.151 731.133 856.151 731.139 856.151L731.139 856.151C731.145 856.15 731.151 856.15 731.158 856.15C731.161 856.15 731.164 856.15 731.167 856.151L731.167 856.151L731.167 856.151C731.17 856.151 731.174 856.151 731.177 856.151C731.183 856.151 731.188 856.151 731.194 856.15L731.205 856.149C731.214 856.147 731.224 856.146 731.233 856.146C733.142 856.097 734.75 854.811 735.286 853.058H746.33C746.595 853.058 746.812 852.84 746.812 852.572V848.667L749.622 852.843C749.74 853.02 749.958 853.097 750.16 853.035C750.361 852.972 750.5 852.785 750.5 852.572L750.519 848.413C750.521 848.144 750.306 847.928 750.039 847.926L750.039 847.926ZM731.233 855.175L731.227 855.176C731.203 855.178 731.18 855.179 731.158 855.179C730.322 855.168 729.645 854.485 729.645 853.647C729.645 853.096 730.45 851.826 731.176 850.868C731.902 851.826 732.707 853.096 732.707 853.647C732.707 854.472 732.051 855.145 731.233 855.175L731.233 855.175ZM733.668 853.646C733.668 853.79 733.65 853.926 733.627 854.063L733.627 854.063C734.178 853.456 734.517 852.654 734.513 851.773C734.513 850.318 732.324 847.225 731.116 845.685C729.911 847.225 727.719 850.32 727.719 851.773C727.719 852.728 728.116 853.592 728.75 854.212C728.709 854.028 728.681 853.841 728.681 853.646C728.681 852.417 730.45 850.208 730.804 849.778C730.986 849.556 731.363 849.556 731.545 849.778C731.9 850.209 733.668 852.417 733.668 853.646ZM731.49 844.605C731.308 844.383 730.932 844.383 730.749 844.605C730.341 845.1 726.76 849.513 726.76 851.773C726.76 851.849 726.765 851.924 726.77 851.999V851.999C726.772 852.029 726.774 852.058 726.775 852.088H721.927V848.888C722.555 848.376 724.637 846.601 726.745 843.968C728.457 841.831 730.411 838.811 731.297 835.369C732.183 838.813 734.137 841.831 735.848 843.968C737.957 846.601 740.039 848.375 740.667 848.888V852.088H735.463C735.47 851.983 735.478 851.879 735.478 851.773C735.48 849.513 731.899 845.1 731.491 844.605H731.49ZM741.628 852.087H745.848L745.851 847.236L731.28 825.577L716.71 847.236V852.087H720.962V848.652C720.962 848.501 721.032 848.358 721.15 848.267L721.15 848.267C721.267 848.175 730.813 840.633 730.813 831.706C730.813 831.439 731.03 831.221 731.295 831.221C731.56 831.221 731.776 831.439 731.776 831.706C731.776 840.63 741.317 848.17 741.439 848.267L741.44 848.267C741.558 848.36 741.628 848.502 741.628 848.652V852.087Z" fill="white"/>
			<path fill-rule="evenodd" clip-rule="evenodd" d="M738.596 857.949C738.639 858.07 738.63 858.207 738.573 858.322L738.574 858.322C738.515 858.44 738.416 858.529 738.292 858.571L736.511 859.164L738.222 859.651C738.346 859.687 738.452 859.771 738.514 859.884C738.576 859.998 738.589 860.131 738.553 860.256L737.938 862.345C737.876 862.555 737.686 862.692 737.477 862.692C737.434 862.692 737.389 862.684 737.346 862.673L731.218 860.927L725.594 862.802C725.545 862.819 725.494 862.827 725.444 862.827C725.244 862.827 725.058 862.701 724.992 862.5L724.283 860.44C724.24 860.318 724.249 860.182 724.306 860.066C724.362 859.949 724.464 859.862 724.586 859.82L726.072 859.325L724.287 858.817C724.163 858.781 724.057 858.698 723.995 858.584C723.933 858.47 723.92 858.337 723.956 858.212L724.571 856.123C724.646 855.867 724.909 855.721 725.163 855.793L731.364 857.56L737.281 855.587C737.531 855.503 737.8 855.638 737.887 855.888L738.596 857.949ZM725.359 856.857L725.017 858.015L727.703 858.781L729.734 858.104L725.359 856.857ZM737.49 860.451L737.148 861.609L732.848 860.383L734.88 859.706L737.49 860.451ZM725.35 860.588L725.743 861.731L737.526 857.803L737.133 856.66L725.35 860.588Z" fill="white"/>
			<path d="M744 869C744 869 802 888 816.5 898C831 908 820.5 961.5 811.5 941C802.5 920.5 929 924 921.5 935.5C914 947 832 946.5 820.5 949.5C809 952.5 835.5 1014 816.5 995C797.5 976 891 982 889.5 989.5C888 997 814 993.5 820.5 1008C827 1022.5 837.5 1125 820.5 1081.5C803.5 1038 733 1105 756.5 1118.5C780 1132 753.5 1163 772.5 1180.5C791.5 1198 767 1233 756.5 1217C746 1201 723.5 1238.5 723.5 1238.5" stroke="white" stroke-width="2"/>
			<path d="M731.5 867C731.5 867 710 904.5 731.5 892C753 879.5 768.5 893.5 772.5 899C776.5 904.5 784.5 918.5 784.5 941.5C784.5 964.5 771 970 763.5 974C756 978 731.5 980 722 970.5C712.5 961 704 908 715 898C726 888 707 965 716 974C725 983 784.5 1020 784.5 1035.5C784.5 1051 709 968 715 984C721 1000 721 1061 715 1066.5C709 1072 691.5 1092.5 674.5 1071.5C657.5 1050.5 658 1092 674.5 1102C691 1112 659 1135 659 1135" stroke="white" stroke-width="2"/>
			<path d="M719.5 867.5C719.5 867.5 704 917.5 691 892.5C678 867.5 685 1002.5 681 1013.5C677 1024.5 673 1026 665.5 1031.5C658 1037 626.5 1035 621 1031.5C615.5 1028 609 1030 602 1013.5C595 997 602 880.5 613 892.5C624 904.5 512 1026.5 555 1021C598 1015.5 613 1049 590 1058.5C567 1068 574 1090.5 574 1090.5" stroke="white" stroke-width="2"/>
			<path d="M712 866C712 866 692.5 840 672.5 843C652.5 846 607.5 847 603 831.5C598.5 816 547 834.5 556 847C565 859.5 512 871 542 886.5C572 902 537.5 863 524 859.5C510.5 856 486.5 854 476.5 860C466.5 866 464.5 871.5 458 879C451.5 886.5 458 907 463 911.5C468 916 489.5 921.5 497 931C504.5 940.5 508.5 942 517 951.5C525.5 961 530 972.5 524 982C518 991.5 512 999 500 1002C488 1005 466.5 1002 458.5 999C450.5 996 420 974.5 434.5 963C449 951.5 409 1019 407.5 994.5C406 970 387.5 976 387.5 976L367 994" stroke="white" stroke-width="2"/>
			<path fill-rule="evenodd" clip-rule="evenodd" d="M573.5 1097C577.09 1097 580 1094.09 580 1090.5C580 1086.91 577.09 1084 573.5 1084C569.91 1084 567 1086.91 567 1090.5C567 1094.09 569.91 1097 573.5 1097Z" fill="#4AF6CD"/>
			<path fill-rule="evenodd" clip-rule="evenodd" d="M366.5 1001C370.09 1001 373 998.09 373 994.5C373 990.91 370.09 988 366.5 988C362.91 988 360 990.91 360 994.5C360 998.09 362.91 1001 366.5 1001Z" fill="#4AF6CD"/>
			<path fill-rule="evenodd" clip-rule="evenodd" d="M724.5 1245C728.09 1245 731 1242.09 731 1238.5C731 1234.91 728.09 1232 724.5 1232C720.91 1232 718 1234.91 718 1238.5C718 1242.09 720.91 1245 724.5 1245Z" fill="#4AF6CD"/>
			<path fill-rule="evenodd" clip-rule="evenodd" d="M660.5 1140C664.09 1140 667 1137.09 667 1133.5C667 1129.91 664.09 1127 660.5 1127C656.91 1127 654 1129.91 654 1133.5C654 1137.09 656.91 1140 660.5 1140Z" fill="#4AF6CD"/>
			<path fill-rule="evenodd" clip-rule="evenodd" d="M659 1138C660.657 1138 662 1136.66 662 1135C662 1133.34 660.657 1132 659 1132C657.343 1132 656 1133.34 656 1135C656 1136.66 657.343 1138 659 1138Z" fill="#4AF6CD"/>
			<path fill-rule="evenodd" clip-rule="evenodd" d="M574 1094C575.657 1094 577 1092.66 577 1091C577 1089.34 575.657 1088 574 1088C572.343 1088 571 1089.34 571 1091C571 1092.66 572.343 1094 574 1094Z" fill="#4AF6CD"/>
			<path fill-rule="evenodd" clip-rule="evenodd" d="M725 1242C726.657 1242 728 1240.66 728 1239C728 1237.34 726.657 1236 725 1236C723.343 1236 722 1237.34 722 1239C722 1240.66 723.343 1242 725 1242Z" fill="#4AF6CD"/>
			<path fill-rule="evenodd" clip-rule="evenodd" d="M365 999C366.657 999 368 997.657 368 996C368 994.343 366.657 993 365 993C363.343 993 362 994.343 362 996C362 997.657 363.343 999 365 999Z" fill="#4AF6CD"/>
			<path d="M398.41 1081.98L396.17 1093H394.218L392.186 1083.77L390.138 1093H388.234L385.994 1081.98H387.482L389.258 1091.67L391.386 1081.98H393.002L395.178 1091.67L397.018 1081.98H398.41ZM406.544 1088.54C406.544 1088.78 406.534 1089.03 406.512 1089.29H401.136C401.2 1090.22 401.435 1090.9 401.84 1091.34C402.246 1091.77 402.768 1091.99 403.408 1091.99C403.814 1091.99 404.187 1091.93 404.528 1091.82C404.87 1091.7 405.227 1091.51 405.6 1091.26L406.24 1092.14C405.344 1092.84 404.363 1093.19 403.296 1093.19C402.123 1093.19 401.206 1092.81 400.544 1092.04C399.894 1091.27 399.568 1090.22 399.568 1088.87C399.568 1088 399.707 1087.22 399.984 1086.55C400.272 1085.87 400.678 1085.34 401.2 1084.95C401.734 1084.57 402.358 1084.38 403.072 1084.38C404.192 1084.38 405.051 1084.74 405.648 1085.48C406.246 1086.22 406.544 1087.23 406.544 1088.54ZM405.088 1088.1C405.088 1087.27 404.923 1086.64 404.592 1086.2C404.262 1085.76 403.766 1085.54 403.104 1085.54C401.899 1085.54 401.243 1086.43 401.136 1088.2H405.088V1088.1ZM411.183 1084.38C411.759 1084.38 412.276 1084.46 412.735 1084.62C413.194 1084.78 413.631 1085.02 414.047 1085.34L413.423 1086.26C413.039 1086.02 412.671 1085.84 412.319 1085.72C411.978 1085.6 411.615 1085.54 411.231 1085.54C410.751 1085.54 410.372 1085.65 410.095 1085.85C409.818 1086.04 409.679 1086.31 409.679 1086.65C409.679 1086.99 409.807 1087.26 410.063 1087.45C410.33 1087.64 410.804 1087.83 411.487 1088.01C412.426 1088.24 413.124 1088.56 413.583 1088.97C414.052 1089.37 414.287 1089.93 414.287 1090.63C414.287 1091.46 413.962 1092.1 413.311 1092.54C412.671 1092.97 411.887 1093.19 410.959 1093.19C409.679 1093.19 408.618 1092.82 407.775 1092.09L408.559 1091.19C409.274 1091.74 410.063 1092.01 410.927 1092.01C411.482 1092.01 411.919 1091.9 412.239 1091.67C412.57 1091.44 412.735 1091.12 412.735 1090.73C412.735 1090.44 412.676 1090.21 412.559 1090.04C412.442 1089.86 412.239 1089.7 411.951 1089.58C411.663 1089.44 411.242 1089.29 410.687 1089.14C409.791 1088.91 409.14 1088.59 408.735 1088.2C408.34 1087.81 408.143 1087.3 408.143 1086.7C408.143 1086.26 408.271 1085.86 408.527 1085.51C408.794 1085.15 409.156 1084.87 409.615 1084.68C410.084 1084.48 410.607 1084.38 411.183 1084.38ZM420.62 1092.62C420.065 1093 419.436 1093.19 418.732 1093.19C418.017 1093.19 417.457 1092.99 417.052 1092.58C416.657 1092.17 416.46 1091.57 416.46 1090.79V1085.7H414.988V1084.57H416.46V1082.66L417.932 1082.49V1084.57H419.932L419.772 1085.7H417.932V1090.73C417.932 1091.17 418.006 1091.49 418.156 1091.69C418.316 1091.88 418.577 1091.98 418.94 1091.98C419.27 1091.98 419.644 1091.86 420.06 1091.64L420.62 1092.62ZM429.179 1081.78C429.915 1081.78 430.545 1081.89 431.067 1082.1C431.59 1082.31 432.097 1082.63 432.587 1083.06L431.755 1083.99C431.339 1083.66 430.929 1083.42 430.523 1083.27C430.129 1083.11 429.702 1083.03 429.243 1083.03C428.667 1083.03 428.193 1083.17 427.819 1083.43C427.446 1083.7 427.259 1084.09 427.259 1084.6C427.259 1084.92 427.323 1085.19 427.451 1085.42C427.579 1085.63 427.814 1085.83 428.155 1086.01C428.507 1086.19 429.014 1086.38 429.675 1086.58C430.369 1086.8 430.945 1087.03 431.403 1087.27C431.862 1087.52 432.23 1087.86 432.507 1088.3C432.795 1088.72 432.939 1089.27 432.939 1089.93C432.939 1090.57 432.779 1091.13 432.459 1091.62C432.15 1092.11 431.697 1092.5 431.099 1092.78C430.513 1093.05 429.814 1093.19 429.003 1093.19C427.478 1093.19 426.23 1092.72 425.259 1091.77L426.091 1090.84C426.539 1091.2 426.993 1091.48 427.451 1091.67C427.91 1091.85 428.422 1091.94 428.987 1091.94C429.67 1091.94 430.235 1091.78 430.683 1091.45C431.131 1091.11 431.355 1090.62 431.355 1089.98C431.355 1089.61 431.286 1089.31 431.147 1089.08C431.009 1088.83 430.769 1088.62 430.427 1088.42C430.097 1088.23 429.611 1088.04 428.971 1087.85C427.841 1087.51 427.014 1087.1 426.491 1086.62C425.969 1086.14 425.707 1085.49 425.707 1084.66C425.707 1084.11 425.851 1083.61 426.139 1083.18C426.438 1082.74 426.849 1082.4 427.371 1082.15C427.905 1081.91 428.507 1081.78 429.179 1081.78ZM439.066 1084.38C439.834 1084.38 440.431 1084.61 440.858 1085.06C441.295 1085.52 441.514 1086.15 441.514 1086.95V1093H440.042V1087.16C440.042 1086.56 439.925 1086.14 439.69 1085.9C439.466 1085.65 439.135 1085.53 438.698 1085.53C438.261 1085.53 437.871 1085.66 437.53 1085.91C437.189 1086.17 436.869 1086.53 436.57 1087V1093H435.098V1081.19L436.57 1081.03V1085.74C437.231 1084.83 438.063 1084.38 439.066 1084.38ZM447.641 1084.38C448.825 1084.38 449.742 1084.77 450.393 1085.56C451.054 1086.35 451.385 1087.42 451.385 1088.78C451.385 1089.65 451.236 1090.42 450.937 1091.1C450.638 1091.76 450.206 1092.27 449.641 1092.65C449.076 1093.01 448.404 1093.19 447.625 1093.19C446.441 1093.19 445.518 1092.8 444.857 1092.01C444.196 1091.22 443.865 1090.15 443.865 1088.79C443.865 1087.92 444.014 1087.15 444.313 1086.49C444.612 1085.82 445.044 1085.3 445.609 1084.94C446.174 1084.56 446.852 1084.38 447.641 1084.38ZM447.641 1085.56C446.18 1085.56 445.449 1086.64 445.449 1088.79C445.449 1090.94 446.174 1092.01 447.625 1092.01C449.076 1092.01 449.801 1090.93 449.801 1088.78C449.801 1086.63 449.081 1085.56 447.641 1085.56ZM457.481 1084.38C457.78 1084.38 458.057 1084.41 458.313 1084.47L458.041 1085.91C457.785 1085.85 457.54 1085.82 457.305 1085.82C456.782 1085.82 456.361 1086.01 456.041 1086.39C455.721 1086.78 455.47 1087.37 455.289 1088.18V1093H453.817V1084.57H455.081L455.225 1086.28C455.449 1085.65 455.753 1085.18 456.137 1084.86C456.521 1084.54 456.969 1084.38 457.481 1084.38ZM465.872 1088.54C465.872 1088.78 465.862 1089.03 465.84 1089.29H460.464C460.528 1090.22 460.763 1090.9 461.168 1091.34C461.574 1091.77 462.096 1091.99 462.736 1091.99C463.142 1091.99 463.515 1091.93 463.856 1091.82C464.198 1091.7 464.555 1091.51 464.928 1091.26L465.568 1092.14C464.672 1092.84 463.691 1093.19 462.624 1093.19C461.451 1093.19 460.534 1092.81 459.872 1092.04C459.222 1091.27 458.896 1090.22 458.896 1088.87C458.896 1088 459.035 1087.22 459.312 1086.55C459.6 1085.87 460.006 1085.34 460.528 1084.95C461.062 1084.57 461.686 1084.38 462.4 1084.38C463.52 1084.38 464.379 1084.74 464.976 1085.48C465.574 1086.22 465.872 1087.23 465.872 1088.54ZM464.416 1088.1C464.416 1087.27 464.251 1086.64 463.92 1086.2C463.59 1085.76 463.094 1085.54 462.432 1085.54C461.227 1085.54 460.571 1086.43 460.464 1088.2H464.416V1088.1ZM474.41 1080.18V1094.57H474.058V1080.18H474.41ZM493.237 1093H491.765L491.381 1088.02C491.221 1086.07 491.131 1084.57 491.109 1083.53L488.725 1091.75H487.301L484.789 1083.51C484.789 1084.85 484.72 1086.39 484.581 1088.14L484.213 1093H482.773L483.685 1081.98H485.733L488.053 1089.99L490.261 1081.98H492.325L493.237 1093ZM501.434 1091.03C501.434 1091.37 501.493 1091.63 501.61 1091.8C501.728 1091.96 501.904 1092.08 502.138 1092.17L501.802 1093.19C501.365 1093.14 501.013 1093.02 500.746 1092.82C500.48 1092.63 500.282 1092.33 500.154 1091.93C499.589 1092.77 498.752 1093.19 497.642 1093.19C496.81 1093.19 496.154 1092.96 495.674 1092.49C495.194 1092.02 494.954 1091.41 494.954 1090.65C494.954 1089.75 495.274 1089.06 495.914 1088.58C496.565 1088.1 497.482 1087.86 498.666 1087.86H499.962V1087.24C499.962 1086.64 499.818 1086.22 499.53 1085.96C499.242 1085.7 498.8 1085.58 498.202 1085.58C497.584 1085.58 496.826 1085.73 495.93 1086.02L495.562 1084.95C496.608 1084.57 497.578 1084.38 498.474 1084.38C499.466 1084.38 500.208 1084.62 500.698 1085.11C501.189 1085.59 501.434 1086.28 501.434 1087.18V1091.03ZM497.978 1092.09C498.821 1092.09 499.482 1091.65 499.962 1090.78V1088.84H498.858C497.301 1088.84 496.522 1089.42 496.522 1090.57C496.522 1091.07 496.645 1091.45 496.89 1091.7C497.136 1091.96 497.498 1092.09 497.978 1092.09ZM505.981 1093.19C505.437 1093.19 505.005 1093.03 504.685 1092.71C504.376 1092.38 504.221 1091.92 504.221 1091.34V1081.18L505.693 1081V1091.3C505.693 1091.54 505.731 1091.71 505.805 1091.82C505.891 1091.92 506.029 1091.98 506.221 1091.98C506.424 1091.98 506.605 1091.94 506.765 1091.88L507.149 1092.9C506.797 1093.1 506.408 1093.19 505.981 1093.19ZM510.461 1084.57V1093H508.989V1084.57H510.461ZM509.709 1080.52C510.018 1080.52 510.269 1080.62 510.461 1080.81C510.653 1081 510.749 1081.24 510.749 1081.53C510.749 1081.82 510.653 1082.06 510.461 1082.25C510.269 1082.43 510.018 1082.52 509.709 1082.52C509.41 1082.52 509.165 1082.43 508.973 1082.25C508.781 1082.06 508.685 1081.82 508.685 1081.53C508.685 1081.24 508.781 1081 508.973 1080.81C509.165 1080.62 509.41 1080.52 509.709 1080.52ZM517.36 1084.38C518.32 1084.38 519.083 1084.77 519.648 1085.54C520.214 1086.31 520.496 1087.39 520.496 1088.78C520.496 1089.65 520.363 1090.42 520.096 1091.1C519.83 1091.76 519.446 1092.27 518.944 1092.65C518.443 1093.01 517.856 1093.19 517.184 1093.19C516.299 1093.19 515.552 1092.82 514.944 1092.07L514.8 1093H513.504V1081.18L514.976 1081V1085.62C515.584 1084.79 516.379 1084.38 517.36 1084.38ZM516.832 1092.02C517.483 1092.02 517.99 1091.76 518.352 1091.24C518.726 1090.71 518.912 1089.89 518.912 1088.78C518.912 1087.63 518.742 1086.81 518.4 1086.31C518.059 1085.8 517.574 1085.54 516.944 1085.54C516.198 1085.54 515.542 1085.98 514.976 1086.86V1090.89C515.2 1091.24 515.472 1091.52 515.792 1091.72C516.123 1091.92 516.47 1092.02 516.832 1092.02ZM529.276 1093H528.012L527.9 1091.69C527.58 1092.21 527.212 1092.59 526.796 1092.84C526.38 1093.07 525.874 1093.19 525.276 1093.19C524.54 1093.19 523.964 1092.97 523.548 1092.52C523.132 1092.07 522.924 1091.44 522.924 1090.62V1084.57H524.396V1090.46C524.396 1091.03 524.498 1091.44 524.7 1091.69C524.903 1091.92 525.234 1092.04 525.692 1092.04C526.514 1092.04 527.218 1091.55 527.804 1090.58V1084.57H529.276V1093ZM532.701 1090.97C533.021 1090.97 533.288 1091.07 533.501 1091.29C533.714 1091.5 533.821 1091.76 533.821 1092.07C533.821 1092.4 533.725 1092.78 533.533 1093.21L532.461 1095.66H531.405L532.045 1093C531.906 1092.89 531.794 1092.76 531.709 1092.6C531.634 1092.44 531.597 1092.26 531.597 1092.07C531.597 1091.76 531.704 1091.5 531.917 1091.29C532.13 1091.07 532.392 1090.97 532.701 1090.97ZM544.331 1081.78C544.992 1081.78 545.547 1081.87 545.995 1082.04C546.454 1082.21 546.918 1082.49 547.387 1082.87L546.555 1083.85C545.883 1083.3 545.174 1083.03 544.427 1083.03C543.51 1083.03 542.768 1083.38 542.203 1084.09C541.648 1084.79 541.371 1085.92 541.371 1087.48C541.371 1088.99 541.648 1090.11 542.203 1090.84C542.758 1091.55 543.494 1091.91 544.411 1091.91C544.88 1091.91 545.291 1091.83 545.643 1091.67C545.995 1091.51 546.368 1091.29 546.763 1091L547.515 1091.96C547.174 1092.31 546.736 1092.61 546.203 1092.84C545.67 1093.07 545.056 1093.19 544.363 1093.19C543.467 1093.19 542.667 1092.97 541.963 1092.54C541.27 1092.09 540.726 1091.44 540.331 1090.58C539.947 1089.72 539.755 1088.69 539.755 1087.48C539.755 1086.27 539.958 1085.25 540.363 1084.39C540.768 1083.53 541.318 1082.88 542.011 1082.44C542.704 1082 543.478 1081.78 544.331 1081.78ZM555.3 1093L554.468 1090.23H550.292L549.46 1093H547.924L551.46 1081.98H553.38L556.9 1093H555.3ZM550.66 1089H554.1L552.388 1083.24L550.66 1089Z" fill="white"/>
			<path d="M191.359 988H189.327L184.847 978.64C184.911 979.376 184.959 980.059 184.991 980.688C185.034 981.307 185.055 982.059 185.055 982.944V988H183.631V976.976H185.615L190.143 986.352C190.111 986.075 190.069 985.589 190.015 984.896C189.962 984.203 189.935 983.568 189.935 982.992V976.976H191.359V988ZM197.641 979.376C198.825 979.376 199.742 979.771 200.393 980.56C201.054 981.349 201.385 982.421 201.385 983.776C201.385 984.651 201.236 985.424 200.937 986.096C200.638 986.757 200.206 987.275 199.641 987.648C199.076 988.011 198.404 988.192 197.625 988.192C196.441 988.192 195.518 987.797 194.857 987.008C194.196 986.219 193.865 985.147 193.865 983.792C193.865 982.917 194.014 982.149 194.313 981.488C194.612 980.816 195.044 980.299 195.609 979.936C196.174 979.563 196.852 979.376 197.641 979.376ZM197.641 980.56C196.18 980.56 195.449 981.637 195.449 983.792C195.449 985.936 196.174 987.008 197.625 987.008C199.076 987.008 199.801 985.931 199.801 983.776C199.801 981.632 199.081 980.56 197.641 980.56ZM207.481 979.376C207.78 979.376 208.057 979.408 208.313 979.472L208.041 980.912C207.785 980.848 207.54 980.816 207.305 980.816C206.782 980.816 206.361 981.008 206.041 981.392C205.721 981.776 205.47 982.373 205.289 983.184V988H203.817V979.568H205.081L205.225 981.28C205.449 980.651 205.753 980.176 206.137 979.856C206.521 979.536 206.969 979.376 207.481 979.376ZM214.245 987.616C213.69 988 213.061 988.192 212.357 988.192C211.642 988.192 211.082 987.989 210.677 987.584C210.282 987.168 210.085 986.571 210.085 985.792V980.704H208.613V979.568H210.085V977.664L211.557 977.488V979.568H213.557L213.397 980.704H211.557V985.728C211.557 986.165 211.631 986.485 211.781 986.688C211.941 986.88 212.202 986.976 212.565 986.976C212.895 986.976 213.269 986.864 213.685 986.64L214.245 987.616ZM219.738 979.376C220.506 979.376 221.103 979.605 221.53 980.064C221.967 980.523 222.186 981.152 222.186 981.952V988H220.714V982.16C220.714 981.563 220.597 981.141 220.362 980.896C220.138 980.651 219.807 980.528 219.37 980.528C218.933 980.528 218.543 980.656 218.202 980.912C217.861 981.168 217.541 981.531 217.242 982V988H215.77V976.192L217.242 976.032V980.736C217.903 979.829 218.735 979.376 219.738 979.376ZM232.179 976.784C232.915 976.784 233.545 976.891 234.067 977.104C234.59 977.307 235.097 977.627 235.587 978.064L234.755 978.992C234.339 978.661 233.929 978.421 233.523 978.272C233.129 978.112 232.702 978.032 232.243 978.032C231.667 978.032 231.193 978.165 230.819 978.432C230.446 978.699 230.259 979.088 230.259 979.6C230.259 979.92 230.323 980.192 230.451 980.416C230.579 980.629 230.814 980.827 231.155 981.008C231.507 981.189 232.014 981.381 232.675 981.584C233.369 981.797 233.945 982.027 234.403 982.272C234.862 982.517 235.23 982.859 235.507 983.296C235.795 983.723 235.939 984.267 235.939 984.928C235.939 985.568 235.779 986.133 235.459 986.624C235.15 987.115 234.697 987.499 234.099 987.776C233.513 988.053 232.814 988.192 232.003 988.192C230.478 988.192 229.23 987.717 228.259 986.768L229.091 985.84C229.539 986.203 229.993 986.48 230.451 986.672C230.91 986.853 231.422 986.944 231.987 986.944C232.67 986.944 233.235 986.779 233.683 986.448C234.131 986.107 234.355 985.616 234.355 984.976C234.355 984.613 234.286 984.315 234.147 984.08C234.009 983.835 233.769 983.616 233.427 983.424C233.097 983.232 232.611 983.04 231.971 982.848C230.841 982.507 230.014 982.096 229.491 981.616C228.969 981.136 228.707 980.485 228.707 979.664C228.707 979.109 228.851 978.613 229.139 978.176C229.438 977.739 229.849 977.397 230.371 977.152C230.905 976.907 231.507 976.784 232.179 976.784ZM242.066 979.376C242.834 979.376 243.431 979.605 243.858 980.064C244.295 980.523 244.514 981.152 244.514 981.952V988H243.042V982.16C243.042 981.563 242.925 981.141 242.69 980.896C242.466 980.651 242.135 980.528 241.698 980.528C241.261 980.528 240.871 980.656 240.53 980.912C240.189 981.168 239.869 981.531 239.57 982V988H238.098V976.192L239.57 976.032V980.736C240.231 979.829 241.063 979.376 242.066 979.376ZM250.641 979.376C251.825 979.376 252.742 979.771 253.393 980.56C254.054 981.349 254.385 982.421 254.385 983.776C254.385 984.651 254.236 985.424 253.937 986.096C253.638 986.757 253.206 987.275 252.641 987.648C252.076 988.011 251.404 988.192 250.625 988.192C249.441 988.192 248.518 987.797 247.857 987.008C247.196 986.219 246.865 985.147 246.865 983.792C246.865 982.917 247.014 982.149 247.313 981.488C247.612 980.816 248.044 980.299 248.609 979.936C249.174 979.563 249.852 979.376 250.641 979.376ZM250.641 980.56C249.18 980.56 248.449 981.637 248.449 983.792C248.449 985.936 249.174 987.008 250.625 987.008C252.076 987.008 252.801 985.931 252.801 983.776C252.801 981.632 252.081 980.56 250.641 980.56ZM260.481 979.376C260.78 979.376 261.057 979.408 261.313 979.472L261.041 980.912C260.785 980.848 260.54 980.816 260.305 980.816C259.782 980.816 259.361 981.008 259.041 981.392C258.721 981.776 258.47 982.373 258.289 983.184V988H256.817V979.568H258.081L258.225 981.28C258.449 980.651 258.753 980.176 259.137 979.856C259.521 979.536 259.969 979.376 260.481 979.376ZM268.872 983.536C268.872 983.781 268.862 984.032 268.84 984.288H263.464C263.528 985.216 263.763 985.899 264.168 986.336C264.574 986.773 265.096 986.992 265.736 986.992C266.142 986.992 266.515 986.933 266.856 986.816C267.198 986.699 267.555 986.512 267.928 986.256L268.568 987.136C267.672 987.84 266.691 988.192 265.624 988.192C264.451 988.192 263.534 987.808 262.872 987.04C262.222 986.272 261.896 985.216 261.896 983.872C261.896 982.997 262.035 982.224 262.312 981.552C262.6 980.869 263.006 980.336 263.528 979.952C264.062 979.568 264.686 979.376 265.4 979.376C266.52 979.376 267.379 979.744 267.976 980.48C268.574 981.216 268.872 982.235 268.872 983.536ZM267.416 983.104C267.416 982.272 267.251 981.637 266.92 981.2C266.59 980.763 266.094 980.544 265.432 980.544C264.227 980.544 263.571 981.429 263.464 983.2H267.416V983.104ZM277.41 975.184V989.568H277.058V975.184H277.41ZM296.237 988H294.765L294.381 983.024C294.221 981.072 294.131 979.573 294.109 978.528L291.725 986.752H290.301L287.789 978.512C287.789 979.845 287.72 981.387 287.581 983.136L287.213 988H285.773L286.685 976.976H288.733L291.053 984.992L293.261 976.976H295.325L296.237 988ZM304.434 986.032C304.434 986.373 304.493 986.629 304.61 986.8C304.728 986.96 304.904 987.083 305.138 987.168L304.802 988.192C304.365 988.139 304.013 988.016 303.746 987.824C303.48 987.632 303.282 987.333 303.154 986.928C302.589 987.771 301.752 988.192 300.642 988.192C299.81 988.192 299.154 987.957 298.674 987.488C298.194 987.019 297.954 986.405 297.954 985.648C297.954 984.752 298.274 984.064 298.914 983.584C299.565 983.104 300.482 982.864 301.666 982.864H302.962V982.24C302.962 981.643 302.818 981.216 302.53 980.96C302.242 980.704 301.8 980.576 301.202 980.576C300.584 980.576 299.826 980.725 298.93 981.024L298.562 979.952C299.608 979.568 300.578 979.376 301.474 979.376C302.466 979.376 303.208 979.621 303.698 980.112C304.189 980.592 304.434 981.28 304.434 982.176V986.032ZM300.978 987.088C301.821 987.088 302.482 986.651 302.962 985.776V983.84H301.858C300.301 983.84 299.522 984.416 299.522 985.568C299.522 986.069 299.645 986.448 299.89 986.704C300.136 986.96 300.498 987.088 300.978 987.088ZM308.981 988.192C308.437 988.192 308.005 988.032 307.685 987.712C307.376 987.381 307.221 986.923 307.221 986.336V976.176L308.693 976V986.304C308.693 986.539 308.731 986.709 308.805 986.816C308.891 986.923 309.029 986.976 309.221 986.976C309.424 986.976 309.605 986.944 309.765 986.88L310.149 987.904C309.797 988.096 309.408 988.192 308.981 988.192ZM313.461 979.568V988H311.989V979.568H313.461ZM312.709 975.52C313.018 975.52 313.269 975.616 313.461 975.808C313.653 976 313.749 976.24 313.749 976.528C313.749 976.816 313.653 977.056 313.461 977.248C313.269 977.429 313.018 977.52 312.709 977.52C312.41 977.52 312.165 977.429 311.973 977.248C311.781 977.056 311.685 976.816 311.685 976.528C311.685 976.24 311.781 976 311.973 975.808C312.165 975.616 312.41 975.52 312.709 975.52ZM320.36 979.376C321.32 979.376 322.083 979.765 322.648 980.544C323.214 981.312 323.496 982.389 323.496 983.776C323.496 984.651 323.363 985.424 323.096 986.096C322.83 986.757 322.446 987.275 321.944 987.648C321.443 988.011 320.856 988.192 320.184 988.192C319.299 988.192 318.552 987.819 317.944 987.072L317.8 988H316.504V976.176L317.976 976V980.624C318.584 979.792 319.379 979.376 320.36 979.376ZM319.832 987.024C320.483 987.024 320.99 986.763 321.352 986.24C321.726 985.707 321.912 984.885 321.912 983.776C321.912 982.635 321.742 981.813 321.4 981.312C321.059 980.8 320.574 980.544 319.944 980.544C319.198 980.544 318.542 980.981 317.976 981.856V985.888C318.2 986.24 318.472 986.517 318.792 986.72C319.123 986.923 319.47 987.024 319.832 987.024ZM332.276 988H331.012L330.9 986.688C330.58 987.211 330.212 987.595 329.796 987.84C329.38 988.075 328.874 988.192 328.276 988.192C327.54 988.192 326.964 987.968 326.548 987.52C326.132 987.072 325.924 986.437 325.924 985.616V979.568H327.396V985.456C327.396 986.032 327.498 986.443 327.7 986.688C327.903 986.923 328.234 987.04 328.692 987.04C329.514 987.04 330.218 986.555 330.804 985.584V979.568H332.276V988ZM335.701 985.968C336.021 985.968 336.288 986.075 336.501 986.288C336.714 986.501 336.821 986.763 336.821 987.072C336.821 987.403 336.725 987.781 336.533 988.208L335.461 990.656H334.405L335.045 988C334.906 987.893 334.794 987.76 334.709 987.6C334.634 987.44 334.597 987.264 334.597 987.072C334.597 986.763 334.704 986.501 334.917 986.288C335.13 986.075 335.392 985.968 335.701 985.968ZM347.331 976.784C347.992 976.784 348.547 976.869 348.995 977.04C349.454 977.211 349.918 977.488 350.387 977.872L349.555 978.848C348.883 978.304 348.174 978.032 347.427 978.032C346.51 978.032 345.768 978.384 345.203 979.088C344.648 979.792 344.371 980.923 344.371 982.48C344.371 983.995 344.648 985.115 345.203 985.84C345.758 986.555 346.494 986.912 347.411 986.912C347.88 986.912 348.291 986.832 348.643 986.672C348.995 986.512 349.368 986.288 349.763 986L350.515 986.96C350.174 987.312 349.736 987.605 349.203 987.84C348.67 988.075 348.056 988.192 347.363 988.192C346.467 988.192 345.667 987.973 344.963 987.536C344.27 987.088 343.726 986.437 343.331 985.584C342.947 984.72 342.755 983.685 342.755 982.48C342.755 981.275 342.958 980.245 343.363 979.392C343.768 978.528 344.318 977.877 345.011 977.44C345.704 977.003 346.478 976.784 347.331 976.784ZM358.3 988L357.468 985.232H353.292L352.46 988H350.924L354.46 976.976H356.38L359.9 988H358.3ZM353.66 984H357.1L355.388 978.24L353.66 984Z" fill="white"/>
			<path d="M543.414 1239.78C544.15 1239.78 544.779 1239.89 545.302 1240.1C545.824 1240.31 546.331 1240.63 546.822 1241.06L545.99 1241.99C545.574 1241.66 545.163 1241.42 544.758 1241.27C544.363 1241.11 543.936 1241.03 543.478 1241.03C542.902 1241.03 542.427 1241.17 542.054 1241.43C541.68 1241.7 541.494 1242.09 541.494 1242.6C541.494 1242.92 541.558 1243.19 541.686 1243.42C541.814 1243.63 542.048 1243.83 542.39 1244.01C542.742 1244.19 543.248 1244.38 543.91 1244.58C544.603 1244.8 545.179 1245.03 545.638 1245.27C546.096 1245.52 546.464 1245.86 546.742 1246.3C547.03 1246.72 547.174 1247.27 547.174 1247.93C547.174 1248.57 547.014 1249.13 546.694 1249.62C546.384 1250.11 545.931 1250.5 545.334 1250.78C544.747 1251.05 544.048 1251.19 543.238 1251.19C541.712 1251.19 540.464 1250.72 539.494 1249.77L540.326 1248.84C540.774 1249.2 541.227 1249.48 541.686 1249.67C542.144 1249.85 542.656 1249.94 543.222 1249.94C543.904 1249.94 544.47 1249.78 544.918 1249.45C545.366 1249.11 545.59 1248.62 545.59 1247.98C545.59 1247.61 545.52 1247.31 545.382 1247.08C545.243 1246.83 545.003 1246.62 544.662 1246.42C544.331 1246.23 543.846 1246.04 543.206 1245.85C542.075 1245.51 541.248 1245.1 540.726 1244.62C540.203 1244.14 539.942 1243.49 539.942 1242.66C539.942 1242.11 540.086 1241.61 540.374 1241.18C540.672 1240.74 541.083 1240.4 541.606 1240.15C542.139 1239.91 542.742 1239.78 543.414 1239.78ZM552.501 1242.38C553.685 1242.38 554.602 1242.77 555.253 1243.56C555.914 1244.35 556.245 1245.42 556.245 1246.78C556.245 1247.65 556.095 1248.42 555.797 1249.1C555.498 1249.76 555.066 1250.27 554.501 1250.65C553.935 1251.01 553.263 1251.19 552.485 1251.19C551.301 1251.19 550.378 1250.8 549.717 1250.01C549.055 1249.22 548.725 1248.15 548.725 1246.79C548.725 1245.92 548.874 1245.15 549.173 1244.49C549.471 1243.82 549.903 1243.3 550.469 1242.94C551.034 1242.56 551.711 1242.38 552.501 1242.38ZM552.501 1243.56C551.039 1243.56 550.309 1244.64 550.309 1246.79C550.309 1248.94 551.034 1250.01 552.485 1250.01C553.935 1250.01 554.661 1248.93 554.661 1246.78C554.661 1244.63 553.941 1243.56 552.501 1243.56ZM564.948 1251H563.684L563.572 1249.69C563.252 1250.21 562.884 1250.59 562.468 1250.84C562.052 1251.07 561.546 1251.19 560.948 1251.19C560.212 1251.19 559.636 1250.97 559.22 1250.52C558.804 1250.07 558.596 1249.44 558.596 1248.62V1242.57H560.068V1248.46C560.068 1249.03 560.17 1249.44 560.372 1249.69C560.575 1249.92 560.906 1250.04 561.364 1250.04C562.186 1250.04 562.89 1249.55 563.476 1248.58V1242.57H564.948V1251ZM572.245 1250.62C571.69 1251 571.061 1251.19 570.357 1251.19C569.642 1251.19 569.082 1250.99 568.677 1250.58C568.282 1250.17 568.085 1249.57 568.085 1248.79V1243.7H566.613V1242.57H568.085V1240.66L569.557 1240.49V1242.57H571.557L571.397 1243.7H569.557V1248.73C569.557 1249.17 569.631 1249.49 569.781 1249.69C569.941 1249.88 570.202 1249.98 570.565 1249.98C570.895 1249.98 571.269 1249.86 571.685 1249.64L572.245 1250.62ZM577.738 1242.38C578.506 1242.38 579.103 1242.61 579.53 1243.06C579.967 1243.52 580.186 1244.15 580.186 1244.95V1251H578.714V1245.16C578.714 1244.56 578.597 1244.14 578.362 1243.9C578.138 1243.65 577.807 1243.53 577.37 1243.53C576.933 1243.53 576.543 1243.66 576.202 1243.91C575.861 1244.17 575.541 1244.53 575.242 1245V1251H573.77V1239.19L575.242 1239.03V1243.74C575.903 1242.83 576.735 1242.38 577.738 1242.38ZM590.179 1239.78C590.915 1239.78 591.545 1239.89 592.067 1240.1C592.59 1240.31 593.097 1240.63 593.587 1241.06L592.755 1241.99C592.339 1241.66 591.929 1241.42 591.523 1241.27C591.129 1241.11 590.702 1241.03 590.243 1241.03C589.667 1241.03 589.193 1241.17 588.819 1241.43C588.446 1241.7 588.259 1242.09 588.259 1242.6C588.259 1242.92 588.323 1243.19 588.451 1243.42C588.579 1243.63 588.814 1243.83 589.155 1244.01C589.507 1244.19 590.014 1244.38 590.675 1244.58C591.369 1244.8 591.945 1245.03 592.403 1245.27C592.862 1245.52 593.23 1245.86 593.507 1246.3C593.795 1246.72 593.939 1247.27 593.939 1247.93C593.939 1248.57 593.779 1249.13 593.459 1249.62C593.15 1250.11 592.697 1250.5 592.099 1250.78C591.513 1251.05 590.814 1251.19 590.003 1251.19C588.478 1251.19 587.23 1250.72 586.259 1249.77L587.091 1248.84C587.539 1249.2 587.993 1249.48 588.451 1249.67C588.91 1249.85 589.422 1249.94 589.987 1249.94C590.67 1249.94 591.235 1249.78 591.683 1249.45C592.131 1249.11 592.355 1248.62 592.355 1247.98C592.355 1247.61 592.286 1247.31 592.147 1247.08C592.009 1246.83 591.769 1246.62 591.427 1246.42C591.097 1246.23 590.611 1246.04 589.971 1245.85C588.841 1245.51 588.014 1245.1 587.491 1244.62C586.969 1244.14 586.707 1243.49 586.707 1242.66C586.707 1242.11 586.851 1241.61 587.139 1241.18C587.438 1240.74 587.849 1240.4 588.371 1240.15C588.905 1239.91 589.507 1239.78 590.179 1239.78ZM600.066 1242.38C600.834 1242.38 601.431 1242.61 601.858 1243.06C602.295 1243.52 602.514 1244.15 602.514 1244.95V1251H601.042V1245.16C601.042 1244.56 600.925 1244.14 600.69 1243.9C600.466 1243.65 600.135 1243.53 599.698 1243.53C599.261 1243.53 598.871 1243.66 598.53 1243.91C598.189 1244.17 597.869 1244.53 597.57 1245V1251H596.098V1239.19L597.57 1239.03V1243.74C598.231 1242.83 599.063 1242.38 600.066 1242.38ZM608.641 1242.38C609.825 1242.38 610.742 1242.77 611.393 1243.56C612.054 1244.35 612.385 1245.42 612.385 1246.78C612.385 1247.65 612.236 1248.42 611.937 1249.1C611.638 1249.76 611.206 1250.27 610.641 1250.65C610.076 1251.01 609.404 1251.19 608.625 1251.19C607.441 1251.19 606.518 1250.8 605.857 1250.01C605.196 1249.22 604.865 1248.15 604.865 1246.79C604.865 1245.92 605.014 1245.15 605.313 1244.49C605.612 1243.82 606.044 1243.3 606.609 1242.94C607.174 1242.56 607.852 1242.38 608.641 1242.38ZM608.641 1243.56C607.18 1243.56 606.449 1244.64 606.449 1246.79C606.449 1248.94 607.174 1250.01 608.625 1250.01C610.076 1250.01 610.801 1248.93 610.801 1246.78C610.801 1244.63 610.081 1243.56 608.641 1243.56ZM618.481 1242.38C618.78 1242.38 619.057 1242.41 619.313 1242.47L619.041 1243.91C618.785 1243.85 618.54 1243.82 618.305 1243.82C617.782 1243.82 617.361 1244.01 617.041 1244.39C616.721 1244.78 616.47 1245.37 616.289 1246.18V1251H614.817V1242.57H616.081L616.225 1244.28C616.449 1243.65 616.753 1243.18 617.137 1242.86C617.521 1242.54 617.969 1242.38 618.481 1242.38ZM626.872 1246.54C626.872 1246.78 626.862 1247.03 626.84 1247.29H621.464C621.528 1248.22 621.763 1248.9 622.168 1249.34C622.574 1249.77 623.096 1249.99 623.736 1249.99C624.142 1249.99 624.515 1249.93 624.856 1249.82C625.198 1249.7 625.555 1249.51 625.928 1249.26L626.568 1250.14C625.672 1250.84 624.691 1251.19 623.624 1251.19C622.451 1251.19 621.534 1250.81 620.872 1250.04C620.222 1249.27 619.896 1248.22 619.896 1246.87C619.896 1246 620.035 1245.22 620.312 1244.55C620.6 1243.87 621.006 1243.34 621.528 1242.95C622.062 1242.57 622.686 1242.38 623.4 1242.38C624.52 1242.38 625.379 1242.74 625.976 1243.48C626.574 1244.22 626.872 1245.23 626.872 1246.54ZM625.416 1246.1C625.416 1245.27 625.251 1244.64 624.92 1244.2C624.59 1243.76 624.094 1243.54 623.432 1243.54C622.227 1243.54 621.571 1244.43 621.464 1246.2H625.416V1246.1ZM635.41 1238.18V1252.57H635.058V1238.18H635.41ZM654.237 1251H652.765L652.381 1246.02C652.221 1244.07 652.131 1242.57 652.109 1241.53L649.725 1249.75H648.301L645.789 1241.51C645.789 1242.85 645.72 1244.39 645.581 1246.14L645.213 1251H643.773L644.685 1239.98H646.733L649.053 1247.99L651.261 1239.98H653.325L654.237 1251ZM662.434 1249.03C662.434 1249.37 662.493 1249.63 662.61 1249.8C662.728 1249.96 662.904 1250.08 663.138 1250.17L662.802 1251.19C662.365 1251.14 662.013 1251.02 661.746 1250.82C661.48 1250.63 661.282 1250.33 661.154 1249.93C660.589 1250.77 659.752 1251.19 658.642 1251.19C657.81 1251.19 657.154 1250.96 656.674 1250.49C656.194 1250.02 655.954 1249.41 655.954 1248.65C655.954 1247.75 656.274 1247.06 656.914 1246.58C657.565 1246.1 658.482 1245.86 659.666 1245.86H660.962V1245.24C660.962 1244.64 660.818 1244.22 660.53 1243.96C660.242 1243.7 659.8 1243.58 659.202 1243.58C658.584 1243.58 657.826 1243.73 656.93 1244.02L656.562 1242.95C657.608 1242.57 658.578 1242.38 659.474 1242.38C660.466 1242.38 661.208 1242.62 661.698 1243.11C662.189 1243.59 662.434 1244.28 662.434 1245.18V1249.03ZM658.978 1250.09C659.821 1250.09 660.482 1249.65 660.962 1248.78V1246.84H659.858C658.301 1246.84 657.522 1247.42 657.522 1248.57C657.522 1249.07 657.645 1249.45 657.89 1249.7C658.136 1249.96 658.498 1250.09 658.978 1250.09ZM666.981 1251.19C666.437 1251.19 666.005 1251.03 665.685 1250.71C665.376 1250.38 665.221 1249.92 665.221 1249.34V1239.18L666.693 1239V1249.3C666.693 1249.54 666.731 1249.71 666.805 1249.82C666.891 1249.92 667.029 1249.98 667.221 1249.98C667.424 1249.98 667.605 1249.94 667.765 1249.88L668.149 1250.9C667.797 1251.1 667.408 1251.19 666.981 1251.19ZM671.461 1242.57V1251H669.989V1242.57H671.461ZM670.709 1238.52C671.018 1238.52 671.269 1238.62 671.461 1238.81C671.653 1239 671.749 1239.24 671.749 1239.53C671.749 1239.82 671.653 1240.06 671.461 1240.25C671.269 1240.43 671.018 1240.52 670.709 1240.52C670.41 1240.52 670.165 1240.43 669.973 1240.25C669.781 1240.06 669.685 1239.82 669.685 1239.53C669.685 1239.24 669.781 1239 669.973 1238.81C670.165 1238.62 670.41 1238.52 670.709 1238.52ZM678.36 1242.38C679.32 1242.38 680.083 1242.77 680.648 1243.54C681.214 1244.31 681.496 1245.39 681.496 1246.78C681.496 1247.65 681.363 1248.42 681.096 1249.1C680.83 1249.76 680.446 1250.27 679.944 1250.65C679.443 1251.01 678.856 1251.19 678.184 1251.19C677.299 1251.19 676.552 1250.82 675.944 1250.07L675.8 1251H674.504V1239.18L675.976 1239V1243.62C676.584 1242.79 677.379 1242.38 678.36 1242.38ZM677.832 1250.02C678.483 1250.02 678.99 1249.76 679.352 1249.24C679.726 1248.71 679.912 1247.89 679.912 1246.78C679.912 1245.63 679.742 1244.81 679.4 1244.31C679.059 1243.8 678.574 1243.54 677.944 1243.54C677.198 1243.54 676.542 1243.98 675.976 1244.86V1248.89C676.2 1249.24 676.472 1249.52 676.792 1249.72C677.123 1249.92 677.47 1250.02 677.832 1250.02ZM690.276 1251H689.012L688.9 1249.69C688.58 1250.21 688.212 1250.59 687.796 1250.84C687.38 1251.07 686.874 1251.19 686.276 1251.19C685.54 1251.19 684.964 1250.97 684.548 1250.52C684.132 1250.07 683.924 1249.44 683.924 1248.62V1242.57H685.396V1248.46C685.396 1249.03 685.498 1249.44 685.7 1249.69C685.903 1249.92 686.234 1250.04 686.692 1250.04C687.514 1250.04 688.218 1249.55 688.804 1248.58V1242.57H690.276V1251ZM693.701 1248.97C694.021 1248.97 694.288 1249.07 694.501 1249.29C694.714 1249.5 694.821 1249.76 694.821 1250.07C694.821 1250.4 694.725 1250.78 694.533 1251.21L693.461 1253.66H692.405L693.045 1251C692.906 1250.89 692.794 1250.76 692.709 1250.6C692.634 1250.44 692.597 1250.26 692.597 1250.07C692.597 1249.76 692.704 1249.5 692.917 1249.29C693.13 1249.07 693.392 1248.97 693.701 1248.97ZM705.331 1239.78C705.992 1239.78 706.547 1239.87 706.995 1240.04C707.454 1240.21 707.918 1240.49 708.387 1240.87L707.555 1241.85C706.883 1241.3 706.174 1241.03 705.427 1241.03C704.51 1241.03 703.768 1241.38 703.203 1242.09C702.648 1242.79 702.371 1243.92 702.371 1245.48C702.371 1246.99 702.648 1248.11 703.203 1248.84C703.758 1249.55 704.494 1249.91 705.411 1249.91C705.88 1249.91 706.291 1249.83 706.643 1249.67C706.995 1249.51 707.368 1249.29 707.763 1249L708.515 1249.96C708.174 1250.31 707.736 1250.61 707.203 1250.84C706.67 1251.07 706.056 1251.19 705.363 1251.19C704.467 1251.19 703.667 1250.97 702.963 1250.54C702.27 1250.09 701.726 1249.44 701.331 1248.58C700.947 1247.72 700.755 1246.69 700.755 1245.48C700.755 1244.27 700.958 1243.25 701.363 1242.39C701.768 1241.53 702.318 1240.88 703.011 1240.44C703.704 1240 704.478 1239.78 705.331 1239.78ZM716.3 1251L715.468 1248.23H711.292L710.46 1251H708.924L712.46 1239.98H714.38L717.9 1251H716.3ZM711.66 1247H715.1L713.388 1241.24L711.66 1247Z" fill="white"/>
			<path d="M488.021 1134.98L487.845 1136.19H483.573V1139.79H487.285V1141.01H483.573V1144.78H488.149V1146H482.053V1134.98H488.021ZM496.028 1144.03C496.028 1144.37 496.087 1144.63 496.204 1144.8C496.321 1144.96 496.497 1145.08 496.732 1145.17L496.396 1146.19C495.959 1146.14 495.607 1146.02 495.34 1145.82C495.073 1145.63 494.876 1145.33 494.748 1144.93C494.183 1145.77 493.345 1146.19 492.236 1146.19C491.404 1146.19 490.748 1145.96 490.268 1145.49C489.788 1145.02 489.548 1144.41 489.548 1143.65C489.548 1142.75 489.868 1142.06 490.508 1141.58C491.159 1141.1 492.076 1140.86 493.26 1140.86H494.556V1140.24C494.556 1139.64 494.412 1139.22 494.124 1138.96C493.836 1138.7 493.393 1138.58 492.796 1138.58C492.177 1138.58 491.42 1138.73 490.524 1139.02L490.156 1137.95C491.201 1137.57 492.172 1137.38 493.068 1137.38C494.06 1137.38 494.801 1137.62 495.292 1138.11C495.783 1138.59 496.028 1139.28 496.028 1140.18V1144.03ZM492.572 1145.09C493.415 1145.09 494.076 1144.65 494.556 1143.78V1141.84H493.452C491.895 1141.84 491.116 1142.42 491.116 1143.57C491.116 1144.07 491.239 1144.45 491.484 1144.7C491.729 1144.96 492.092 1145.09 492.572 1145.09ZM501.183 1137.38C501.759 1137.38 502.276 1137.46 502.735 1137.62C503.194 1137.78 503.631 1138.02 504.047 1138.34L503.423 1139.26C503.039 1139.02 502.671 1138.84 502.319 1138.72C501.978 1138.6 501.615 1138.54 501.231 1138.54C500.751 1138.54 500.372 1138.65 500.095 1138.85C499.818 1139.04 499.679 1139.31 499.679 1139.65C499.679 1139.99 499.807 1140.26 500.063 1140.45C500.33 1140.64 500.804 1140.83 501.487 1141.01C502.426 1141.24 503.124 1141.56 503.583 1141.97C504.052 1142.37 504.287 1142.93 504.287 1143.63C504.287 1144.46 503.962 1145.1 503.311 1145.54C502.671 1145.97 501.887 1146.19 500.959 1146.19C499.679 1146.19 498.618 1145.82 497.775 1145.09L498.559 1144.19C499.274 1144.74 500.063 1145.01 500.927 1145.01C501.482 1145.01 501.919 1144.9 502.239 1144.67C502.57 1144.44 502.735 1144.12 502.735 1143.73C502.735 1143.44 502.676 1143.21 502.559 1143.04C502.442 1142.86 502.239 1142.7 501.951 1142.58C501.663 1142.44 501.242 1142.29 500.687 1142.14C499.791 1141.91 499.14 1141.59 498.735 1141.2C498.34 1140.81 498.143 1140.3 498.143 1139.7C498.143 1139.26 498.271 1138.86 498.527 1138.51C498.794 1138.15 499.156 1137.87 499.615 1137.68C500.084 1137.48 500.607 1137.38 501.183 1137.38ZM510.62 1145.62C510.065 1146 509.436 1146.19 508.732 1146.19C508.017 1146.19 507.457 1145.99 507.052 1145.58C506.657 1145.17 506.46 1144.57 506.46 1143.79V1138.7H504.988V1137.57H506.46V1135.66L507.932 1135.49V1137.57H509.932L509.772 1138.7H507.932V1143.73C507.932 1144.17 508.006 1144.49 508.156 1144.69C508.316 1144.88 508.577 1144.98 508.94 1144.98C509.27 1144.98 509.644 1144.86 510.06 1144.64L510.62 1145.62ZM519.179 1134.78C519.915 1134.78 520.545 1134.89 521.067 1135.1C521.59 1135.31 522.097 1135.63 522.587 1136.06L521.755 1136.99C521.339 1136.66 520.929 1136.42 520.523 1136.27C520.129 1136.11 519.702 1136.03 519.243 1136.03C518.667 1136.03 518.193 1136.17 517.819 1136.43C517.446 1136.7 517.259 1137.09 517.259 1137.6C517.259 1137.92 517.323 1138.19 517.451 1138.42C517.579 1138.63 517.814 1138.83 518.155 1139.01C518.507 1139.19 519.014 1139.38 519.675 1139.58C520.369 1139.8 520.945 1140.03 521.403 1140.27C521.862 1140.52 522.23 1140.86 522.507 1141.3C522.795 1141.72 522.939 1142.27 522.939 1142.93C522.939 1143.57 522.779 1144.13 522.459 1144.62C522.15 1145.11 521.697 1145.5 521.099 1145.78C520.513 1146.05 519.814 1146.19 519.003 1146.19C517.478 1146.19 516.23 1145.72 515.259 1144.77L516.091 1143.84C516.539 1144.2 516.993 1144.48 517.451 1144.67C517.91 1144.85 518.422 1144.94 518.987 1144.94C519.67 1144.94 520.235 1144.78 520.683 1144.45C521.131 1144.11 521.355 1143.62 521.355 1142.98C521.355 1142.61 521.286 1142.31 521.147 1142.08C521.009 1141.83 520.769 1141.62 520.427 1141.42C520.097 1141.23 519.611 1141.04 518.971 1140.85C517.841 1140.51 517.014 1140.1 516.491 1139.62C515.969 1139.14 515.707 1138.49 515.707 1137.66C515.707 1137.11 515.851 1136.61 516.139 1136.18C516.438 1135.74 516.849 1135.4 517.371 1135.15C517.905 1134.91 518.507 1134.78 519.179 1134.78ZM529.066 1137.38C529.834 1137.38 530.431 1137.61 530.858 1138.06C531.295 1138.52 531.514 1139.15 531.514 1139.95V1146H530.042V1140.16C530.042 1139.56 529.925 1139.14 529.69 1138.9C529.466 1138.65 529.135 1138.53 528.698 1138.53C528.261 1138.53 527.871 1138.66 527.53 1138.91C527.189 1139.17 526.869 1139.53 526.57 1140V1146H525.098V1134.19L526.57 1134.03V1138.74C527.231 1137.83 528.063 1137.38 529.066 1137.38ZM537.641 1137.38C538.825 1137.38 539.742 1137.77 540.393 1138.56C541.054 1139.35 541.385 1140.42 541.385 1141.78C541.385 1142.65 541.236 1143.42 540.937 1144.1C540.638 1144.76 540.206 1145.27 539.641 1145.65C539.076 1146.01 538.404 1146.19 537.625 1146.19C536.441 1146.19 535.518 1145.8 534.857 1145.01C534.196 1144.22 533.865 1143.15 533.865 1141.79C533.865 1140.92 534.014 1140.15 534.313 1139.49C534.612 1138.82 535.044 1138.3 535.609 1137.94C536.174 1137.56 536.852 1137.38 537.641 1137.38ZM537.641 1138.56C536.18 1138.56 535.449 1139.64 535.449 1141.79C535.449 1143.94 536.174 1145.01 537.625 1145.01C539.076 1145.01 539.801 1143.93 539.801 1141.78C539.801 1139.63 539.081 1138.56 537.641 1138.56ZM547.481 1137.38C547.78 1137.38 548.057 1137.41 548.313 1137.47L548.041 1138.91C547.785 1138.85 547.54 1138.82 547.305 1138.82C546.782 1138.82 546.361 1139.01 546.041 1139.39C545.721 1139.78 545.47 1140.37 545.289 1141.18V1146H543.817V1137.57H545.081L545.225 1139.28C545.449 1138.65 545.753 1138.18 546.137 1137.86C546.521 1137.54 546.969 1137.38 547.481 1137.38ZM555.872 1141.54C555.872 1141.78 555.862 1142.03 555.84 1142.29H550.464C550.528 1143.22 550.763 1143.9 551.168 1144.34C551.574 1144.77 552.096 1144.99 552.736 1144.99C553.142 1144.99 553.515 1144.93 553.856 1144.82C554.198 1144.7 554.555 1144.51 554.928 1144.26L555.568 1145.14C554.672 1145.84 553.691 1146.19 552.624 1146.19C551.451 1146.19 550.534 1145.81 549.872 1145.04C549.222 1144.27 548.896 1143.22 548.896 1141.87C548.896 1141 549.035 1140.22 549.312 1139.55C549.6 1138.87 550.006 1138.34 550.528 1137.95C551.062 1137.57 551.686 1137.38 552.4 1137.38C553.52 1137.38 554.379 1137.74 554.976 1138.48C555.574 1139.22 555.872 1140.23 555.872 1141.54ZM554.416 1141.1C554.416 1140.27 554.251 1139.64 553.92 1139.2C553.59 1138.76 553.094 1138.54 552.432 1138.54C551.227 1138.54 550.571 1139.43 550.464 1141.2H554.416V1141.1ZM564.41 1133.18V1147.57H564.058V1133.18H564.41ZM583.237 1146H581.765L581.381 1141.02C581.221 1139.07 581.131 1137.57 581.109 1136.53L578.725 1144.75H577.301L574.789 1136.51C574.789 1137.85 574.72 1139.39 574.581 1141.14L574.213 1146H572.773L573.685 1134.98H575.733L578.053 1142.99L580.261 1134.98H582.325L583.237 1146ZM591.434 1144.03C591.434 1144.37 591.493 1144.63 591.61 1144.8C591.728 1144.96 591.904 1145.08 592.138 1145.17L591.802 1146.19C591.365 1146.14 591.013 1146.02 590.746 1145.82C590.48 1145.63 590.282 1145.33 590.154 1144.93C589.589 1145.77 588.752 1146.19 587.642 1146.19C586.81 1146.19 586.154 1145.96 585.674 1145.49C585.194 1145.02 584.954 1144.41 584.954 1143.65C584.954 1142.75 585.274 1142.06 585.914 1141.58C586.565 1141.1 587.482 1140.86 588.666 1140.86H589.962V1140.24C589.962 1139.64 589.818 1139.22 589.53 1138.96C589.242 1138.7 588.8 1138.58 588.202 1138.58C587.584 1138.58 586.826 1138.73 585.93 1139.02L585.562 1137.95C586.608 1137.57 587.578 1137.38 588.474 1137.38C589.466 1137.38 590.208 1137.62 590.698 1138.11C591.189 1138.59 591.434 1139.28 591.434 1140.18V1144.03ZM587.978 1145.09C588.821 1145.09 589.482 1144.65 589.962 1143.78V1141.84H588.858C587.301 1141.84 586.522 1142.42 586.522 1143.57C586.522 1144.07 586.645 1144.45 586.89 1144.7C587.136 1144.96 587.498 1145.09 587.978 1145.09ZM595.981 1146.19C595.437 1146.19 595.005 1146.03 594.685 1145.71C594.376 1145.38 594.221 1144.92 594.221 1144.34V1134.18L595.693 1134V1144.3C595.693 1144.54 595.731 1144.71 595.805 1144.82C595.891 1144.92 596.029 1144.98 596.221 1144.98C596.424 1144.98 596.605 1144.94 596.765 1144.88L597.149 1145.9C596.797 1146.1 596.408 1146.19 595.981 1146.19ZM600.461 1137.57V1146H598.989V1137.57H600.461ZM599.709 1133.52C600.018 1133.52 600.269 1133.62 600.461 1133.81C600.653 1134 600.749 1134.24 600.749 1134.53C600.749 1134.82 600.653 1135.06 600.461 1135.25C600.269 1135.43 600.018 1135.52 599.709 1135.52C599.41 1135.52 599.165 1135.43 598.973 1135.25C598.781 1135.06 598.685 1134.82 598.685 1134.53C598.685 1134.24 598.781 1134 598.973 1133.81C599.165 1133.62 599.41 1133.52 599.709 1133.52ZM607.36 1137.38C608.32 1137.38 609.083 1137.77 609.648 1138.54C610.214 1139.31 610.496 1140.39 610.496 1141.78C610.496 1142.65 610.363 1143.42 610.096 1144.1C609.83 1144.76 609.446 1145.27 608.944 1145.65C608.443 1146.01 607.856 1146.19 607.184 1146.19C606.299 1146.19 605.552 1145.82 604.944 1145.07L604.8 1146H603.504V1134.18L604.976 1134V1138.62C605.584 1137.79 606.379 1137.38 607.36 1137.38ZM606.832 1145.02C607.483 1145.02 607.99 1144.76 608.352 1144.24C608.726 1143.71 608.912 1142.89 608.912 1141.78C608.912 1140.63 608.742 1139.81 608.4 1139.31C608.059 1138.8 607.574 1138.54 606.944 1138.54C606.198 1138.54 605.542 1138.98 604.976 1139.86V1143.89C605.2 1144.24 605.472 1144.52 605.792 1144.72C606.123 1144.92 606.47 1145.02 606.832 1145.02ZM619.276 1146H618.012L617.9 1144.69C617.58 1145.21 617.212 1145.59 616.796 1145.84C616.38 1146.07 615.874 1146.19 615.276 1146.19C614.54 1146.19 613.964 1145.97 613.548 1145.52C613.132 1145.07 612.924 1144.44 612.924 1143.62V1137.57H614.396V1143.46C614.396 1144.03 614.498 1144.44 614.7 1144.69C614.903 1144.92 615.234 1145.04 615.692 1145.04C616.514 1145.04 617.218 1144.55 617.804 1143.58V1137.57H619.276V1146ZM622.701 1143.97C623.021 1143.97 623.288 1144.07 623.501 1144.29C623.714 1144.5 623.821 1144.76 623.821 1145.07C623.821 1145.4 623.725 1145.78 623.533 1146.21L622.461 1148.66H621.405L622.045 1146C621.906 1145.89 621.794 1145.76 621.709 1145.6C621.634 1145.44 621.597 1145.26 621.597 1145.07C621.597 1144.76 621.704 1144.5 621.917 1144.29C622.13 1144.07 622.392 1143.97 622.701 1143.97ZM634.331 1134.78C634.992 1134.78 635.547 1134.87 635.995 1135.04C636.454 1135.21 636.918 1135.49 637.387 1135.87L636.555 1136.85C635.883 1136.3 635.174 1136.03 634.427 1136.03C633.51 1136.03 632.768 1136.38 632.203 1137.09C631.648 1137.79 631.371 1138.92 631.371 1140.48C631.371 1141.99 631.648 1143.11 632.203 1143.84C632.758 1144.55 633.494 1144.91 634.411 1144.91C634.88 1144.91 635.291 1144.83 635.643 1144.67C635.995 1144.51 636.368 1144.29 636.763 1144L637.515 1144.96C637.174 1145.31 636.736 1145.61 636.203 1145.84C635.67 1146.07 635.056 1146.19 634.363 1146.19C633.467 1146.19 632.667 1145.97 631.963 1145.54C631.27 1145.09 630.726 1144.44 630.331 1143.58C629.947 1142.72 629.755 1141.69 629.755 1140.48C629.755 1139.27 629.958 1138.25 630.363 1137.39C630.768 1136.53 631.318 1135.88 632.011 1135.44C632.704 1135 633.478 1134.78 634.331 1134.78ZM645.3 1146L644.468 1143.23H640.292L639.46 1146H637.924L641.46 1134.98H643.38L646.9 1146H645.3ZM640.66 1142H644.1L642.388 1136.24L640.66 1142Z" fill="white"/>
			<path d="M592.378 862.784C593.039 862.784 593.594 862.869 594.042 863.04C594.501 863.211 594.965 863.488 595.434 863.872L594.602 864.848C593.93 864.304 593.221 864.032 592.474 864.032C591.557 864.032 590.815 864.384 590.25 865.088C589.695 865.792 589.418 866.923 589.418 868.48C589.418 869.995 589.695 871.115 590.25 871.84C590.805 872.555 591.541 872.912 592.458 872.912C592.927 872.912 593.338 872.832 593.69 872.672C594.042 872.512 594.415 872.288 594.81 872L595.562 872.96C595.221 873.312 594.783 873.605 594.25 873.84C593.717 874.075 593.103 874.192 592.41 874.192C591.514 874.192 590.714 873.973 590.01 873.536C589.317 873.088 588.773 872.437 588.378 871.584C587.994 870.72 587.802 869.685 587.802 868.48C587.802 867.275 588.005 866.245 588.41 865.392C588.815 864.528 589.365 863.877 590.058 863.44C590.751 863.003 591.525 862.784 592.378 862.784ZM603.401 874H602.137L602.025 872.688C601.705 873.211 601.337 873.595 600.921 873.84C600.505 874.075 599.999 874.192 599.401 874.192C598.665 874.192 598.089 873.968 597.673 873.52C597.257 873.072 597.049 872.437 597.049 871.616V865.568H598.521V871.456C598.521 872.032 598.623 872.443 598.825 872.688C599.028 872.923 599.359 873.04 599.817 873.04C600.639 873.04 601.343 872.555 601.929 871.584V865.568H603.401V874ZM610.106 865.376C610.405 865.376 610.682 865.408 610.938 865.472L610.666 866.912C610.41 866.848 610.165 866.816 609.93 866.816C609.407 866.816 608.986 867.008 608.666 867.392C608.346 867.776 608.095 868.373 607.914 869.184V874H606.442V865.568H607.706L607.85 867.28C608.074 866.651 608.378 866.176 608.762 865.856C609.146 865.536 609.594 865.376 610.106 865.376ZM616.278 865.376C616.576 865.376 616.854 865.408 617.11 865.472L616.838 866.912C616.582 866.848 616.336 866.816 616.102 866.816C615.579 866.816 615.158 867.008 614.838 867.392C614.518 867.776 614.267 868.373 614.086 869.184V874H612.614V865.568H613.878L614.022 867.28C614.246 866.651 614.55 866.176 614.934 865.856C615.318 865.536 615.766 865.376 616.278 865.376ZM624.669 869.536C624.669 869.781 624.659 870.032 624.637 870.288H619.261C619.325 871.216 619.56 871.899 619.965 872.336C620.371 872.773 620.893 872.992 621.533 872.992C621.939 872.992 622.312 872.933 622.653 872.816C622.995 872.699 623.352 872.512 623.725 872.256L624.365 873.136C623.469 873.84 622.488 874.192 621.421 874.192C620.248 874.192 619.331 873.808 618.669 873.04C618.019 872.272 617.693 871.216 617.693 869.872C617.693 868.997 617.832 868.224 618.109 867.552C618.397 866.869 618.803 866.336 619.325 865.952C619.859 865.568 620.483 865.376 621.197 865.376C622.317 865.376 623.176 865.744 623.773 866.48C624.371 867.216 624.669 868.235 624.669 869.536ZM623.213 869.104C623.213 868.272 623.048 867.637 622.717 867.2C622.387 866.763 621.891 866.544 621.229 866.544C620.024 866.544 619.368 867.429 619.261 869.2H623.213V869.104ZM630.988 865.376C631.756 865.376 632.353 865.605 632.78 866.064C633.217 866.523 633.436 867.152 633.436 867.952V874H631.964V868.16C631.964 867.563 631.852 867.141 631.628 866.896C631.404 866.651 631.073 866.528 630.636 866.528C630.188 866.528 629.793 866.656 629.452 866.912C629.111 867.168 628.791 867.536 628.492 868.016V874H627.02V865.568H628.284L628.412 866.816C628.711 866.368 629.079 866.016 629.516 865.76C629.964 865.504 630.455 865.376 630.988 865.376ZM640.651 873.616C640.096 874 639.467 874.192 638.763 874.192C638.048 874.192 637.488 873.989 637.083 873.584C636.688 873.168 636.491 872.571 636.491 871.792V866.704H635.019V865.568H636.491V863.664L637.963 863.488V865.568H639.963L639.803 866.704H637.963V871.728C637.963 872.165 638.038 872.485 638.187 872.688C638.347 872.88 638.608 872.976 638.971 872.976C639.302 872.976 639.675 872.864 640.091 872.64L640.651 873.616ZM648.011 862.976V872.672H652.539L652.363 874H646.491V862.976H648.011ZM657.141 865.376C658.325 865.376 659.242 865.771 659.893 866.56C660.554 867.349 660.885 868.421 660.885 869.776C660.885 870.651 660.736 871.424 660.437 872.096C660.138 872.757 659.706 873.275 659.141 873.648C658.576 874.011 657.904 874.192 657.125 874.192C655.941 874.192 655.018 873.797 654.357 873.008C653.696 872.219 653.365 871.147 653.365 869.792C653.365 868.917 653.514 868.149 653.813 867.488C654.112 866.816 654.544 866.299 655.109 865.936C655.674 865.563 656.352 865.376 657.141 865.376ZM657.141 866.56C655.68 866.56 654.949 867.637 654.949 869.792C654.949 871.936 655.674 873.008 657.125 873.008C658.576 873.008 659.301 871.931 659.301 869.776C659.301 867.632 658.581 866.56 657.141 866.56ZM666.389 865.376C666.89 865.376 667.349 865.451 667.765 865.6C668.181 865.739 668.581 865.968 668.965 866.288L668.261 867.216C667.962 867.003 667.669 866.848 667.381 866.752C667.104 866.645 666.794 866.592 666.453 866.592C665.77 866.592 665.237 866.864 664.853 867.408C664.48 867.952 664.293 868.757 664.293 869.824C664.293 870.891 664.48 871.68 664.853 872.192C665.226 872.693 665.76 872.944 666.453 872.944C666.784 872.944 667.088 872.896 667.365 872.8C667.642 872.693 667.952 872.528 668.293 872.304L668.965 873.264C668.197 873.883 667.338 874.192 666.389 874.192C665.248 874.192 664.346 873.808 663.685 873.04C663.034 872.272 662.709 871.211 662.709 869.856C662.709 868.96 662.858 868.176 663.157 867.504C663.456 866.832 663.877 866.309 664.421 865.936C664.976 865.563 665.632 865.376 666.389 865.376ZM676.481 872.032C676.481 872.373 676.54 872.629 676.657 872.8C676.775 872.96 676.951 873.083 677.185 873.168L676.849 874.192C676.412 874.139 676.06 874.016 675.793 873.824C675.527 873.632 675.329 873.333 675.201 872.928C674.636 873.771 673.799 874.192 672.689 874.192C671.857 874.192 671.201 873.957 670.721 873.488C670.241 873.019 670.001 872.405 670.001 871.648C670.001 870.752 670.321 870.064 670.961 869.584C671.612 869.104 672.529 868.864 673.713 868.864H675.009V868.24C675.009 867.643 674.865 867.216 674.577 866.96C674.289 866.704 673.847 866.576 673.249 866.576C672.631 866.576 671.873 866.725 670.977 867.024L670.609 865.952C671.655 865.568 672.625 865.376 673.521 865.376C674.513 865.376 675.255 865.621 675.745 866.112C676.236 866.592 676.481 867.28 676.481 868.176V872.032ZM673.025 873.088C673.868 873.088 674.529 872.651 675.009 871.776V869.84H673.905C672.348 869.84 671.569 870.416 671.569 871.568C671.569 872.069 671.692 872.448 671.937 872.704C672.183 872.96 672.545 873.088 673.025 873.088ZM683.76 873.616C683.206 874 682.576 874.192 681.872 874.192C681.158 874.192 680.598 873.989 680.192 873.584C679.798 873.168 679.6 872.571 679.6 871.792V866.704H678.128V865.568H679.6V863.664L681.072 863.488V865.568H683.072L682.912 866.704H681.072V871.728C681.072 872.165 681.147 872.485 681.296 872.688C681.456 872.88 681.718 872.976 682.08 872.976C682.411 872.976 682.784 872.864 683.2 872.64L683.76 873.616ZM686.758 865.568V874H685.286V865.568H686.758ZM686.006 861.52C686.315 861.52 686.566 861.616 686.758 861.808C686.95 862 687.046 862.24 687.046 862.528C687.046 862.816 686.95 863.056 686.758 863.248C686.566 863.429 686.315 863.52 686.006 863.52C685.707 863.52 685.462 863.429 685.27 863.248C685.078 863.056 684.982 862.816 684.982 862.528C684.982 862.24 685.078 862 685.27 861.808C685.462 861.616 685.707 861.52 686.006 861.52ZM692.969 865.376C694.153 865.376 695.071 865.771 695.721 866.56C696.383 867.349 696.713 868.421 696.713 869.776C696.713 870.651 696.564 871.424 696.265 872.096C695.967 872.757 695.535 873.275 694.969 873.648C694.404 874.011 693.732 874.192 692.953 874.192C691.769 874.192 690.847 873.797 690.185 873.008C689.524 872.219 689.193 871.147 689.193 869.792C689.193 868.917 689.343 868.149 689.641 867.488C689.94 866.816 690.372 866.299 690.937 865.936C691.503 865.563 692.18 865.376 692.969 865.376ZM692.969 866.56C691.508 866.56 690.777 867.637 690.777 869.792C690.777 871.936 691.503 873.008 692.953 873.008C694.404 873.008 695.129 871.931 695.129 869.776C695.129 867.632 694.409 866.56 692.969 866.56ZM703.113 865.376C703.881 865.376 704.478 865.605 704.905 866.064C705.342 866.523 705.561 867.152 705.561 867.952V874H704.089V868.16C704.089 867.563 703.977 867.141 703.753 866.896C703.529 866.651 703.198 866.528 702.761 866.528C702.313 866.528 701.918 866.656 701.577 866.912C701.236 867.168 700.916 867.536 700.617 868.016V874H699.145V865.568H700.409L700.537 866.816C700.836 866.368 701.204 866.016 701.641 865.76C702.089 865.504 702.58 865.376 703.113 865.376Z" fill="white"/>
</svg>
