<svg width="1064" height="1267" viewBox="0 0 1064 1267" fill="none" xmlns="http://www.w3.org/2000/svg">
<g opacity="0.29827">
<path d="M1008.08 934.448L443.182 414.142V23.8104L28.1096 1C24.9043 8.54402 4.36709 30.2855 7.57176 42.404C11.43 56.898 30.8387 52.2648 36.4776 61.5906C43.0661 72.58 31.7291 117.251 28.3457 130.14C21.8759 154.555 7.09676 174.335 2.82235 198.75C-4.35982 239.737 10.1824 236.47 37.7242 262.073C84.141 305.258 46.9244 350.048 58.6176 400.777C68.1146 442.122 109.605 463.446 124.8 504.789C136.553 536.63 152.697 544.767 177.746 568.053C177.153 553.916 164.51 512.215 188.253 515.898C211.817 519.522 202.736 554.331 207.247 568.885C211.045 581.003 237.933 605.239 215.616 616.407C208.196 620.09 187.066 605.418 178.577 601.497C184.572 620.209 180.774 639.633 190.271 657.513C201.608 678.838 213.835 670.641 228.853 682.225C244.344 694.164 242.683 707.886 235.797 725.945C228.615 744.775 221.196 741.865 232.592 764.557C240.843 780.951 254.85 801.742 266.9 814.216C273.904 821.463 281.502 823.127 288.506 832.393C294.323 840.115 292.067 850.214 299.012 857.164C310.883 869.104 331.006 869.282 340.384 884.904C350.831 902.309 338.96 915.437 369.706 913.833C371.309 948.643 377.897 980.185 377.541 1014.99C394.695 1021.82 422.414 1013.69 440.399 1010.06C458.266 1034.18 481.355 1017.43 501.774 1030.56C510.678 1036.26 508.837 1050.52 514.239 1055.51C525.339 1065.72 533.529 1059.31 547.301 1062.87C557.51 1065.49 565.404 1072.97 575.138 1075.7C584.338 1078.26 599.475 1072.26 606.301 1080.4C614.492 1090.14 600.78 1107.96 613.127 1115.8C623.395 1122.33 638.115 1106.77 648.088 1109.03C659.721 1111.7 693.079 1142.17 701.271 1152.21C710.59 1163.68 719.969 1185.06 725.25 1199.79C733.501 1222.84 732.373 1234.13 749.408 1251C760.27 1261.75 749.942 1262.52 767.63 1265.67C779.204 1267.75 794.518 1259.37 806.212 1258.07C830.549 1255.39 855.122 1260.03 879.102 1255.45C901.421 1251.18 922.729 1244.17 945.64 1240.9C965.465 1238.05 1000.37 1240.25 1017.94 1230.8C1036.99 1220.64 1038.71 1197.65 1011.17 1201.93C1008.97 1187.26 1018.77 1167 1007.85 1156.85C1023.04 1136.06 1028.56 1121.38 1030.93 1095.96C1032 1084.79 1032.48 1072.44 1038 1063.05C1043.4 1053.78 1058.59 1048.26 1061.56 1040.3C1066.13 1027.94 1058.83 1022.42 1053.25 1015.53C1049.69 1011.07 1039.54 1013.21 1036.63 1009.29C1031.23 1002.1 1036.57 994.678 1033.6 987.431C1024.94 966.462 1014.61 958.205 1008.08 934.444C1008.26 938.424 1008.44 942.463 1008.2 946.384" stroke="white" stroke-width="2" stroke-linecap="round" stroke-linejoin="round"/>
</g>
<path d="M743.037 849.704H734.75C734.485 849.704 734.269 849.922 734.269 850.189C734.269 850.457 734.485 850.675 734.75 850.675H743.037C743.302 850.675 743.519 850.457 743.519 850.189C743.519 849.922 743.302 849.704 743.037 849.704Z" fill="white"/>
<path d="M743.037 855.856H733.746C733.481 855.856 733.264 856.074 733.264 856.341C733.264 856.608 733.481 856.826 733.746 856.826H743.037C743.302 856.826 743.519 856.608 743.519 856.341C743.519 856.074 743.302 855.856 743.037 855.856Z" fill="white"/>
<path d="M705.481 853.207H712.974C713.239 853.207 713.456 852.989 713.456 852.722C713.456 852.455 713.239 852.237 712.974 852.237H705.481C705.216 852.237 705 852.455 705 852.722C705 852.991 705.216 853.207 705.481 853.207Z" fill="white"/>
<path fill-rule="evenodd" clip-rule="evenodd" d="M708.745 818.05C708.931 817.958 709.153 817.995 709.3 818.143L709.3 818.144C709.445 818.291 709.482 818.517 709.388 818.705C709.089 819.308 708.939 819.95 708.939 820.616C708.939 822.993 710.868 824.928 713.238 824.928C713.902 824.928 714.544 824.775 715.145 824.475C715.332 824.383 715.553 824.42 715.7 824.568C715.847 824.716 715.883 824.942 715.79 825.128C714.893 826.942 713.088 828.068 711.079 828.068C708.177 828.068 705.816 825.696 705.816 822.782C705.816 820.763 706.939 818.951 708.745 818.05ZM714.128 825.823C713.834 825.874 713.539 825.899 713.238 825.899L713.238 825.899C710.336 825.899 707.976 823.529 707.977 820.615C707.977 820.312 708.002 820.014 708.053 819.72C707.248 820.515 706.779 821.607 706.779 822.782C706.779 825.161 708.709 827.097 711.079 827.097C712.251 827.097 713.336 826.629 714.128 825.823Z" fill="white"/>
<path fill-rule="evenodd" clip-rule="evenodd" d="M743.039 841.926H743.037C742.772 841.926 742.558 842.142 742.556 842.409L742.544 845.001L724.677 818.439C724.498 818.172 724.06 818.172 723.88 818.439L706.025 844.982L706.037 842.231C706.038 841.964 705.822 841.744 705.557 841.744H705.555C705.29 841.744 705.076 841.96 705.074 842.227L705.057 846.568C705.055 846.783 705.194 846.97 705.395 847.035C705.442 847.05 705.489 847.056 705.538 847.056C705.694 847.056 705.845 846.978 705.937 846.843L708.747 842.667V846.572C708.747 846.84 708.963 847.058 709.228 847.058H719.952C720.5 848.847 722.16 850.151 724.12 850.151C724.127 850.151 724.133 850.151 724.139 850.151L724.139 850.151C724.145 850.15 724.151 850.15 724.158 850.15C724.161 850.15 724.164 850.15 724.167 850.151L724.167 850.151L724.167 850.151C724.17 850.151 724.174 850.151 724.177 850.151C724.183 850.151 724.188 850.151 724.194 850.15L724.205 850.149C724.214 850.147 724.224 850.146 724.233 850.146C726.142 850.097 727.75 848.811 728.286 847.058H739.33C739.595 847.058 739.812 846.84 739.812 846.572V842.667L742.622 846.843C742.74 847.02 742.958 847.097 743.16 847.035C743.361 846.972 743.5 846.785 743.5 846.572L743.519 842.413C743.521 842.144 743.306 841.928 743.039 841.926L743.039 841.926ZM724.233 849.175L724.227 849.176C724.203 849.178 724.18 849.179 724.158 849.179C723.322 849.168 722.645 848.485 722.645 847.647C722.645 847.096 723.45 845.826 724.176 844.868C724.902 845.826 725.707 847.096 725.707 847.647C725.707 848.472 725.051 849.145 724.233 849.175L724.233 849.175ZM726.668 847.646C726.668 847.79 726.65 847.926 726.627 848.063L726.627 848.063C727.178 847.456 727.517 846.654 727.513 845.773C727.513 844.318 725.324 841.225 724.116 839.685C722.911 841.225 720.719 844.32 720.719 845.773C720.719 846.728 721.116 847.592 721.75 848.212C721.709 848.028 721.681 847.841 721.681 847.646C721.681 846.417 723.45 844.208 723.804 843.778C723.986 843.556 724.363 843.556 724.545 843.778C724.9 844.209 726.668 846.417 726.668 847.646ZM724.49 838.605C724.308 838.383 723.932 838.383 723.749 838.605C723.341 839.1 719.76 843.513 719.76 845.773C719.76 845.849 719.765 845.924 719.77 845.999V845.999C719.772 846.029 719.774 846.058 719.775 846.088H714.927V842.888C715.555 842.376 717.637 840.601 719.745 837.968C721.457 835.831 723.411 832.811 724.297 829.369C725.183 832.813 727.137 835.831 728.848 837.968C730.957 840.601 733.039 842.375 733.667 842.888V846.088H728.463C728.47 845.983 728.478 845.879 728.478 845.773C728.48 843.513 724.899 839.1 724.491 838.605H724.49ZM734.628 846.087H738.848L738.851 841.236L724.28 819.577L709.71 841.236V846.087H713.962V842.652C713.962 842.501 714.032 842.358 714.15 842.267L714.15 842.267C714.267 842.175 723.813 834.633 723.813 825.706C723.813 825.439 724.03 825.221 724.295 825.221C724.56 825.221 724.776 825.439 724.776 825.706C724.776 834.63 734.317 842.17 734.439 842.267L734.44 842.267C734.558 842.36 734.628 842.502 734.628 842.652V846.087Z" fill="white"/>
<path fill-rule="evenodd" clip-rule="evenodd" d="M731.596 851.949C731.639 852.07 731.63 852.207 731.573 852.322L731.574 852.322C731.515 852.44 731.416 852.529 731.292 852.571L729.511 853.164L731.222 853.651C731.346 853.687 731.452 853.771 731.514 853.884C731.576 853.998 731.589 854.131 731.553 854.256L730.938 856.345C730.876 856.555 730.686 856.692 730.477 856.692C730.434 856.692 730.389 856.684 730.346 856.673L724.218 854.927L718.594 856.802C718.545 856.819 718.494 856.827 718.444 856.827C718.244 856.827 718.058 856.701 717.992 856.5L717.283 854.44C717.24 854.318 717.249 854.182 717.306 854.066C717.362 853.949 717.464 853.862 717.586 853.82L719.072 853.325L717.287 852.817C717.163 852.781 717.057 852.698 716.995 852.584C716.933 852.47 716.92 852.337 716.956 852.212L717.571 850.123C717.646 849.867 717.909 849.721 718.163 849.793L724.364 851.56L730.281 849.587C730.531 849.503 730.8 849.638 730.887 849.888L731.596 851.949ZM718.359 850.857L718.017 852.015L720.703 852.781L722.734 852.104L718.359 850.857ZM730.49 854.451L730.148 855.609L725.848 854.383L727.88 853.706L730.49 854.451ZM718.35 854.588L718.743 855.731L730.526 851.803L730.133 850.66L718.35 854.588Z" fill="white"/>
<path d="M737 863C737 863 795 882 809.5 892C824 902 813.5 955.5 804.5 935C795.5 914.5 922 918 914.5 929.5C907 941 825 940.5 813.5 943.5C802 946.5 828.5 1008 809.5 989C790.5 970 884 976 882.5 983.5C881 991 807 987.5 813.5 1002C820 1016.5 830.5 1119 813.5 1075.5C796.5 1032 726 1099 749.5 1112.5C773 1126 746.5 1157 765.5 1174.5C784.5 1192 760 1227 749.5 1211C739 1195 716.5 1232.5 716.5 1232.5" stroke="white" stroke-width="2"/>
<path d="M724.5 861C724.5 861 703 898.5 724.5 886C746 873.5 761.5 887.5 765.5 893C769.5 898.5 777.5 912.5 777.5 935.5C777.5 958.5 764 964 756.5 968C749 972 724.5 974 715 964.5C705.5 955 697 902 708 892C719 882 700 959 709 968C718 977 777.5 1014 777.5 1029.5C777.5 1045 702 962 708 978C714 994 714 1055 708 1060.5C702 1066 684.5 1086.5 667.5 1065.5C650.5 1044.5 651 1086 667.5 1096C684 1106 652 1129 652 1129" stroke="white" stroke-width="2"/>
<path d="M712.5 861.5C712.5 861.5 697 911.5 684 886.5C671 861.5 678 996.5 674 1007.5C670 1018.5 666 1020 658.5 1025.5C651 1031 619.5 1029 614 1025.5C608.5 1022 602 1024 595 1007.5C588 991 595 874.5 606 886.5C617 898.5 505 1020.5 548 1015C591 1009.5 606 1043 583 1052.5C560 1062 567 1084.5 567 1084.5" stroke="white" stroke-width="2"/>
<path d="M705 860C705 860 685.5 834 665.5 837C645.5 840 600.5 841 596 825.5C591.5 810 540 828.5 549 841C558 853.5 505 865 535 880.5C565 896 530.5 857 517 853.5C503.5 850 479.5 848 469.5 854C459.5 860 457.5 865.5 451 873C444.5 880.5 451 901 456 905.5C461 910 482.5 915.5 490 925C497.5 934.5 501.5 936 510 945.5C518.5 955 523 966.5 517 976C511 985.5 505 993 493 996C481 999 459.5 996 451.5 993C443.5 990 413 968.5 427.5 957C442 945.5 402 1013 400.5 988.5C399 964 380.5 970 380.5 970L360 988" stroke="white" stroke-width="2"/>
<path fill-rule="evenodd" clip-rule="evenodd" d="M566.5 1091C570.09 1091 573 1088.09 573 1084.5C573 1080.91 570.09 1078 566.5 1078C562.91 1078 560 1080.91 560 1084.5C560 1088.09 562.91 1091 566.5 1091Z" fill="#4AF6CD"/>
<path fill-rule="evenodd" clip-rule="evenodd" d="M359.5 995C363.09 995 366 992.09 366 988.5C366 984.91 363.09 982 359.5 982C355.91 982 353 984.91 353 988.5C353 992.09 355.91 995 359.5 995Z" fill="#4AF6CD"/>
<path fill-rule="evenodd" clip-rule="evenodd" d="M717.5 1239C721.09 1239 724 1236.09 724 1232.5C724 1228.91 721.09 1226 717.5 1226C713.91 1226 711 1228.91 711 1232.5C711 1236.09 713.91 1239 717.5 1239Z" fill="#4AF6CD"/>
<path fill-rule="evenodd" clip-rule="evenodd" d="M653.5 1134C657.09 1134 660 1131.09 660 1127.5C660 1123.91 657.09 1121 653.5 1121C649.91 1121 647 1123.91 647 1127.5C647 1131.09 649.91 1134 653.5 1134Z" fill="#4AF6CD"/>
<path fill-rule="evenodd" clip-rule="evenodd" d="M652 1132C653.657 1132 655 1130.66 655 1129C655 1127.34 653.657 1126 652 1126C650.343 1126 649 1127.34 649 1129C649 1130.66 650.343 1132 652 1132Z" fill="#4AF6CD"/>
<path fill-rule="evenodd" clip-rule="evenodd" d="M567 1088C568.657 1088 570 1086.66 570 1085C570 1083.34 568.657 1082 567 1082C565.343 1082 564 1083.34 564 1085C564 1086.66 565.343 1088 567 1088Z" fill="#4AF6CD"/>
<path fill-rule="evenodd" clip-rule="evenodd" d="M718 1236C719.657 1236 721 1234.66 721 1233C721 1231.34 719.657 1230 718 1230C716.343 1230 715 1231.34 715 1233C715 1234.66 716.343 1236 718 1236Z" fill="#4AF6CD"/>
<path fill-rule="evenodd" clip-rule="evenodd" d="M358 993C359.657 993 361 991.657 361 990C361 988.343 359.657 987 358 987C356.343 987 355 988.343 355 990C355 991.657 356.343 993 358 993Z" fill="#4AF6CD"/>
<path d="M391.41 1075.98L389.17 1087H387.218L385.186 1077.77L383.138 1087H381.234L378.994 1075.98H380.482L382.258 1085.67L384.386 1075.98H386.002L388.178 1085.67L390.018 1075.98H391.41ZM399.544 1082.54C399.544 1082.78 399.534 1083.03 399.512 1083.29H394.136C394.2 1084.22 394.435 1084.9 394.84 1085.34C395.246 1085.77 395.768 1085.99 396.408 1085.99C396.814 1085.99 397.187 1085.93 397.528 1085.82C397.87 1085.7 398.227 1085.51 398.6 1085.26L399.24 1086.14C398.344 1086.84 397.363 1087.19 396.296 1087.19C395.123 1087.19 394.206 1086.81 393.544 1086.04C392.894 1085.27 392.568 1084.22 392.568 1082.87C392.568 1082 392.707 1081.22 392.984 1080.55C393.272 1079.87 393.678 1079.34 394.2 1078.95C394.734 1078.57 395.358 1078.38 396.072 1078.38C397.192 1078.38 398.051 1078.74 398.648 1079.48C399.246 1080.22 399.544 1081.23 399.544 1082.54ZM398.088 1082.1C398.088 1081.27 397.923 1080.64 397.592 1080.2C397.262 1079.76 396.766 1079.54 396.104 1079.54C394.899 1079.54 394.243 1080.43 394.136 1082.2H398.088V1082.1ZM404.183 1078.38C404.759 1078.38 405.276 1078.46 405.735 1078.62C406.194 1078.78 406.631 1079.02 407.047 1079.34L406.423 1080.26C406.039 1080.02 405.671 1079.84 405.319 1079.72C404.978 1079.6 404.615 1079.54 404.231 1079.54C403.751 1079.54 403.372 1079.65 403.095 1079.85C402.818 1080.04 402.679 1080.31 402.679 1080.65C402.679 1080.99 402.807 1081.26 403.063 1081.45C403.33 1081.64 403.804 1081.83 404.487 1082.01C405.426 1082.24 406.124 1082.56 406.583 1082.97C407.052 1083.37 407.287 1083.93 407.287 1084.63C407.287 1085.46 406.962 1086.1 406.311 1086.54C405.671 1086.97 404.887 1087.19 403.959 1087.19C402.679 1087.19 401.618 1086.82 400.775 1086.09L401.559 1085.19C402.274 1085.74 403.063 1086.01 403.927 1086.01C404.482 1086.01 404.919 1085.9 405.239 1085.67C405.57 1085.44 405.735 1085.12 405.735 1084.73C405.735 1084.44 405.676 1084.21 405.559 1084.04C405.442 1083.86 405.239 1083.7 404.951 1083.58C404.663 1083.44 404.242 1083.29 403.687 1083.14C402.791 1082.91 402.14 1082.59 401.735 1082.2C401.34 1081.81 401.143 1081.3 401.143 1080.7C401.143 1080.26 401.271 1079.86 401.527 1079.51C401.794 1079.15 402.156 1078.87 402.615 1078.68C403.084 1078.48 403.607 1078.38 404.183 1078.38ZM413.62 1086.62C413.065 1087 412.436 1087.19 411.732 1087.19C411.017 1087.19 410.457 1086.99 410.052 1086.58C409.657 1086.17 409.46 1085.57 409.46 1084.79V1079.7H407.988V1078.57H409.46V1076.66L410.932 1076.49V1078.57H412.932L412.772 1079.7H410.932V1084.73C410.932 1085.17 411.006 1085.49 411.156 1085.69C411.316 1085.88 411.577 1085.98 411.94 1085.98C412.27 1085.98 412.644 1085.86 413.06 1085.64L413.62 1086.62ZM422.179 1075.78C422.915 1075.78 423.545 1075.89 424.067 1076.1C424.59 1076.31 425.097 1076.63 425.587 1077.06L424.755 1077.99C424.339 1077.66 423.929 1077.42 423.523 1077.27C423.129 1077.11 422.702 1077.03 422.243 1077.03C421.667 1077.03 421.193 1077.17 420.819 1077.43C420.446 1077.7 420.259 1078.09 420.259 1078.6C420.259 1078.92 420.323 1079.19 420.451 1079.42C420.579 1079.63 420.814 1079.83 421.155 1080.01C421.507 1080.19 422.014 1080.38 422.675 1080.58C423.369 1080.8 423.945 1081.03 424.403 1081.27C424.862 1081.52 425.23 1081.86 425.507 1082.3C425.795 1082.72 425.939 1083.27 425.939 1083.93C425.939 1084.57 425.779 1085.13 425.459 1085.62C425.15 1086.11 424.697 1086.5 424.099 1086.78C423.513 1087.05 422.814 1087.19 422.003 1087.19C420.478 1087.19 419.23 1086.72 418.259 1085.77L419.091 1084.84C419.539 1085.2 419.993 1085.48 420.451 1085.67C420.91 1085.85 421.422 1085.94 421.987 1085.94C422.67 1085.94 423.235 1085.78 423.683 1085.45C424.131 1085.11 424.355 1084.62 424.355 1083.98C424.355 1083.61 424.286 1083.31 424.147 1083.08C424.009 1082.83 423.769 1082.62 423.427 1082.42C423.097 1082.23 422.611 1082.04 421.971 1081.85C420.841 1081.51 420.014 1081.1 419.491 1080.62C418.969 1080.14 418.707 1079.49 418.707 1078.66C418.707 1078.11 418.851 1077.61 419.139 1077.18C419.438 1076.74 419.849 1076.4 420.371 1076.15C420.905 1075.91 421.507 1075.78 422.179 1075.78ZM432.066 1078.38C432.834 1078.38 433.431 1078.61 433.858 1079.06C434.295 1079.52 434.514 1080.15 434.514 1080.95V1087H433.042V1081.16C433.042 1080.56 432.925 1080.14 432.69 1079.9C432.466 1079.65 432.135 1079.53 431.698 1079.53C431.261 1079.53 430.871 1079.66 430.53 1079.91C430.189 1080.17 429.869 1080.53 429.57 1081V1087H428.098V1075.19L429.57 1075.03V1079.74C430.231 1078.83 431.063 1078.38 432.066 1078.38ZM440.641 1078.38C441.825 1078.38 442.742 1078.77 443.393 1079.56C444.054 1080.35 444.385 1081.42 444.385 1082.78C444.385 1083.65 444.236 1084.42 443.937 1085.1C443.638 1085.76 443.206 1086.27 442.641 1086.65C442.076 1087.01 441.404 1087.19 440.625 1087.19C439.441 1087.19 438.518 1086.8 437.857 1086.01C437.196 1085.22 436.865 1084.15 436.865 1082.79C436.865 1081.92 437.014 1081.15 437.313 1080.49C437.612 1079.82 438.044 1079.3 438.609 1078.94C439.174 1078.56 439.852 1078.38 440.641 1078.38ZM440.641 1079.56C439.18 1079.56 438.449 1080.64 438.449 1082.79C438.449 1084.94 439.174 1086.01 440.625 1086.01C442.076 1086.01 442.801 1084.93 442.801 1082.78C442.801 1080.63 442.081 1079.56 440.641 1079.56ZM450.481 1078.38C450.78 1078.38 451.057 1078.41 451.313 1078.47L451.041 1079.91C450.785 1079.85 450.54 1079.82 450.305 1079.82C449.782 1079.82 449.361 1080.01 449.041 1080.39C448.721 1080.78 448.47 1081.37 448.289 1082.18V1087H446.817V1078.57H448.081L448.225 1080.28C448.449 1079.65 448.753 1079.18 449.137 1078.86C449.521 1078.54 449.969 1078.38 450.481 1078.38ZM458.872 1082.54C458.872 1082.78 458.862 1083.03 458.84 1083.29H453.464C453.528 1084.22 453.763 1084.9 454.168 1085.34C454.574 1085.77 455.096 1085.99 455.736 1085.99C456.142 1085.99 456.515 1085.93 456.856 1085.82C457.198 1085.7 457.555 1085.51 457.928 1085.26L458.568 1086.14C457.672 1086.84 456.691 1087.19 455.624 1087.19C454.451 1087.19 453.534 1086.81 452.872 1086.04C452.222 1085.27 451.896 1084.22 451.896 1082.87C451.896 1082 452.035 1081.22 452.312 1080.55C452.6 1079.87 453.006 1079.34 453.528 1078.95C454.062 1078.57 454.686 1078.38 455.4 1078.38C456.52 1078.38 457.379 1078.74 457.976 1079.48C458.574 1080.22 458.872 1081.23 458.872 1082.54ZM457.416 1082.1C457.416 1081.27 457.251 1080.64 456.92 1080.2C456.59 1079.76 456.094 1079.54 455.432 1079.54C454.227 1079.54 453.571 1080.43 453.464 1082.2H457.416V1082.1ZM467.41 1074.18V1088.57H467.058V1074.18H467.41ZM486.237 1087H484.765L484.381 1082.02C484.221 1080.07 484.131 1078.57 484.109 1077.53L481.725 1085.75H480.301L477.789 1077.51C477.789 1078.85 477.72 1080.39 477.581 1082.14L477.213 1087H475.773L476.685 1075.98H478.733L481.053 1083.99L483.261 1075.98H485.325L486.237 1087ZM494.434 1085.03C494.434 1085.37 494.493 1085.63 494.61 1085.8C494.728 1085.96 494.904 1086.08 495.138 1086.17L494.802 1087.19C494.365 1087.14 494.013 1087.02 493.746 1086.82C493.48 1086.63 493.282 1086.33 493.154 1085.93C492.589 1086.77 491.752 1087.19 490.642 1087.19C489.81 1087.19 489.154 1086.96 488.674 1086.49C488.194 1086.02 487.954 1085.41 487.954 1084.65C487.954 1083.75 488.274 1083.06 488.914 1082.58C489.565 1082.1 490.482 1081.86 491.666 1081.86H492.962V1081.24C492.962 1080.64 492.818 1080.22 492.53 1079.96C492.242 1079.7 491.8 1079.58 491.202 1079.58C490.584 1079.58 489.826 1079.73 488.93 1080.02L488.562 1078.95C489.608 1078.57 490.578 1078.38 491.474 1078.38C492.466 1078.38 493.208 1078.62 493.698 1079.11C494.189 1079.59 494.434 1080.28 494.434 1081.18V1085.03ZM490.978 1086.09C491.821 1086.09 492.482 1085.65 492.962 1084.78V1082.84H491.858C490.301 1082.84 489.522 1083.42 489.522 1084.57C489.522 1085.07 489.645 1085.45 489.89 1085.7C490.136 1085.96 490.498 1086.09 490.978 1086.09ZM498.981 1087.19C498.437 1087.19 498.005 1087.03 497.685 1086.71C497.376 1086.38 497.221 1085.92 497.221 1085.34V1075.18L498.693 1075V1085.3C498.693 1085.54 498.731 1085.71 498.805 1085.82C498.891 1085.92 499.029 1085.98 499.221 1085.98C499.424 1085.98 499.605 1085.94 499.765 1085.88L500.149 1086.9C499.797 1087.1 499.408 1087.19 498.981 1087.19ZM503.461 1078.57V1087H501.989V1078.57H503.461ZM502.709 1074.52C503.018 1074.52 503.269 1074.62 503.461 1074.81C503.653 1075 503.749 1075.24 503.749 1075.53C503.749 1075.82 503.653 1076.06 503.461 1076.25C503.269 1076.43 503.018 1076.52 502.709 1076.52C502.41 1076.52 502.165 1076.43 501.973 1076.25C501.781 1076.06 501.685 1075.82 501.685 1075.53C501.685 1075.24 501.781 1075 501.973 1074.81C502.165 1074.62 502.41 1074.52 502.709 1074.52ZM510.36 1078.38C511.32 1078.38 512.083 1078.77 512.648 1079.54C513.214 1080.31 513.496 1081.39 513.496 1082.78C513.496 1083.65 513.363 1084.42 513.096 1085.1C512.83 1085.76 512.446 1086.27 511.944 1086.65C511.443 1087.01 510.856 1087.19 510.184 1087.19C509.299 1087.19 508.552 1086.82 507.944 1086.07L507.8 1087H506.504V1075.18L507.976 1075V1079.62C508.584 1078.79 509.379 1078.38 510.36 1078.38ZM509.832 1086.02C510.483 1086.02 510.99 1085.76 511.352 1085.24C511.726 1084.71 511.912 1083.89 511.912 1082.78C511.912 1081.63 511.742 1080.81 511.4 1080.31C511.059 1079.8 510.574 1079.54 509.944 1079.54C509.198 1079.54 508.542 1079.98 507.976 1080.86V1084.89C508.2 1085.24 508.472 1085.52 508.792 1085.72C509.123 1085.92 509.47 1086.02 509.832 1086.02ZM522.276 1087H521.012L520.9 1085.69C520.58 1086.21 520.212 1086.59 519.796 1086.84C519.38 1087.07 518.874 1087.19 518.276 1087.19C517.54 1087.19 516.964 1086.97 516.548 1086.52C516.132 1086.07 515.924 1085.44 515.924 1084.62V1078.57H517.396V1084.46C517.396 1085.03 517.498 1085.44 517.7 1085.69C517.903 1085.92 518.234 1086.04 518.692 1086.04C519.514 1086.04 520.218 1085.55 520.804 1084.58V1078.57H522.276V1087ZM525.701 1084.97C526.021 1084.97 526.288 1085.07 526.501 1085.29C526.714 1085.5 526.821 1085.76 526.821 1086.07C526.821 1086.4 526.725 1086.78 526.533 1087.21L525.461 1089.66H524.405L525.045 1087C524.906 1086.89 524.794 1086.76 524.709 1086.6C524.634 1086.44 524.597 1086.26 524.597 1086.07C524.597 1085.76 524.704 1085.5 524.917 1085.29C525.13 1085.07 525.392 1084.97 525.701 1084.97ZM537.331 1075.78C537.992 1075.78 538.547 1075.87 538.995 1076.04C539.454 1076.21 539.918 1076.49 540.387 1076.87L539.555 1077.85C538.883 1077.3 538.174 1077.03 537.427 1077.03C536.51 1077.03 535.768 1077.38 535.203 1078.09C534.648 1078.79 534.371 1079.92 534.371 1081.48C534.371 1082.99 534.648 1084.11 535.203 1084.84C535.758 1085.55 536.494 1085.91 537.411 1085.91C537.88 1085.91 538.291 1085.83 538.643 1085.67C538.995 1085.51 539.368 1085.29 539.763 1085L540.515 1085.96C540.174 1086.31 539.736 1086.61 539.203 1086.84C538.67 1087.07 538.056 1087.19 537.363 1087.19C536.467 1087.19 535.667 1086.97 534.963 1086.54C534.27 1086.09 533.726 1085.44 533.331 1084.58C532.947 1083.72 532.755 1082.69 532.755 1081.48C532.755 1080.27 532.958 1079.25 533.363 1078.39C533.768 1077.53 534.318 1076.88 535.011 1076.44C535.704 1076 536.478 1075.78 537.331 1075.78ZM548.3 1087L547.468 1084.23H543.292L542.46 1087H540.924L544.46 1075.98H546.38L549.9 1087H548.3ZM543.66 1083H547.1L545.388 1077.24L543.66 1083Z" fill="white"/>
<path d="M184.359 982H182.327L177.847 972.64C177.911 973.376 177.959 974.059 177.991 974.688C178.034 975.307 178.055 976.059 178.055 976.944V982H176.631V970.976H178.615L183.143 980.352C183.111 980.075 183.069 979.589 183.015 978.896C182.962 978.203 182.935 977.568 182.935 976.992V970.976H184.359V982ZM190.641 973.376C191.825 973.376 192.742 973.771 193.393 974.56C194.054 975.349 194.385 976.421 194.385 977.776C194.385 978.651 194.236 979.424 193.937 980.096C193.638 980.757 193.206 981.275 192.641 981.648C192.076 982.011 191.404 982.192 190.625 982.192C189.441 982.192 188.518 981.797 187.857 981.008C187.196 980.219 186.865 979.147 186.865 977.792C186.865 976.917 187.014 976.149 187.313 975.488C187.612 974.816 188.044 974.299 188.609 973.936C189.174 973.563 189.852 973.376 190.641 973.376ZM190.641 974.56C189.18 974.56 188.449 975.637 188.449 977.792C188.449 979.936 189.174 981.008 190.625 981.008C192.076 981.008 192.801 979.931 192.801 977.776C192.801 975.632 192.081 974.56 190.641 974.56ZM200.481 973.376C200.78 973.376 201.057 973.408 201.313 973.472L201.041 974.912C200.785 974.848 200.54 974.816 200.305 974.816C199.782 974.816 199.361 975.008 199.041 975.392C198.721 975.776 198.47 976.373 198.289 977.184V982H196.817V973.568H198.081L198.225 975.28C198.449 974.651 198.753 974.176 199.137 973.856C199.521 973.536 199.969 973.376 200.481 973.376ZM207.245 981.616C206.69 982 206.061 982.192 205.357 982.192C204.642 982.192 204.082 981.989 203.677 981.584C203.282 981.168 203.085 980.571 203.085 979.792V974.704H201.613V973.568H203.085V971.664L204.557 971.488V973.568H206.557L206.397 974.704H204.557V979.728C204.557 980.165 204.631 980.485 204.781 980.688C204.941 980.88 205.202 980.976 205.565 980.976C205.895 980.976 206.269 980.864 206.685 980.64L207.245 981.616ZM212.738 973.376C213.506 973.376 214.103 973.605 214.53 974.064C214.967 974.523 215.186 975.152 215.186 975.952V982H213.714V976.16C213.714 975.563 213.597 975.141 213.362 974.896C213.138 974.651 212.807 974.528 212.37 974.528C211.933 974.528 211.543 974.656 211.202 974.912C210.861 975.168 210.541 975.531 210.242 976V982H208.77V970.192L210.242 970.032V974.736C210.903 973.829 211.735 973.376 212.738 973.376ZM225.179 970.784C225.915 970.784 226.545 970.891 227.067 971.104C227.59 971.307 228.097 971.627 228.587 972.064L227.755 972.992C227.339 972.661 226.929 972.421 226.523 972.272C226.129 972.112 225.702 972.032 225.243 972.032C224.667 972.032 224.193 972.165 223.819 972.432C223.446 972.699 223.259 973.088 223.259 973.6C223.259 973.92 223.323 974.192 223.451 974.416C223.579 974.629 223.814 974.827 224.155 975.008C224.507 975.189 225.014 975.381 225.675 975.584C226.369 975.797 226.945 976.027 227.403 976.272C227.862 976.517 228.23 976.859 228.507 977.296C228.795 977.723 228.939 978.267 228.939 978.928C228.939 979.568 228.779 980.133 228.459 980.624C228.15 981.115 227.697 981.499 227.099 981.776C226.513 982.053 225.814 982.192 225.003 982.192C223.478 982.192 222.23 981.717 221.259 980.768L222.091 979.84C222.539 980.203 222.993 980.48 223.451 980.672C223.91 980.853 224.422 980.944 224.987 980.944C225.67 980.944 226.235 980.779 226.683 980.448C227.131 980.107 227.355 979.616 227.355 978.976C227.355 978.613 227.286 978.315 227.147 978.08C227.009 977.835 226.769 977.616 226.427 977.424C226.097 977.232 225.611 977.04 224.971 976.848C223.841 976.507 223.014 976.096 222.491 975.616C221.969 975.136 221.707 974.485 221.707 973.664C221.707 973.109 221.851 972.613 222.139 972.176C222.438 971.739 222.849 971.397 223.371 971.152C223.905 970.907 224.507 970.784 225.179 970.784ZM235.066 973.376C235.834 973.376 236.431 973.605 236.858 974.064C237.295 974.523 237.514 975.152 237.514 975.952V982H236.042V976.16C236.042 975.563 235.925 975.141 235.69 974.896C235.466 974.651 235.135 974.528 234.698 974.528C234.261 974.528 233.871 974.656 233.53 974.912C233.189 975.168 232.869 975.531 232.57 976V982H231.098V970.192L232.57 970.032V974.736C233.231 973.829 234.063 973.376 235.066 973.376ZM243.641 973.376C244.825 973.376 245.742 973.771 246.393 974.56C247.054 975.349 247.385 976.421 247.385 977.776C247.385 978.651 247.236 979.424 246.937 980.096C246.638 980.757 246.206 981.275 245.641 981.648C245.076 982.011 244.404 982.192 243.625 982.192C242.441 982.192 241.518 981.797 240.857 981.008C240.196 980.219 239.865 979.147 239.865 977.792C239.865 976.917 240.014 976.149 240.313 975.488C240.612 974.816 241.044 974.299 241.609 973.936C242.174 973.563 242.852 973.376 243.641 973.376ZM243.641 974.56C242.18 974.56 241.449 975.637 241.449 977.792C241.449 979.936 242.174 981.008 243.625 981.008C245.076 981.008 245.801 979.931 245.801 977.776C245.801 975.632 245.081 974.56 243.641 974.56ZM253.481 973.376C253.78 973.376 254.057 973.408 254.313 973.472L254.041 974.912C253.785 974.848 253.54 974.816 253.305 974.816C252.782 974.816 252.361 975.008 252.041 975.392C251.721 975.776 251.47 976.373 251.289 977.184V982H249.817V973.568H251.081L251.225 975.28C251.449 974.651 251.753 974.176 252.137 973.856C252.521 973.536 252.969 973.376 253.481 973.376ZM261.872 977.536C261.872 977.781 261.862 978.032 261.84 978.288H256.464C256.528 979.216 256.763 979.899 257.168 980.336C257.574 980.773 258.096 980.992 258.736 980.992C259.142 980.992 259.515 980.933 259.856 980.816C260.198 980.699 260.555 980.512 260.928 980.256L261.568 981.136C260.672 981.84 259.691 982.192 258.624 982.192C257.451 982.192 256.534 981.808 255.872 981.04C255.222 980.272 254.896 979.216 254.896 977.872C254.896 976.997 255.035 976.224 255.312 975.552C255.6 974.869 256.006 974.336 256.528 973.952C257.062 973.568 257.686 973.376 258.4 973.376C259.52 973.376 260.379 973.744 260.976 974.48C261.574 975.216 261.872 976.235 261.872 977.536ZM260.416 977.104C260.416 976.272 260.251 975.637 259.92 975.2C259.59 974.763 259.094 974.544 258.432 974.544C257.227 974.544 256.571 975.429 256.464 977.2H260.416V977.104ZM270.41 969.184V983.568H270.058V969.184H270.41ZM289.237 982H287.765L287.381 977.024C287.221 975.072 287.131 973.573 287.109 972.528L284.725 980.752H283.301L280.789 972.512C280.789 973.845 280.72 975.387 280.581 977.136L280.213 982H278.773L279.685 970.976H281.733L284.053 978.992L286.261 970.976H288.325L289.237 982ZM297.434 980.032C297.434 980.373 297.493 980.629 297.61 980.8C297.728 980.96 297.904 981.083 298.138 981.168L297.802 982.192C297.365 982.139 297.013 982.016 296.746 981.824C296.48 981.632 296.282 981.333 296.154 980.928C295.589 981.771 294.752 982.192 293.642 982.192C292.81 982.192 292.154 981.957 291.674 981.488C291.194 981.019 290.954 980.405 290.954 979.648C290.954 978.752 291.274 978.064 291.914 977.584C292.565 977.104 293.482 976.864 294.666 976.864H295.962V976.24C295.962 975.643 295.818 975.216 295.53 974.96C295.242 974.704 294.8 974.576 294.202 974.576C293.584 974.576 292.826 974.725 291.93 975.024L291.562 973.952C292.608 973.568 293.578 973.376 294.474 973.376C295.466 973.376 296.208 973.621 296.698 974.112C297.189 974.592 297.434 975.28 297.434 976.176V980.032ZM293.978 981.088C294.821 981.088 295.482 980.651 295.962 979.776V977.84H294.858C293.301 977.84 292.522 978.416 292.522 979.568C292.522 980.069 292.645 980.448 292.89 980.704C293.136 980.96 293.498 981.088 293.978 981.088ZM301.981 982.192C301.437 982.192 301.005 982.032 300.685 981.712C300.376 981.381 300.221 980.923 300.221 980.336V970.176L301.693 970V980.304C301.693 980.539 301.731 980.709 301.805 980.816C301.891 980.923 302.029 980.976 302.221 980.976C302.424 980.976 302.605 980.944 302.765 980.88L303.149 981.904C302.797 982.096 302.408 982.192 301.981 982.192ZM306.461 973.568V982H304.989V973.568H306.461ZM305.709 969.52C306.018 969.52 306.269 969.616 306.461 969.808C306.653 970 306.749 970.24 306.749 970.528C306.749 970.816 306.653 971.056 306.461 971.248C306.269 971.429 306.018 971.52 305.709 971.52C305.41 971.52 305.165 971.429 304.973 971.248C304.781 971.056 304.685 970.816 304.685 970.528C304.685 970.24 304.781 970 304.973 969.808C305.165 969.616 305.41 969.52 305.709 969.52ZM313.36 973.376C314.32 973.376 315.083 973.765 315.648 974.544C316.214 975.312 316.496 976.389 316.496 977.776C316.496 978.651 316.363 979.424 316.096 980.096C315.83 980.757 315.446 981.275 314.944 981.648C314.443 982.011 313.856 982.192 313.184 982.192C312.299 982.192 311.552 981.819 310.944 981.072L310.8 982H309.504V970.176L310.976 970V974.624C311.584 973.792 312.379 973.376 313.36 973.376ZM312.832 981.024C313.483 981.024 313.99 980.763 314.352 980.24C314.726 979.707 314.912 978.885 314.912 977.776C314.912 976.635 314.742 975.813 314.4 975.312C314.059 974.8 313.574 974.544 312.944 974.544C312.198 974.544 311.542 974.981 310.976 975.856V979.888C311.2 980.24 311.472 980.517 311.792 980.72C312.123 980.923 312.47 981.024 312.832 981.024ZM325.276 982H324.012L323.9 980.688C323.58 981.211 323.212 981.595 322.796 981.84C322.38 982.075 321.874 982.192 321.276 982.192C320.54 982.192 319.964 981.968 319.548 981.52C319.132 981.072 318.924 980.437 318.924 979.616V973.568H320.396V979.456C320.396 980.032 320.498 980.443 320.7 980.688C320.903 980.923 321.234 981.04 321.692 981.04C322.514 981.04 323.218 980.555 323.804 979.584V973.568H325.276V982ZM328.701 979.968C329.021 979.968 329.288 980.075 329.501 980.288C329.714 980.501 329.821 980.763 329.821 981.072C329.821 981.403 329.725 981.781 329.533 982.208L328.461 984.656H327.405L328.045 982C327.906 981.893 327.794 981.76 327.709 981.6C327.634 981.44 327.597 981.264 327.597 981.072C327.597 980.763 327.704 980.501 327.917 980.288C328.13 980.075 328.392 979.968 328.701 979.968ZM340.331 970.784C340.992 970.784 341.547 970.869 341.995 971.04C342.454 971.211 342.918 971.488 343.387 971.872L342.555 972.848C341.883 972.304 341.174 972.032 340.427 972.032C339.51 972.032 338.768 972.384 338.203 973.088C337.648 973.792 337.371 974.923 337.371 976.48C337.371 977.995 337.648 979.115 338.203 979.84C338.758 980.555 339.494 980.912 340.411 980.912C340.88 980.912 341.291 980.832 341.643 980.672C341.995 980.512 342.368 980.288 342.763 980L343.515 980.96C343.174 981.312 342.736 981.605 342.203 981.84C341.67 982.075 341.056 982.192 340.363 982.192C339.467 982.192 338.667 981.973 337.963 981.536C337.27 981.088 336.726 980.437 336.331 979.584C335.947 978.72 335.755 977.685 335.755 976.48C335.755 975.275 335.958 974.245 336.363 973.392C336.768 972.528 337.318 971.877 338.011 971.44C338.704 971.003 339.478 970.784 340.331 970.784ZM351.3 982L350.468 979.232H346.292L345.46 982H343.924L347.46 970.976H349.38L352.9 982H351.3ZM346.66 978H350.1L348.388 972.24L346.66 978Z" fill="white"/>
<path d="M536.414 1233.78C537.15 1233.78 537.779 1233.89 538.302 1234.1C538.824 1234.31 539.331 1234.63 539.822 1235.06L538.99 1235.99C538.574 1235.66 538.163 1235.42 537.758 1235.27C537.363 1235.11 536.936 1235.03 536.478 1235.03C535.902 1235.03 535.427 1235.17 535.054 1235.43C534.68 1235.7 534.494 1236.09 534.494 1236.6C534.494 1236.92 534.558 1237.19 534.686 1237.42C534.814 1237.63 535.048 1237.83 535.39 1238.01C535.742 1238.19 536.248 1238.38 536.91 1238.58C537.603 1238.8 538.179 1239.03 538.638 1239.27C539.096 1239.52 539.464 1239.86 539.742 1240.3C540.03 1240.72 540.174 1241.27 540.174 1241.93C540.174 1242.57 540.014 1243.13 539.694 1243.62C539.384 1244.11 538.931 1244.5 538.334 1244.78C537.747 1245.05 537.048 1245.19 536.238 1245.19C534.712 1245.19 533.464 1244.72 532.494 1243.77L533.326 1242.84C533.774 1243.2 534.227 1243.48 534.686 1243.67C535.144 1243.85 535.656 1243.94 536.222 1243.94C536.904 1243.94 537.47 1243.78 537.918 1243.45C538.366 1243.11 538.59 1242.62 538.59 1241.98C538.59 1241.61 538.52 1241.31 538.382 1241.08C538.243 1240.83 538.003 1240.62 537.662 1240.42C537.331 1240.23 536.846 1240.04 536.206 1239.85C535.075 1239.51 534.248 1239.1 533.726 1238.62C533.203 1238.14 532.942 1237.49 532.942 1236.66C532.942 1236.11 533.086 1235.61 533.374 1235.18C533.672 1234.74 534.083 1234.4 534.606 1234.15C535.139 1233.91 535.742 1233.78 536.414 1233.78ZM545.501 1236.38C546.685 1236.38 547.602 1236.77 548.253 1237.56C548.914 1238.35 549.245 1239.42 549.245 1240.78C549.245 1241.65 549.095 1242.42 548.797 1243.1C548.498 1243.76 548.066 1244.27 547.501 1244.65C546.935 1245.01 546.263 1245.19 545.485 1245.19C544.301 1245.19 543.378 1244.8 542.717 1244.01C542.055 1243.22 541.725 1242.15 541.725 1240.79C541.725 1239.92 541.874 1239.15 542.173 1238.49C542.471 1237.82 542.903 1237.3 543.469 1236.94C544.034 1236.56 544.711 1236.38 545.501 1236.38ZM545.501 1237.56C544.039 1237.56 543.309 1238.64 543.309 1240.79C543.309 1242.94 544.034 1244.01 545.485 1244.01C546.935 1244.01 547.661 1242.93 547.661 1240.78C547.661 1238.63 546.941 1237.56 545.501 1237.56ZM557.948 1245H556.684L556.572 1243.69C556.252 1244.21 555.884 1244.59 555.468 1244.84C555.052 1245.07 554.546 1245.19 553.948 1245.19C553.212 1245.19 552.636 1244.97 552.22 1244.52C551.804 1244.07 551.596 1243.44 551.596 1242.62V1236.57H553.068V1242.46C553.068 1243.03 553.17 1243.44 553.372 1243.69C553.575 1243.92 553.906 1244.04 554.364 1244.04C555.186 1244.04 555.89 1243.55 556.476 1242.58V1236.57H557.948V1245ZM565.245 1244.62C564.69 1245 564.061 1245.19 563.357 1245.19C562.642 1245.19 562.082 1244.99 561.677 1244.58C561.282 1244.17 561.085 1243.57 561.085 1242.79V1237.7H559.613V1236.57H561.085V1234.66L562.557 1234.49V1236.57H564.557L564.397 1237.7H562.557V1242.73C562.557 1243.17 562.631 1243.49 562.781 1243.69C562.941 1243.88 563.202 1243.98 563.565 1243.98C563.895 1243.98 564.269 1243.86 564.685 1243.64L565.245 1244.62ZM570.738 1236.38C571.506 1236.38 572.103 1236.61 572.53 1237.06C572.967 1237.52 573.186 1238.15 573.186 1238.95V1245H571.714V1239.16C571.714 1238.56 571.597 1238.14 571.362 1237.9C571.138 1237.65 570.807 1237.53 570.37 1237.53C569.933 1237.53 569.543 1237.66 569.202 1237.91C568.861 1238.17 568.541 1238.53 568.242 1239V1245H566.77V1233.19L568.242 1233.03V1237.74C568.903 1236.83 569.735 1236.38 570.738 1236.38ZM583.179 1233.78C583.915 1233.78 584.545 1233.89 585.067 1234.1C585.59 1234.31 586.097 1234.63 586.587 1235.06L585.755 1235.99C585.339 1235.66 584.929 1235.42 584.523 1235.27C584.129 1235.11 583.702 1235.03 583.243 1235.03C582.667 1235.03 582.193 1235.17 581.819 1235.43C581.446 1235.7 581.259 1236.09 581.259 1236.6C581.259 1236.92 581.323 1237.19 581.451 1237.42C581.579 1237.63 581.814 1237.83 582.155 1238.01C582.507 1238.19 583.014 1238.38 583.675 1238.58C584.369 1238.8 584.945 1239.03 585.403 1239.27C585.862 1239.52 586.23 1239.86 586.507 1240.3C586.795 1240.72 586.939 1241.27 586.939 1241.93C586.939 1242.57 586.779 1243.13 586.459 1243.62C586.15 1244.11 585.697 1244.5 585.099 1244.78C584.513 1245.05 583.814 1245.19 583.003 1245.19C581.478 1245.19 580.23 1244.72 579.259 1243.77L580.091 1242.84C580.539 1243.2 580.993 1243.48 581.451 1243.67C581.91 1243.85 582.422 1243.94 582.987 1243.94C583.67 1243.94 584.235 1243.78 584.683 1243.45C585.131 1243.11 585.355 1242.62 585.355 1241.98C585.355 1241.61 585.286 1241.31 585.147 1241.08C585.009 1240.83 584.769 1240.62 584.427 1240.42C584.097 1240.23 583.611 1240.04 582.971 1239.85C581.841 1239.51 581.014 1239.1 580.491 1238.62C579.969 1238.14 579.707 1237.49 579.707 1236.66C579.707 1236.11 579.851 1235.61 580.139 1235.18C580.438 1234.74 580.849 1234.4 581.371 1234.15C581.905 1233.91 582.507 1233.78 583.179 1233.78ZM593.066 1236.38C593.834 1236.38 594.431 1236.61 594.858 1237.06C595.295 1237.52 595.514 1238.15 595.514 1238.95V1245H594.042V1239.16C594.042 1238.56 593.925 1238.14 593.69 1237.9C593.466 1237.65 593.135 1237.53 592.698 1237.53C592.261 1237.53 591.871 1237.66 591.53 1237.91C591.189 1238.17 590.869 1238.53 590.57 1239V1245H589.098V1233.19L590.57 1233.03V1237.74C591.231 1236.83 592.063 1236.38 593.066 1236.38ZM601.641 1236.38C602.825 1236.38 603.742 1236.77 604.393 1237.56C605.054 1238.35 605.385 1239.42 605.385 1240.78C605.385 1241.65 605.236 1242.42 604.937 1243.1C604.638 1243.76 604.206 1244.27 603.641 1244.65C603.076 1245.01 602.404 1245.19 601.625 1245.19C600.441 1245.19 599.518 1244.8 598.857 1244.01C598.196 1243.22 597.865 1242.15 597.865 1240.79C597.865 1239.92 598.014 1239.15 598.313 1238.49C598.612 1237.82 599.044 1237.3 599.609 1236.94C600.174 1236.56 600.852 1236.38 601.641 1236.38ZM601.641 1237.56C600.18 1237.56 599.449 1238.64 599.449 1240.79C599.449 1242.94 600.174 1244.01 601.625 1244.01C603.076 1244.01 603.801 1242.93 603.801 1240.78C603.801 1238.63 603.081 1237.56 601.641 1237.56ZM611.481 1236.38C611.78 1236.38 612.057 1236.41 612.313 1236.47L612.041 1237.91C611.785 1237.85 611.54 1237.82 611.305 1237.82C610.782 1237.82 610.361 1238.01 610.041 1238.39C609.721 1238.78 609.47 1239.37 609.289 1240.18V1245H607.817V1236.57H609.081L609.225 1238.28C609.449 1237.65 609.753 1237.18 610.137 1236.86C610.521 1236.54 610.969 1236.38 611.481 1236.38ZM619.872 1240.54C619.872 1240.78 619.862 1241.03 619.84 1241.29H614.464C614.528 1242.22 614.763 1242.9 615.168 1243.34C615.574 1243.77 616.096 1243.99 616.736 1243.99C617.142 1243.99 617.515 1243.93 617.856 1243.82C618.198 1243.7 618.555 1243.51 618.928 1243.26L619.568 1244.14C618.672 1244.84 617.691 1245.19 616.624 1245.19C615.451 1245.19 614.534 1244.81 613.872 1244.04C613.222 1243.27 612.896 1242.22 612.896 1240.87C612.896 1240 613.035 1239.22 613.312 1238.55C613.6 1237.87 614.006 1237.34 614.528 1236.95C615.062 1236.57 615.686 1236.38 616.4 1236.38C617.52 1236.38 618.379 1236.74 618.976 1237.48C619.574 1238.22 619.872 1239.23 619.872 1240.54ZM618.416 1240.1C618.416 1239.27 618.251 1238.64 617.92 1238.2C617.59 1237.76 617.094 1237.54 616.432 1237.54C615.227 1237.54 614.571 1238.43 614.464 1240.2H618.416V1240.1ZM628.41 1232.18V1246.57H628.058V1232.18H628.41ZM647.237 1245H645.765L645.381 1240.02C645.221 1238.07 645.131 1236.57 645.109 1235.53L642.725 1243.75H641.301L638.789 1235.51C638.789 1236.85 638.72 1238.39 638.581 1240.14L638.213 1245H636.773L637.685 1233.98H639.733L642.053 1241.99L644.261 1233.98H646.325L647.237 1245ZM655.434 1243.03C655.434 1243.37 655.493 1243.63 655.61 1243.8C655.728 1243.96 655.904 1244.08 656.138 1244.17L655.802 1245.19C655.365 1245.14 655.013 1245.02 654.746 1244.82C654.48 1244.63 654.282 1244.33 654.154 1243.93C653.589 1244.77 652.752 1245.19 651.642 1245.19C650.81 1245.19 650.154 1244.96 649.674 1244.49C649.194 1244.02 648.954 1243.41 648.954 1242.65C648.954 1241.75 649.274 1241.06 649.914 1240.58C650.565 1240.1 651.482 1239.86 652.666 1239.86H653.962V1239.24C653.962 1238.64 653.818 1238.22 653.53 1237.96C653.242 1237.7 652.8 1237.58 652.202 1237.58C651.584 1237.58 650.826 1237.73 649.93 1238.02L649.562 1236.95C650.608 1236.57 651.578 1236.38 652.474 1236.38C653.466 1236.38 654.208 1236.62 654.698 1237.11C655.189 1237.59 655.434 1238.28 655.434 1239.18V1243.03ZM651.978 1244.09C652.821 1244.09 653.482 1243.65 653.962 1242.78V1240.84H652.858C651.301 1240.84 650.522 1241.42 650.522 1242.57C650.522 1243.07 650.645 1243.45 650.89 1243.7C651.136 1243.96 651.498 1244.09 651.978 1244.09ZM659.981 1245.19C659.437 1245.19 659.005 1245.03 658.685 1244.71C658.376 1244.38 658.221 1243.92 658.221 1243.34V1233.18L659.693 1233V1243.3C659.693 1243.54 659.731 1243.71 659.805 1243.82C659.891 1243.92 660.029 1243.98 660.221 1243.98C660.424 1243.98 660.605 1243.94 660.765 1243.88L661.149 1244.9C660.797 1245.1 660.408 1245.19 659.981 1245.19ZM664.461 1236.57V1245H662.989V1236.57H664.461ZM663.709 1232.52C664.018 1232.52 664.269 1232.62 664.461 1232.81C664.653 1233 664.749 1233.24 664.749 1233.53C664.749 1233.82 664.653 1234.06 664.461 1234.25C664.269 1234.43 664.018 1234.52 663.709 1234.52C663.41 1234.52 663.165 1234.43 662.973 1234.25C662.781 1234.06 662.685 1233.82 662.685 1233.53C662.685 1233.24 662.781 1233 662.973 1232.81C663.165 1232.62 663.41 1232.52 663.709 1232.52ZM671.36 1236.38C672.32 1236.38 673.083 1236.77 673.648 1237.54C674.214 1238.31 674.496 1239.39 674.496 1240.78C674.496 1241.65 674.363 1242.42 674.096 1243.1C673.83 1243.76 673.446 1244.27 672.944 1244.65C672.443 1245.01 671.856 1245.19 671.184 1245.19C670.299 1245.19 669.552 1244.82 668.944 1244.07L668.8 1245H667.504V1233.18L668.976 1233V1237.62C669.584 1236.79 670.379 1236.38 671.36 1236.38ZM670.832 1244.02C671.483 1244.02 671.99 1243.76 672.352 1243.24C672.726 1242.71 672.912 1241.89 672.912 1240.78C672.912 1239.63 672.742 1238.81 672.4 1238.31C672.059 1237.8 671.574 1237.54 670.944 1237.54C670.198 1237.54 669.542 1237.98 668.976 1238.86V1242.89C669.2 1243.24 669.472 1243.52 669.792 1243.72C670.123 1243.92 670.47 1244.02 670.832 1244.02ZM683.276 1245H682.012L681.9 1243.69C681.58 1244.21 681.212 1244.59 680.796 1244.84C680.38 1245.07 679.874 1245.19 679.276 1245.19C678.54 1245.19 677.964 1244.97 677.548 1244.52C677.132 1244.07 676.924 1243.44 676.924 1242.62V1236.57H678.396V1242.46C678.396 1243.03 678.498 1243.44 678.7 1243.69C678.903 1243.92 679.234 1244.04 679.692 1244.04C680.514 1244.04 681.218 1243.55 681.804 1242.58V1236.57H683.276V1245ZM686.701 1242.97C687.021 1242.97 687.288 1243.07 687.501 1243.29C687.714 1243.5 687.821 1243.76 687.821 1244.07C687.821 1244.4 687.725 1244.78 687.533 1245.21L686.461 1247.66H685.405L686.045 1245C685.906 1244.89 685.794 1244.76 685.709 1244.6C685.634 1244.44 685.597 1244.26 685.597 1244.07C685.597 1243.76 685.704 1243.5 685.917 1243.29C686.13 1243.07 686.392 1242.97 686.701 1242.97ZM698.331 1233.78C698.992 1233.78 699.547 1233.87 699.995 1234.04C700.454 1234.21 700.918 1234.49 701.387 1234.87L700.555 1235.85C699.883 1235.3 699.174 1235.03 698.427 1235.03C697.51 1235.03 696.768 1235.38 696.203 1236.09C695.648 1236.79 695.371 1237.92 695.371 1239.48C695.371 1240.99 695.648 1242.11 696.203 1242.84C696.758 1243.55 697.494 1243.91 698.411 1243.91C698.88 1243.91 699.291 1243.83 699.643 1243.67C699.995 1243.51 700.368 1243.29 700.763 1243L701.515 1243.96C701.174 1244.31 700.736 1244.61 700.203 1244.84C699.67 1245.07 699.056 1245.19 698.363 1245.19C697.467 1245.19 696.667 1244.97 695.963 1244.54C695.27 1244.09 694.726 1243.44 694.331 1242.58C693.947 1241.72 693.755 1240.69 693.755 1239.48C693.755 1238.27 693.958 1237.25 694.363 1236.39C694.768 1235.53 695.318 1234.88 696.011 1234.44C696.704 1234 697.478 1233.78 698.331 1233.78ZM709.3 1245L708.468 1242.23H704.292L703.46 1245H701.924L705.46 1233.98H707.38L710.9 1245H709.3ZM704.66 1241H708.1L706.388 1235.24L704.66 1241Z" fill="white"/>
<path d="M481.021 1128.98L480.845 1130.19H476.573V1133.79H480.285V1135.01H476.573V1138.78H481.149V1140H475.053V1128.98H481.021ZM489.028 1138.03C489.028 1138.37 489.087 1138.63 489.204 1138.8C489.321 1138.96 489.497 1139.08 489.732 1139.17L489.396 1140.19C488.959 1140.14 488.607 1140.02 488.34 1139.82C488.073 1139.63 487.876 1139.33 487.748 1138.93C487.183 1139.77 486.345 1140.19 485.236 1140.19C484.404 1140.19 483.748 1139.96 483.268 1139.49C482.788 1139.02 482.548 1138.41 482.548 1137.65C482.548 1136.75 482.868 1136.06 483.508 1135.58C484.159 1135.1 485.076 1134.86 486.26 1134.86H487.556V1134.24C487.556 1133.64 487.412 1133.22 487.124 1132.96C486.836 1132.7 486.393 1132.58 485.796 1132.58C485.177 1132.58 484.42 1132.73 483.524 1133.02L483.156 1131.95C484.201 1131.57 485.172 1131.38 486.068 1131.38C487.06 1131.38 487.801 1131.62 488.292 1132.11C488.783 1132.59 489.028 1133.28 489.028 1134.18V1138.03ZM485.572 1139.09C486.415 1139.09 487.076 1138.65 487.556 1137.78V1135.84H486.452C484.895 1135.84 484.116 1136.42 484.116 1137.57C484.116 1138.07 484.239 1138.45 484.484 1138.7C484.729 1138.96 485.092 1139.09 485.572 1139.09ZM494.183 1131.38C494.759 1131.38 495.276 1131.46 495.735 1131.62C496.194 1131.78 496.631 1132.02 497.047 1132.34L496.423 1133.26C496.039 1133.02 495.671 1132.84 495.319 1132.72C494.978 1132.6 494.615 1132.54 494.231 1132.54C493.751 1132.54 493.372 1132.65 493.095 1132.85C492.818 1133.04 492.679 1133.31 492.679 1133.65C492.679 1133.99 492.807 1134.26 493.063 1134.45C493.33 1134.64 493.804 1134.83 494.487 1135.01C495.426 1135.24 496.124 1135.56 496.583 1135.97C497.052 1136.37 497.287 1136.93 497.287 1137.63C497.287 1138.46 496.962 1139.1 496.311 1139.54C495.671 1139.97 494.887 1140.19 493.959 1140.19C492.679 1140.19 491.618 1139.82 490.775 1139.09L491.559 1138.19C492.274 1138.74 493.063 1139.01 493.927 1139.01C494.482 1139.01 494.919 1138.9 495.239 1138.67C495.57 1138.44 495.735 1138.12 495.735 1137.73C495.735 1137.44 495.676 1137.21 495.559 1137.04C495.442 1136.86 495.239 1136.7 494.951 1136.58C494.663 1136.44 494.242 1136.29 493.687 1136.14C492.791 1135.91 492.14 1135.59 491.735 1135.2C491.34 1134.81 491.143 1134.3 491.143 1133.7C491.143 1133.26 491.271 1132.86 491.527 1132.51C491.794 1132.15 492.156 1131.87 492.615 1131.68C493.084 1131.48 493.607 1131.38 494.183 1131.38ZM503.62 1139.62C503.065 1140 502.436 1140.19 501.732 1140.19C501.017 1140.19 500.457 1139.99 500.052 1139.58C499.657 1139.17 499.46 1138.57 499.46 1137.79V1132.7H497.988V1131.57H499.46V1129.66L500.932 1129.49V1131.57H502.932L502.772 1132.7H500.932V1137.73C500.932 1138.17 501.006 1138.49 501.156 1138.69C501.316 1138.88 501.577 1138.98 501.94 1138.98C502.27 1138.98 502.644 1138.86 503.06 1138.64L503.62 1139.62ZM512.179 1128.78C512.915 1128.78 513.545 1128.89 514.067 1129.1C514.59 1129.31 515.097 1129.63 515.587 1130.06L514.755 1130.99C514.339 1130.66 513.929 1130.42 513.523 1130.27C513.129 1130.11 512.702 1130.03 512.243 1130.03C511.667 1130.03 511.193 1130.17 510.819 1130.43C510.446 1130.7 510.259 1131.09 510.259 1131.6C510.259 1131.92 510.323 1132.19 510.451 1132.42C510.579 1132.63 510.814 1132.83 511.155 1133.01C511.507 1133.19 512.014 1133.38 512.675 1133.58C513.369 1133.8 513.945 1134.03 514.403 1134.27C514.862 1134.52 515.23 1134.86 515.507 1135.3C515.795 1135.72 515.939 1136.27 515.939 1136.93C515.939 1137.57 515.779 1138.13 515.459 1138.62C515.15 1139.11 514.697 1139.5 514.099 1139.78C513.513 1140.05 512.814 1140.19 512.003 1140.19C510.478 1140.19 509.23 1139.72 508.259 1138.77L509.091 1137.84C509.539 1138.2 509.993 1138.48 510.451 1138.67C510.91 1138.85 511.422 1138.94 511.987 1138.94C512.67 1138.94 513.235 1138.78 513.683 1138.45C514.131 1138.11 514.355 1137.62 514.355 1136.98C514.355 1136.61 514.286 1136.31 514.147 1136.08C514.009 1135.83 513.769 1135.62 513.427 1135.42C513.097 1135.23 512.611 1135.04 511.971 1134.85C510.841 1134.51 510.014 1134.1 509.491 1133.62C508.969 1133.14 508.707 1132.49 508.707 1131.66C508.707 1131.11 508.851 1130.61 509.139 1130.18C509.438 1129.74 509.849 1129.4 510.371 1129.15C510.905 1128.91 511.507 1128.78 512.179 1128.78ZM522.066 1131.38C522.834 1131.38 523.431 1131.61 523.858 1132.06C524.295 1132.52 524.514 1133.15 524.514 1133.95V1140H523.042V1134.16C523.042 1133.56 522.925 1133.14 522.69 1132.9C522.466 1132.65 522.135 1132.53 521.698 1132.53C521.261 1132.53 520.871 1132.66 520.53 1132.91C520.189 1133.17 519.869 1133.53 519.57 1134V1140H518.098V1128.19L519.57 1128.03V1132.74C520.231 1131.83 521.063 1131.38 522.066 1131.38ZM530.641 1131.38C531.825 1131.38 532.742 1131.77 533.393 1132.56C534.054 1133.35 534.385 1134.42 534.385 1135.78C534.385 1136.65 534.236 1137.42 533.937 1138.1C533.638 1138.76 533.206 1139.27 532.641 1139.65C532.076 1140.01 531.404 1140.19 530.625 1140.19C529.441 1140.19 528.518 1139.8 527.857 1139.01C527.196 1138.22 526.865 1137.15 526.865 1135.79C526.865 1134.92 527.014 1134.15 527.313 1133.49C527.612 1132.82 528.044 1132.3 528.609 1131.94C529.174 1131.56 529.852 1131.38 530.641 1131.38ZM530.641 1132.56C529.18 1132.56 528.449 1133.64 528.449 1135.79C528.449 1137.94 529.174 1139.01 530.625 1139.01C532.076 1139.01 532.801 1137.93 532.801 1135.78C532.801 1133.63 532.081 1132.56 530.641 1132.56ZM540.481 1131.38C540.78 1131.38 541.057 1131.41 541.313 1131.47L541.041 1132.91C540.785 1132.85 540.54 1132.82 540.305 1132.82C539.782 1132.82 539.361 1133.01 539.041 1133.39C538.721 1133.78 538.47 1134.37 538.289 1135.18V1140H536.817V1131.57H538.081L538.225 1133.28C538.449 1132.65 538.753 1132.18 539.137 1131.86C539.521 1131.54 539.969 1131.38 540.481 1131.38ZM548.872 1135.54C548.872 1135.78 548.862 1136.03 548.84 1136.29H543.464C543.528 1137.22 543.763 1137.9 544.168 1138.34C544.574 1138.77 545.096 1138.99 545.736 1138.99C546.142 1138.99 546.515 1138.93 546.856 1138.82C547.198 1138.7 547.555 1138.51 547.928 1138.26L548.568 1139.14C547.672 1139.84 546.691 1140.19 545.624 1140.19C544.451 1140.19 543.534 1139.81 542.872 1139.04C542.222 1138.27 541.896 1137.22 541.896 1135.87C541.896 1135 542.035 1134.22 542.312 1133.55C542.6 1132.87 543.006 1132.34 543.528 1131.95C544.062 1131.57 544.686 1131.38 545.4 1131.38C546.52 1131.38 547.379 1131.74 547.976 1132.48C548.574 1133.22 548.872 1134.23 548.872 1135.54ZM547.416 1135.1C547.416 1134.27 547.251 1133.64 546.92 1133.2C546.59 1132.76 546.094 1132.54 545.432 1132.54C544.227 1132.54 543.571 1133.43 543.464 1135.2H547.416V1135.1ZM557.41 1127.18V1141.57H557.058V1127.18H557.41ZM576.237 1140H574.765L574.381 1135.02C574.221 1133.07 574.131 1131.57 574.109 1130.53L571.725 1138.75H570.301L567.789 1130.51C567.789 1131.85 567.72 1133.39 567.581 1135.14L567.213 1140H565.773L566.685 1128.98H568.733L571.053 1136.99L573.261 1128.98H575.325L576.237 1140ZM584.434 1138.03C584.434 1138.37 584.493 1138.63 584.61 1138.8C584.728 1138.96 584.904 1139.08 585.138 1139.17L584.802 1140.19C584.365 1140.14 584.013 1140.02 583.746 1139.82C583.48 1139.63 583.282 1139.33 583.154 1138.93C582.589 1139.77 581.752 1140.19 580.642 1140.19C579.81 1140.19 579.154 1139.96 578.674 1139.49C578.194 1139.02 577.954 1138.41 577.954 1137.65C577.954 1136.75 578.274 1136.06 578.914 1135.58C579.565 1135.1 580.482 1134.86 581.666 1134.86H582.962V1134.24C582.962 1133.64 582.818 1133.22 582.53 1132.96C582.242 1132.7 581.8 1132.58 581.202 1132.58C580.584 1132.58 579.826 1132.73 578.93 1133.02L578.562 1131.95C579.608 1131.57 580.578 1131.38 581.474 1131.38C582.466 1131.38 583.208 1131.62 583.698 1132.11C584.189 1132.59 584.434 1133.28 584.434 1134.18V1138.03ZM580.978 1139.09C581.821 1139.09 582.482 1138.65 582.962 1137.78V1135.84H581.858C580.301 1135.84 579.522 1136.42 579.522 1137.57C579.522 1138.07 579.645 1138.45 579.89 1138.7C580.136 1138.96 580.498 1139.09 580.978 1139.09ZM588.981 1140.19C588.437 1140.19 588.005 1140.03 587.685 1139.71C587.376 1139.38 587.221 1138.92 587.221 1138.34V1128.18L588.693 1128V1138.3C588.693 1138.54 588.731 1138.71 588.805 1138.82C588.891 1138.92 589.029 1138.98 589.221 1138.98C589.424 1138.98 589.605 1138.94 589.765 1138.88L590.149 1139.9C589.797 1140.1 589.408 1140.19 588.981 1140.19ZM593.461 1131.57V1140H591.989V1131.57H593.461ZM592.709 1127.52C593.018 1127.52 593.269 1127.62 593.461 1127.81C593.653 1128 593.749 1128.24 593.749 1128.53C593.749 1128.82 593.653 1129.06 593.461 1129.25C593.269 1129.43 593.018 1129.52 592.709 1129.52C592.41 1129.52 592.165 1129.43 591.973 1129.25C591.781 1129.06 591.685 1128.82 591.685 1128.53C591.685 1128.24 591.781 1128 591.973 1127.81C592.165 1127.62 592.41 1127.52 592.709 1127.52ZM600.36 1131.38C601.32 1131.38 602.083 1131.77 602.648 1132.54C603.214 1133.31 603.496 1134.39 603.496 1135.78C603.496 1136.65 603.363 1137.42 603.096 1138.1C602.83 1138.76 602.446 1139.27 601.944 1139.65C601.443 1140.01 600.856 1140.19 600.184 1140.19C599.299 1140.19 598.552 1139.82 597.944 1139.07L597.8 1140H596.504V1128.18L597.976 1128V1132.62C598.584 1131.79 599.379 1131.38 600.36 1131.38ZM599.832 1139.02C600.483 1139.02 600.99 1138.76 601.352 1138.24C601.726 1137.71 601.912 1136.89 601.912 1135.78C601.912 1134.63 601.742 1133.81 601.4 1133.31C601.059 1132.8 600.574 1132.54 599.944 1132.54C599.198 1132.54 598.542 1132.98 597.976 1133.86V1137.89C598.2 1138.24 598.472 1138.52 598.792 1138.72C599.123 1138.92 599.47 1139.02 599.832 1139.02ZM612.276 1140H611.012L610.9 1138.69C610.58 1139.21 610.212 1139.59 609.796 1139.84C609.38 1140.07 608.874 1140.19 608.276 1140.19C607.54 1140.19 606.964 1139.97 606.548 1139.52C606.132 1139.07 605.924 1138.44 605.924 1137.62V1131.57H607.396V1137.46C607.396 1138.03 607.498 1138.44 607.7 1138.69C607.903 1138.92 608.234 1139.04 608.692 1139.04C609.514 1139.04 610.218 1138.55 610.804 1137.58V1131.57H612.276V1140ZM615.701 1137.97C616.021 1137.97 616.288 1138.07 616.501 1138.29C616.714 1138.5 616.821 1138.76 616.821 1139.07C616.821 1139.4 616.725 1139.78 616.533 1140.21L615.461 1142.66H614.405L615.045 1140C614.906 1139.89 614.794 1139.76 614.709 1139.6C614.634 1139.44 614.597 1139.26 614.597 1139.07C614.597 1138.76 614.704 1138.5 614.917 1138.29C615.13 1138.07 615.392 1137.97 615.701 1137.97ZM627.331 1128.78C627.992 1128.78 628.547 1128.87 628.995 1129.04C629.454 1129.21 629.918 1129.49 630.387 1129.87L629.555 1130.85C628.883 1130.3 628.174 1130.03 627.427 1130.03C626.51 1130.03 625.768 1130.38 625.203 1131.09C624.648 1131.79 624.371 1132.92 624.371 1134.48C624.371 1135.99 624.648 1137.11 625.203 1137.84C625.758 1138.55 626.494 1138.91 627.411 1138.91C627.88 1138.91 628.291 1138.83 628.643 1138.67C628.995 1138.51 629.368 1138.29 629.763 1138L630.515 1138.96C630.174 1139.31 629.736 1139.61 629.203 1139.84C628.67 1140.07 628.056 1140.19 627.363 1140.19C626.467 1140.19 625.667 1139.97 624.963 1139.54C624.27 1139.09 623.726 1138.44 623.331 1137.58C622.947 1136.72 622.755 1135.69 622.755 1134.48C622.755 1133.27 622.958 1132.25 623.363 1131.39C623.768 1130.53 624.318 1129.88 625.011 1129.44C625.704 1129 626.478 1128.78 627.331 1128.78ZM638.3 1140L637.468 1137.23H633.292L632.46 1140H630.924L634.46 1128.98H636.38L639.9 1140H638.3ZM633.66 1136H637.1L635.388 1130.24L633.66 1136Z" fill="white"/>
<path d="M585.378 856.784C586.039 856.784 586.594 856.869 587.042 857.04C587.501 857.211 587.965 857.488 588.434 857.872L587.602 858.848C586.93 858.304 586.221 858.032 585.474 858.032C584.557 858.032 583.815 858.384 583.25 859.088C582.695 859.792 582.418 860.923 582.418 862.48C582.418 863.995 582.695 865.115 583.25 865.84C583.805 866.555 584.541 866.912 585.458 866.912C585.927 866.912 586.338 866.832 586.69 866.672C587.042 866.512 587.415 866.288 587.81 866L588.562 866.96C588.221 867.312 587.783 867.605 587.25 867.84C586.717 868.075 586.103 868.192 585.41 868.192C584.514 868.192 583.714 867.973 583.01 867.536C582.317 867.088 581.773 866.437 581.378 865.584C580.994 864.72 580.802 863.685 580.802 862.48C580.802 861.275 581.005 860.245 581.41 859.392C581.815 858.528 582.365 857.877 583.058 857.44C583.751 857.003 584.525 856.784 585.378 856.784ZM596.401 868H595.137L595.025 866.688C594.705 867.211 594.337 867.595 593.921 867.84C593.505 868.075 592.999 868.192 592.401 868.192C591.665 868.192 591.089 867.968 590.673 867.52C590.257 867.072 590.049 866.437 590.049 865.616V859.568H591.521V865.456C591.521 866.032 591.623 866.443 591.825 866.688C592.028 866.923 592.359 867.04 592.817 867.04C593.639 867.04 594.343 866.555 594.929 865.584V859.568H596.401V868ZM603.106 859.376C603.405 859.376 603.682 859.408 603.938 859.472L603.666 860.912C603.41 860.848 603.165 860.816 602.93 860.816C602.407 860.816 601.986 861.008 601.666 861.392C601.346 861.776 601.095 862.373 600.914 863.184V868H599.442V859.568H600.706L600.85 861.28C601.074 860.651 601.378 860.176 601.762 859.856C602.146 859.536 602.594 859.376 603.106 859.376ZM609.278 859.376C609.576 859.376 609.854 859.408 610.11 859.472L609.838 860.912C609.582 860.848 609.336 860.816 609.102 860.816C608.579 860.816 608.158 861.008 607.838 861.392C607.518 861.776 607.267 862.373 607.086 863.184V868H605.614V859.568H606.878L607.022 861.28C607.246 860.651 607.55 860.176 607.934 859.856C608.318 859.536 608.766 859.376 609.278 859.376ZM617.669 863.536C617.669 863.781 617.659 864.032 617.637 864.288H612.261C612.325 865.216 612.56 865.899 612.965 866.336C613.371 866.773 613.893 866.992 614.533 866.992C614.939 866.992 615.312 866.933 615.653 866.816C615.995 866.699 616.352 866.512 616.725 866.256L617.365 867.136C616.469 867.84 615.488 868.192 614.421 868.192C613.248 868.192 612.331 867.808 611.669 867.04C611.019 866.272 610.693 865.216 610.693 863.872C610.693 862.997 610.832 862.224 611.109 861.552C611.397 860.869 611.803 860.336 612.325 859.952C612.859 859.568 613.483 859.376 614.197 859.376C615.317 859.376 616.176 859.744 616.773 860.48C617.371 861.216 617.669 862.235 617.669 863.536ZM616.213 863.104C616.213 862.272 616.048 861.637 615.717 861.2C615.387 860.763 614.891 860.544 614.229 860.544C613.024 860.544 612.368 861.429 612.261 863.2H616.213V863.104ZM623.988 859.376C624.756 859.376 625.353 859.605 625.78 860.064C626.217 860.523 626.436 861.152 626.436 861.952V868H624.964V862.16C624.964 861.563 624.852 861.141 624.628 860.896C624.404 860.651 624.073 860.528 623.636 860.528C623.188 860.528 622.793 860.656 622.452 860.912C622.111 861.168 621.791 861.536 621.492 862.016V868H620.02V859.568H621.284L621.412 860.816C621.711 860.368 622.079 860.016 622.516 859.76C622.964 859.504 623.455 859.376 623.988 859.376ZM633.651 867.616C633.096 868 632.467 868.192 631.763 868.192C631.048 868.192 630.488 867.989 630.083 867.584C629.688 867.168 629.491 866.571 629.491 865.792V860.704H628.019V859.568H629.491V857.664L630.963 857.488V859.568H632.963L632.803 860.704H630.963V865.728C630.963 866.165 631.038 866.485 631.187 866.688C631.347 866.88 631.608 866.976 631.971 866.976C632.302 866.976 632.675 866.864 633.091 866.64L633.651 867.616ZM641.011 856.976V866.672H645.539L645.363 868H639.491V856.976H641.011ZM650.141 859.376C651.325 859.376 652.242 859.771 652.893 860.56C653.554 861.349 653.885 862.421 653.885 863.776C653.885 864.651 653.736 865.424 653.437 866.096C653.138 866.757 652.706 867.275 652.141 867.648C651.576 868.011 650.904 868.192 650.125 868.192C648.941 868.192 648.018 867.797 647.357 867.008C646.696 866.219 646.365 865.147 646.365 863.792C646.365 862.917 646.514 862.149 646.813 861.488C647.112 860.816 647.544 860.299 648.109 859.936C648.674 859.563 649.352 859.376 650.141 859.376ZM650.141 860.56C648.68 860.56 647.949 861.637 647.949 863.792C647.949 865.936 648.674 867.008 650.125 867.008C651.576 867.008 652.301 865.931 652.301 863.776C652.301 861.632 651.581 860.56 650.141 860.56ZM659.389 859.376C659.89 859.376 660.349 859.451 660.765 859.6C661.181 859.739 661.581 859.968 661.965 860.288L661.261 861.216C660.962 861.003 660.669 860.848 660.381 860.752C660.104 860.645 659.794 860.592 659.453 860.592C658.77 860.592 658.237 860.864 657.853 861.408C657.48 861.952 657.293 862.757 657.293 863.824C657.293 864.891 657.48 865.68 657.853 866.192C658.226 866.693 658.76 866.944 659.453 866.944C659.784 866.944 660.088 866.896 660.365 866.8C660.642 866.693 660.952 866.528 661.293 866.304L661.965 867.264C661.197 867.883 660.338 868.192 659.389 868.192C658.248 868.192 657.346 867.808 656.685 867.04C656.034 866.272 655.709 865.211 655.709 863.856C655.709 862.96 655.858 862.176 656.157 861.504C656.456 860.832 656.877 860.309 657.421 859.936C657.976 859.563 658.632 859.376 659.389 859.376ZM669.481 866.032C669.481 866.373 669.54 866.629 669.657 866.8C669.775 866.96 669.951 867.083 670.185 867.168L669.849 868.192C669.412 868.139 669.06 868.016 668.793 867.824C668.527 867.632 668.329 867.333 668.201 866.928C667.636 867.771 666.799 868.192 665.689 868.192C664.857 868.192 664.201 867.957 663.721 867.488C663.241 867.019 663.001 866.405 663.001 865.648C663.001 864.752 663.321 864.064 663.961 863.584C664.612 863.104 665.529 862.864 666.713 862.864H668.009V862.24C668.009 861.643 667.865 861.216 667.577 860.96C667.289 860.704 666.847 860.576 666.249 860.576C665.631 860.576 664.873 860.725 663.977 861.024L663.609 859.952C664.655 859.568 665.625 859.376 666.521 859.376C667.513 859.376 668.255 859.621 668.745 860.112C669.236 860.592 669.481 861.28 669.481 862.176V866.032ZM666.025 867.088C666.868 867.088 667.529 866.651 668.009 865.776V863.84H666.905C665.348 863.84 664.569 864.416 664.569 865.568C664.569 866.069 664.692 866.448 664.937 866.704C665.183 866.96 665.545 867.088 666.025 867.088ZM676.76 867.616C676.206 868 675.576 868.192 674.872 868.192C674.158 868.192 673.598 867.989 673.192 867.584C672.798 867.168 672.6 866.571 672.6 865.792V860.704H671.128V859.568H672.6V857.664L674.072 857.488V859.568H676.072L675.912 860.704H674.072V865.728C674.072 866.165 674.147 866.485 674.296 866.688C674.456 866.88 674.718 866.976 675.08 866.976C675.411 866.976 675.784 866.864 676.2 866.64L676.76 867.616ZM679.758 859.568V868H678.286V859.568H679.758ZM679.006 855.52C679.315 855.52 679.566 855.616 679.758 855.808C679.95 856 680.046 856.24 680.046 856.528C680.046 856.816 679.95 857.056 679.758 857.248C679.566 857.429 679.315 857.52 679.006 857.52C678.707 857.52 678.462 857.429 678.27 857.248C678.078 857.056 677.982 856.816 677.982 856.528C677.982 856.24 678.078 856 678.27 855.808C678.462 855.616 678.707 855.52 679.006 855.52ZM685.969 859.376C687.153 859.376 688.071 859.771 688.721 860.56C689.383 861.349 689.713 862.421 689.713 863.776C689.713 864.651 689.564 865.424 689.265 866.096C688.967 866.757 688.535 867.275 687.969 867.648C687.404 868.011 686.732 868.192 685.953 868.192C684.769 868.192 683.847 867.797 683.185 867.008C682.524 866.219 682.193 865.147 682.193 863.792C682.193 862.917 682.343 862.149 682.641 861.488C682.94 860.816 683.372 860.299 683.937 859.936C684.503 859.563 685.18 859.376 685.969 859.376ZM685.969 860.56C684.508 860.56 683.777 861.637 683.777 863.792C683.777 865.936 684.503 867.008 685.953 867.008C687.404 867.008 688.129 865.931 688.129 863.776C688.129 861.632 687.409 860.56 685.969 860.56ZM696.113 859.376C696.881 859.376 697.478 859.605 697.905 860.064C698.342 860.523 698.561 861.152 698.561 861.952V868H697.089V862.16C697.089 861.563 696.977 861.141 696.753 860.896C696.529 860.651 696.198 860.528 695.761 860.528C695.313 860.528 694.918 860.656 694.577 860.912C694.236 861.168 693.916 861.536 693.617 862.016V868H692.145V859.568H693.409L693.537 860.816C693.836 860.368 694.204 860.016 694.641 859.76C695.089 859.504 695.58 859.376 696.113 859.376Z" fill="white"/>
</svg>
