<svg width="1009" height="496" viewBox="0 0 1009 496" fill="none" xmlns="http://www.w3.org/2000/svg">
<g opacity="0.29827">
<path d="M1008.08 163.448L443.182 -356.858V-747.19L28.1096 -770C24.9043 -762.456 4.36709 -740.714 7.57176 -728.596C11.43 -714.102 30.8387 -718.735 36.4776 -709.409C43.0661 -698.42 31.7291 -653.749 28.3457 -640.86C21.8759 -616.445 7.09676 -596.665 2.82235 -572.25C-4.35982 -531.263 10.1824 -534.53 37.7242 -508.927C84.141 -465.742 46.9244 -420.952 58.6176 -370.223C68.1146 -328.878 109.605 -307.554 124.8 -266.211C136.553 -234.37 152.697 -226.233 177.746 -202.947C177.153 -217.084 164.51 -258.785 188.253 -255.102C211.817 -251.478 202.736 -216.669 207.247 -202.115C211.045 -189.997 237.933 -165.761 215.616 -154.593C208.196 -150.91 187.066 -165.582 178.577 -169.503C184.572 -150.791 180.774 -131.367 190.271 -113.487C201.608 -92.162 213.835 -100.359 228.853 -88.7754C244.344 -76.8355 242.683 -63.1137 235.797 -45.0554C228.615 -26.2247 221.196 -29.1352 232.592 -6.44342C240.843 9.95119 254.85 30.7421 266.9 43.2164C273.904 50.4634 281.502 52.1267 288.506 61.3932C294.323 69.1155 292.067 79.2142 299.012 86.1638C310.883 98.1037 331.006 98.282 340.384 113.904C350.831 131.309 338.96 144.437 369.706 142.833C371.309 177.643 377.897 209.185 377.541 243.994C394.695 250.825 422.414 242.687 440.399 239.063C458.266 263.18 481.355 246.429 501.774 259.558C510.678 265.26 508.837 279.517 514.239 284.506C525.339 294.723 533.529 288.308 547.301 291.872C557.51 294.486 565.404 301.97 575.138 304.703C584.338 307.257 599.475 301.258 606.301 309.396C614.492 319.138 600.78 336.958 613.127 344.799C623.395 351.333 638.115 335.77 648.088 338.027C659.721 340.7 693.079 371.174 701.271 381.212C710.59 392.677 719.969 414.062 725.25 428.793C733.501 451.841 732.373 463.127 749.408 479.998C760.27 490.75 749.942 491.522 767.63 494.67C779.204 496.749 794.518 488.374 806.212 487.067C830.549 484.394 855.122 489.027 879.102 484.453C901.421 480.176 922.729 473.166 945.64 469.899C965.465 467.048 1000.37 469.246 1017.94 459.801C1036.99 449.643 1038.71 426.654 1011.17 430.932C1008.97 416.26 1018.77 396.003 1007.85 385.847C1023.04 365.056 1028.56 350.384 1030.93 324.959C1032 313.792 1032.48 301.436 1038 292.05C1043.4 282.783 1058.59 277.259 1061.56 269.299C1066.13 256.943 1058.83 251.419 1053.25 244.528C1049.69 240.073 1039.54 242.212 1036.63 238.291C1031.23 231.103 1036.57 223.678 1033.6 216.431C1024.94 195.462 1014.61 187.205 1008.08 163.444C1008.26 167.424 1008.44 171.463 1008.2 175.384" stroke="white" stroke-width="2" stroke-linecap="round" stroke-linejoin="round"/>
</g>
<path fill-rule="evenodd" clip-rule="evenodd" d="M567.5 320C571.09 320 574 317.09 574 313.5C574 309.91 571.09 307 567.5 307C563.91 307 561 309.91 561 313.5C561 317.09 563.91 320 567.5 320Z" fill="#4AF6CD"/>
<path fill-rule="evenodd" clip-rule="evenodd" d="M651.5 364C655.09 364 658 361.09 658 357.5C658 353.91 655.09 351 651.5 351C647.91 351 645 353.91 645 357.5C645 361.09 647.91 364 651.5 364Z" fill="#4AF6CD"/>
<path fill-rule="evenodd" clip-rule="evenodd" d="M712.5 471C716.09 471 719 468.09 719 464.5C719 460.91 716.09 458 712.5 458C708.91 458 706 460.91 706 464.5C706 468.09 708.91 471 712.5 471Z" fill="#4AF6CD"/>
<path fill-rule="evenodd" clip-rule="evenodd" d="M357.5 224C361.09 224 364 221.09 364 217.5C364 213.91 361.09 211 357.5 211C353.91 211 351 213.91 351 217.5C351 221.09 353.91 224 357.5 224Z" fill="#4AF6CD"/>
<path fill-rule="evenodd" clip-rule="evenodd" d="M652 361C653.657 361 655 359.657 655 358C655 356.343 653.657 355 652 355C650.343 355 649 356.343 649 358C649 359.657 650.343 361 652 361Z" fill="#4AF6CD"/>
<path fill-rule="evenodd" clip-rule="evenodd" d="M568 317C569.657 317 571 315.657 571 314C571 312.343 569.657 311 568 311C566.343 311 565 312.343 565 314C565 315.657 566.343 317 568 317Z" fill="#4AF6CD"/>
<path fill-rule="evenodd" clip-rule="evenodd" d="M714 468C715.657 468 717 466.657 717 465C717 463.343 715.657 462 714 462C712.343 462 711 463.343 711 465C711 466.657 712.343 468 714 468Z" fill="#4AF6CD"/>
<path fill-rule="evenodd" clip-rule="evenodd" d="M358 221C359.657 221 361 219.657 361 218C361 216.343 359.657 215 358 215C356.343 215 355 216.343 355 218C355 219.657 356.343 221 358 221Z" fill="#4AF6CD"/>
<path d="M398.41 310.976L396.17 322H394.218L392.186 312.768L390.138 322H388.234L385.994 310.976H387.482L389.258 320.672L391.386 310.976H393.002L395.178 320.672L397.018 310.976H398.41ZM406.544 317.536C406.544 317.781 406.534 318.032 406.512 318.288H401.136C401.2 319.216 401.435 319.899 401.84 320.336C402.246 320.773 402.768 320.992 403.408 320.992C403.814 320.992 404.187 320.933 404.528 320.816C404.87 320.699 405.227 320.512 405.6 320.256L406.24 321.136C405.344 321.84 404.363 322.192 403.296 322.192C402.123 322.192 401.206 321.808 400.544 321.04C399.894 320.272 399.568 319.216 399.568 317.872C399.568 316.997 399.707 316.224 399.984 315.552C400.272 314.869 400.678 314.336 401.2 313.952C401.734 313.568 402.358 313.376 403.072 313.376C404.192 313.376 405.051 313.744 405.648 314.48C406.246 315.216 406.544 316.235 406.544 317.536ZM405.088 317.104C405.088 316.272 404.923 315.637 404.592 315.2C404.262 314.763 403.766 314.544 403.104 314.544C401.899 314.544 401.243 315.429 401.136 317.2H405.088V317.104ZM411.183 313.376C411.759 313.376 412.276 313.456 412.735 313.616C413.194 313.776 413.631 314.016 414.047 314.336L413.423 315.264C413.039 315.019 412.671 314.837 412.319 314.72C411.978 314.603 411.615 314.544 411.231 314.544C410.751 314.544 410.372 314.645 410.095 314.848C409.818 315.04 409.679 315.307 409.679 315.648C409.679 315.989 409.807 316.256 410.063 316.448C410.33 316.64 410.804 316.827 411.487 317.008C412.426 317.243 413.124 317.563 413.583 317.968C414.052 318.373 414.287 318.928 414.287 319.632C414.287 320.464 413.962 321.099 413.311 321.536C412.671 321.973 411.887 322.192 410.959 322.192C409.679 322.192 408.618 321.824 407.775 321.088L408.559 320.192C409.274 320.736 410.063 321.008 410.927 321.008C411.482 321.008 411.919 320.896 412.239 320.672C412.57 320.437 412.735 320.123 412.735 319.728C412.735 319.44 412.676 319.211 412.559 319.04C412.442 318.859 412.239 318.704 411.951 318.576C411.663 318.437 411.242 318.293 410.687 318.144C409.791 317.909 409.14 317.595 408.735 317.2C408.34 316.805 408.143 316.304 408.143 315.696C408.143 315.259 408.271 314.864 408.527 314.512C408.794 314.149 409.156 313.872 409.615 313.68C410.084 313.477 410.607 313.376 411.183 313.376ZM420.62 321.616C420.065 322 419.436 322.192 418.732 322.192C418.017 322.192 417.457 321.989 417.052 321.584C416.657 321.168 416.46 320.571 416.46 319.792V314.704H414.988V313.568H416.46V311.664L417.932 311.488V313.568H419.932L419.772 314.704H417.932V319.728C417.932 320.165 418.006 320.485 418.156 320.688C418.316 320.88 418.577 320.976 418.94 320.976C419.27 320.976 419.644 320.864 420.06 320.64L420.62 321.616ZM429.179 310.784C429.915 310.784 430.545 310.891 431.067 311.104C431.59 311.307 432.097 311.627 432.587 312.064L431.755 312.992C431.339 312.661 430.929 312.421 430.523 312.272C430.129 312.112 429.702 312.032 429.243 312.032C428.667 312.032 428.193 312.165 427.819 312.432C427.446 312.699 427.259 313.088 427.259 313.6C427.259 313.92 427.323 314.192 427.451 314.416C427.579 314.629 427.814 314.827 428.155 315.008C428.507 315.189 429.014 315.381 429.675 315.584C430.369 315.797 430.945 316.027 431.403 316.272C431.862 316.517 432.23 316.859 432.507 317.296C432.795 317.723 432.939 318.267 432.939 318.928C432.939 319.568 432.779 320.133 432.459 320.624C432.15 321.115 431.697 321.499 431.099 321.776C430.513 322.053 429.814 322.192 429.003 322.192C427.478 322.192 426.23 321.717 425.259 320.768L426.091 319.84C426.539 320.203 426.993 320.48 427.451 320.672C427.91 320.853 428.422 320.944 428.987 320.944C429.67 320.944 430.235 320.779 430.683 320.448C431.131 320.107 431.355 319.616 431.355 318.976C431.355 318.613 431.286 318.315 431.147 318.08C431.009 317.835 430.769 317.616 430.427 317.424C430.097 317.232 429.611 317.04 428.971 316.848C427.841 316.507 427.014 316.096 426.491 315.616C425.969 315.136 425.707 314.485 425.707 313.664C425.707 313.109 425.851 312.613 426.139 312.176C426.438 311.739 426.849 311.397 427.371 311.152C427.905 310.907 428.507 310.784 429.179 310.784ZM439.066 313.376C439.834 313.376 440.431 313.605 440.858 314.064C441.295 314.523 441.514 315.152 441.514 315.952V322H440.042V316.16C440.042 315.563 439.925 315.141 439.69 314.896C439.466 314.651 439.135 314.528 438.698 314.528C438.261 314.528 437.871 314.656 437.53 314.912C437.189 315.168 436.869 315.531 436.57 316V322H435.098V310.192L436.57 310.032V314.736C437.231 313.829 438.063 313.376 439.066 313.376ZM447.641 313.376C448.825 313.376 449.742 313.771 450.393 314.56C451.054 315.349 451.385 316.421 451.385 317.776C451.385 318.651 451.236 319.424 450.937 320.096C450.638 320.757 450.206 321.275 449.641 321.648C449.076 322.011 448.404 322.192 447.625 322.192C446.441 322.192 445.518 321.797 444.857 321.008C444.196 320.219 443.865 319.147 443.865 317.792C443.865 316.917 444.014 316.149 444.313 315.488C444.612 314.816 445.044 314.299 445.609 313.936C446.174 313.563 446.852 313.376 447.641 313.376ZM447.641 314.56C446.18 314.56 445.449 315.637 445.449 317.792C445.449 319.936 446.174 321.008 447.625 321.008C449.076 321.008 449.801 319.931 449.801 317.776C449.801 315.632 449.081 314.56 447.641 314.56ZM457.481 313.376C457.78 313.376 458.057 313.408 458.313 313.472L458.041 314.912C457.785 314.848 457.54 314.816 457.305 314.816C456.782 314.816 456.361 315.008 456.041 315.392C455.721 315.776 455.47 316.373 455.289 317.184V322H453.817V313.568H455.081L455.225 315.28C455.449 314.651 455.753 314.176 456.137 313.856C456.521 313.536 456.969 313.376 457.481 313.376ZM465.872 317.536C465.872 317.781 465.862 318.032 465.84 318.288H460.464C460.528 319.216 460.763 319.899 461.168 320.336C461.574 320.773 462.096 320.992 462.736 320.992C463.142 320.992 463.515 320.933 463.856 320.816C464.198 320.699 464.555 320.512 464.928 320.256L465.568 321.136C464.672 321.84 463.691 322.192 462.624 322.192C461.451 322.192 460.534 321.808 459.872 321.04C459.222 320.272 458.896 319.216 458.896 317.872C458.896 316.997 459.035 316.224 459.312 315.552C459.6 314.869 460.006 314.336 460.528 313.952C461.062 313.568 461.686 313.376 462.4 313.376C463.52 313.376 464.379 313.744 464.976 314.48C465.574 315.216 465.872 316.235 465.872 317.536ZM464.416 317.104C464.416 316.272 464.251 315.637 463.92 315.2C463.59 314.763 463.094 314.544 462.432 314.544C461.227 314.544 460.571 315.429 460.464 317.2H464.416V317.104ZM474.41 309.184V323.568H474.058V309.184H474.41ZM493.237 322H491.765L491.381 317.024C491.221 315.072 491.131 313.573 491.109 312.528L488.725 320.752H487.301L484.789 312.512C484.789 313.845 484.72 315.387 484.581 317.136L484.213 322H482.773L483.685 310.976H485.733L488.053 318.992L490.261 310.976H492.325L493.237 322ZM501.434 320.032C501.434 320.373 501.493 320.629 501.61 320.8C501.728 320.96 501.904 321.083 502.138 321.168L501.802 322.192C501.365 322.139 501.013 322.016 500.746 321.824C500.48 321.632 500.282 321.333 500.154 320.928C499.589 321.771 498.752 322.192 497.642 322.192C496.81 322.192 496.154 321.957 495.674 321.488C495.194 321.019 494.954 320.405 494.954 319.648C494.954 318.752 495.274 318.064 495.914 317.584C496.565 317.104 497.482 316.864 498.666 316.864H499.962V316.24C499.962 315.643 499.818 315.216 499.53 314.96C499.242 314.704 498.8 314.576 498.202 314.576C497.584 314.576 496.826 314.725 495.93 315.024L495.562 313.952C496.608 313.568 497.578 313.376 498.474 313.376C499.466 313.376 500.208 313.621 500.698 314.112C501.189 314.592 501.434 315.28 501.434 316.176V320.032ZM497.978 321.088C498.821 321.088 499.482 320.651 499.962 319.776V317.84H498.858C497.301 317.84 496.522 318.416 496.522 319.568C496.522 320.069 496.645 320.448 496.89 320.704C497.136 320.96 497.498 321.088 497.978 321.088ZM505.981 322.192C505.437 322.192 505.005 322.032 504.685 321.712C504.376 321.381 504.221 320.923 504.221 320.336V310.176L505.693 310V320.304C505.693 320.539 505.731 320.709 505.805 320.816C505.891 320.923 506.029 320.976 506.221 320.976C506.424 320.976 506.605 320.944 506.765 320.88L507.149 321.904C506.797 322.096 506.408 322.192 505.981 322.192ZM510.461 313.568V322H508.989V313.568H510.461ZM509.709 309.52C510.018 309.52 510.269 309.616 510.461 309.808C510.653 310 510.749 310.24 510.749 310.528C510.749 310.816 510.653 311.056 510.461 311.248C510.269 311.429 510.018 311.52 509.709 311.52C509.41 311.52 509.165 311.429 508.973 311.248C508.781 311.056 508.685 310.816 508.685 310.528C508.685 310.24 508.781 310 508.973 309.808C509.165 309.616 509.41 309.52 509.709 309.52ZM517.36 313.376C518.32 313.376 519.083 313.765 519.648 314.544C520.214 315.312 520.496 316.389 520.496 317.776C520.496 318.651 520.363 319.424 520.096 320.096C519.83 320.757 519.446 321.275 518.944 321.648C518.443 322.011 517.856 322.192 517.184 322.192C516.299 322.192 515.552 321.819 514.944 321.072L514.8 322H513.504V310.176L514.976 310V314.624C515.584 313.792 516.379 313.376 517.36 313.376ZM516.832 321.024C517.483 321.024 517.99 320.763 518.352 320.24C518.726 319.707 518.912 318.885 518.912 317.776C518.912 316.635 518.742 315.813 518.4 315.312C518.059 314.8 517.574 314.544 516.944 314.544C516.198 314.544 515.542 314.981 514.976 315.856V319.888C515.2 320.24 515.472 320.517 515.792 320.72C516.123 320.923 516.47 321.024 516.832 321.024ZM529.276 322H528.012L527.9 320.688C527.58 321.211 527.212 321.595 526.796 321.84C526.38 322.075 525.874 322.192 525.276 322.192C524.54 322.192 523.964 321.968 523.548 321.52C523.132 321.072 522.924 320.437 522.924 319.616V313.568H524.396V319.456C524.396 320.032 524.498 320.443 524.7 320.688C524.903 320.923 525.234 321.04 525.692 321.04C526.514 321.04 527.218 320.555 527.804 319.584V313.568H529.276V322ZM532.701 319.968C533.021 319.968 533.288 320.075 533.501 320.288C533.714 320.501 533.821 320.763 533.821 321.072C533.821 321.403 533.725 321.781 533.533 322.208L532.461 324.656H531.405L532.045 322C531.906 321.893 531.794 321.76 531.709 321.6C531.634 321.44 531.597 321.264 531.597 321.072C531.597 320.763 531.704 320.501 531.917 320.288C532.13 320.075 532.392 319.968 532.701 319.968ZM544.331 310.784C544.992 310.784 545.547 310.869 545.995 311.04C546.454 311.211 546.918 311.488 547.387 311.872L546.555 312.848C545.883 312.304 545.174 312.032 544.427 312.032C543.51 312.032 542.768 312.384 542.203 313.088C541.648 313.792 541.371 314.923 541.371 316.48C541.371 317.995 541.648 319.115 542.203 319.84C542.758 320.555 543.494 320.912 544.411 320.912C544.88 320.912 545.291 320.832 545.643 320.672C545.995 320.512 546.368 320.288 546.763 320L547.515 320.96C547.174 321.312 546.736 321.605 546.203 321.84C545.67 322.075 545.056 322.192 544.363 322.192C543.467 322.192 542.667 321.973 541.963 321.536C541.27 321.088 540.726 320.437 540.331 319.584C539.947 318.72 539.755 317.685 539.755 316.48C539.755 315.275 539.958 314.245 540.363 313.392C540.768 312.528 541.318 311.877 542.011 311.44C542.704 311.003 543.478 310.784 544.331 310.784ZM555.3 322L554.468 319.232H550.292L549.46 322H547.924L551.46 310.976H553.38L556.9 322H555.3ZM550.66 318H554.1L552.388 312.24L550.66 318Z" fill="white"/>
<path d="M490.021 364.976L489.845 366.192H485.573V369.792H489.285V371.008H485.573V374.784H490.149V376H484.053V364.976H490.021ZM498.028 374.032C498.028 374.373 498.087 374.629 498.204 374.8C498.321 374.96 498.497 375.083 498.732 375.168L498.396 376.192C497.959 376.139 497.607 376.016 497.34 375.824C497.073 375.632 496.876 375.333 496.748 374.928C496.183 375.771 495.345 376.192 494.236 376.192C493.404 376.192 492.748 375.957 492.268 375.488C491.788 375.019 491.548 374.405 491.548 373.648C491.548 372.752 491.868 372.064 492.508 371.584C493.159 371.104 494.076 370.864 495.26 370.864H496.556V370.24C496.556 369.643 496.412 369.216 496.124 368.96C495.836 368.704 495.393 368.576 494.796 368.576C494.177 368.576 493.42 368.725 492.524 369.024L492.156 367.952C493.201 367.568 494.172 367.376 495.068 367.376C496.06 367.376 496.801 367.621 497.292 368.112C497.783 368.592 498.028 369.28 498.028 370.176V374.032ZM494.572 375.088C495.415 375.088 496.076 374.651 496.556 373.776V371.84H495.452C493.895 371.84 493.116 372.416 493.116 373.568C493.116 374.069 493.239 374.448 493.484 374.704C493.729 374.96 494.092 375.088 494.572 375.088ZM503.183 367.376C503.759 367.376 504.276 367.456 504.735 367.616C505.194 367.776 505.631 368.016 506.047 368.336L505.423 369.264C505.039 369.019 504.671 368.837 504.319 368.72C503.978 368.603 503.615 368.544 503.231 368.544C502.751 368.544 502.372 368.645 502.095 368.848C501.818 369.04 501.679 369.307 501.679 369.648C501.679 369.989 501.807 370.256 502.063 370.448C502.33 370.64 502.804 370.827 503.487 371.008C504.426 371.243 505.124 371.563 505.583 371.968C506.052 372.373 506.287 372.928 506.287 373.632C506.287 374.464 505.962 375.099 505.311 375.536C504.671 375.973 503.887 376.192 502.959 376.192C501.679 376.192 500.618 375.824 499.775 375.088L500.559 374.192C501.274 374.736 502.063 375.008 502.927 375.008C503.482 375.008 503.919 374.896 504.239 374.672C504.57 374.437 504.735 374.123 504.735 373.728C504.735 373.44 504.676 373.211 504.559 373.04C504.442 372.859 504.239 372.704 503.951 372.576C503.663 372.437 503.242 372.293 502.687 372.144C501.791 371.909 501.14 371.595 500.735 371.2C500.34 370.805 500.143 370.304 500.143 369.696C500.143 369.259 500.271 368.864 500.527 368.512C500.794 368.149 501.156 367.872 501.615 367.68C502.084 367.477 502.607 367.376 503.183 367.376ZM512.62 375.616C512.065 376 511.436 376.192 510.732 376.192C510.017 376.192 509.457 375.989 509.052 375.584C508.657 375.168 508.46 374.571 508.46 373.792V368.704H506.988V367.568H508.46V365.664L509.932 365.488V367.568H511.932L511.772 368.704H509.932V373.728C509.932 374.165 510.006 374.485 510.156 374.688C510.316 374.88 510.577 374.976 510.94 374.976C511.27 374.976 511.644 374.864 512.06 374.64L512.62 375.616ZM521.179 364.784C521.915 364.784 522.545 364.891 523.067 365.104C523.59 365.307 524.097 365.627 524.587 366.064L523.755 366.992C523.339 366.661 522.929 366.421 522.523 366.272C522.129 366.112 521.702 366.032 521.243 366.032C520.667 366.032 520.193 366.165 519.819 366.432C519.446 366.699 519.259 367.088 519.259 367.6C519.259 367.92 519.323 368.192 519.451 368.416C519.579 368.629 519.814 368.827 520.155 369.008C520.507 369.189 521.014 369.381 521.675 369.584C522.369 369.797 522.945 370.027 523.403 370.272C523.862 370.517 524.23 370.859 524.507 371.296C524.795 371.723 524.939 372.267 524.939 372.928C524.939 373.568 524.779 374.133 524.459 374.624C524.15 375.115 523.697 375.499 523.099 375.776C522.513 376.053 521.814 376.192 521.003 376.192C519.478 376.192 518.23 375.717 517.259 374.768L518.091 373.84C518.539 374.203 518.993 374.48 519.451 374.672C519.91 374.853 520.422 374.944 520.987 374.944C521.67 374.944 522.235 374.779 522.683 374.448C523.131 374.107 523.355 373.616 523.355 372.976C523.355 372.613 523.286 372.315 523.147 372.08C523.009 371.835 522.769 371.616 522.427 371.424C522.097 371.232 521.611 371.04 520.971 370.848C519.841 370.507 519.014 370.096 518.491 369.616C517.969 369.136 517.707 368.485 517.707 367.664C517.707 367.109 517.851 366.613 518.139 366.176C518.438 365.739 518.849 365.397 519.371 365.152C519.905 364.907 520.507 364.784 521.179 364.784ZM531.066 367.376C531.834 367.376 532.431 367.605 532.858 368.064C533.295 368.523 533.514 369.152 533.514 369.952V376H532.042V370.16C532.042 369.563 531.925 369.141 531.69 368.896C531.466 368.651 531.135 368.528 530.698 368.528C530.261 368.528 529.871 368.656 529.53 368.912C529.189 369.168 528.869 369.531 528.57 370V376H527.098V364.192L528.57 364.032V368.736C529.231 367.829 530.063 367.376 531.066 367.376ZM539.641 367.376C540.825 367.376 541.742 367.771 542.393 368.56C543.054 369.349 543.385 370.421 543.385 371.776C543.385 372.651 543.236 373.424 542.937 374.096C542.638 374.757 542.206 375.275 541.641 375.648C541.076 376.011 540.404 376.192 539.625 376.192C538.441 376.192 537.518 375.797 536.857 375.008C536.196 374.219 535.865 373.147 535.865 371.792C535.865 370.917 536.014 370.149 536.313 369.488C536.612 368.816 537.044 368.299 537.609 367.936C538.174 367.563 538.852 367.376 539.641 367.376ZM539.641 368.56C538.18 368.56 537.449 369.637 537.449 371.792C537.449 373.936 538.174 375.008 539.625 375.008C541.076 375.008 541.801 373.931 541.801 371.776C541.801 369.632 541.081 368.56 539.641 368.56ZM549.481 367.376C549.78 367.376 550.057 367.408 550.313 367.472L550.041 368.912C549.785 368.848 549.54 368.816 549.305 368.816C548.782 368.816 548.361 369.008 548.041 369.392C547.721 369.776 547.47 370.373 547.289 371.184V376H545.817V367.568H547.081L547.225 369.28C547.449 368.651 547.753 368.176 548.137 367.856C548.521 367.536 548.969 367.376 549.481 367.376ZM557.872 371.536C557.872 371.781 557.862 372.032 557.84 372.288H552.464C552.528 373.216 552.763 373.899 553.168 374.336C553.574 374.773 554.096 374.992 554.736 374.992C555.142 374.992 555.515 374.933 555.856 374.816C556.198 374.699 556.555 374.512 556.928 374.256L557.568 375.136C556.672 375.84 555.691 376.192 554.624 376.192C553.451 376.192 552.534 375.808 551.872 375.04C551.222 374.272 550.896 373.216 550.896 371.872C550.896 370.997 551.035 370.224 551.312 369.552C551.6 368.869 552.006 368.336 552.528 367.952C553.062 367.568 553.686 367.376 554.4 367.376C555.52 367.376 556.379 367.744 556.976 368.48C557.574 369.216 557.872 370.235 557.872 371.536ZM556.416 371.104C556.416 370.272 556.251 369.637 555.92 369.2C555.59 368.763 555.094 368.544 554.432 368.544C553.227 368.544 552.571 369.429 552.464 371.2H556.416V371.104ZM566.41 363.184V377.568H566.058V363.184H566.41ZM585.237 376H583.765L583.381 371.024C583.221 369.072 583.131 367.573 583.109 366.528L580.725 374.752H579.301L576.789 366.512C576.789 367.845 576.72 369.387 576.581 371.136L576.213 376H574.773L575.685 364.976H577.733L580.053 372.992L582.261 364.976H584.325L585.237 376ZM593.434 374.032C593.434 374.373 593.493 374.629 593.61 374.8C593.728 374.96 593.904 375.083 594.138 375.168L593.802 376.192C593.365 376.139 593.013 376.016 592.746 375.824C592.48 375.632 592.282 375.333 592.154 374.928C591.589 375.771 590.752 376.192 589.642 376.192C588.81 376.192 588.154 375.957 587.674 375.488C587.194 375.019 586.954 374.405 586.954 373.648C586.954 372.752 587.274 372.064 587.914 371.584C588.565 371.104 589.482 370.864 590.666 370.864H591.962V370.24C591.962 369.643 591.818 369.216 591.53 368.96C591.242 368.704 590.8 368.576 590.202 368.576C589.584 368.576 588.826 368.725 587.93 369.024L587.562 367.952C588.608 367.568 589.578 367.376 590.474 367.376C591.466 367.376 592.208 367.621 592.698 368.112C593.189 368.592 593.434 369.28 593.434 370.176V374.032ZM589.978 375.088C590.821 375.088 591.482 374.651 591.962 373.776V371.84H590.858C589.301 371.84 588.522 372.416 588.522 373.568C588.522 374.069 588.645 374.448 588.89 374.704C589.136 374.96 589.498 375.088 589.978 375.088ZM597.981 376.192C597.437 376.192 597.005 376.032 596.685 375.712C596.376 375.381 596.221 374.923 596.221 374.336V364.176L597.693 364V374.304C597.693 374.539 597.731 374.709 597.805 374.816C597.891 374.923 598.029 374.976 598.221 374.976C598.424 374.976 598.605 374.944 598.765 374.88L599.149 375.904C598.797 376.096 598.408 376.192 597.981 376.192ZM602.461 367.568V376H600.989V367.568H602.461ZM601.709 363.52C602.018 363.52 602.269 363.616 602.461 363.808C602.653 364 602.749 364.24 602.749 364.528C602.749 364.816 602.653 365.056 602.461 365.248C602.269 365.429 602.018 365.52 601.709 365.52C601.41 365.52 601.165 365.429 600.973 365.248C600.781 365.056 600.685 364.816 600.685 364.528C600.685 364.24 600.781 364 600.973 363.808C601.165 363.616 601.41 363.52 601.709 363.52ZM609.36 367.376C610.32 367.376 611.083 367.765 611.648 368.544C612.214 369.312 612.496 370.389 612.496 371.776C612.496 372.651 612.363 373.424 612.096 374.096C611.83 374.757 611.446 375.275 610.944 375.648C610.443 376.011 609.856 376.192 609.184 376.192C608.299 376.192 607.552 375.819 606.944 375.072L606.8 376H605.504V364.176L606.976 364V368.624C607.584 367.792 608.379 367.376 609.36 367.376ZM608.832 375.024C609.483 375.024 609.99 374.763 610.352 374.24C610.726 373.707 610.912 372.885 610.912 371.776C610.912 370.635 610.742 369.813 610.4 369.312C610.059 368.8 609.574 368.544 608.944 368.544C608.198 368.544 607.542 368.981 606.976 369.856V373.888C607.2 374.24 607.472 374.517 607.792 374.72C608.123 374.923 608.47 375.024 608.832 375.024ZM621.276 376H620.012L619.9 374.688C619.58 375.211 619.212 375.595 618.796 375.84C618.38 376.075 617.874 376.192 617.276 376.192C616.54 376.192 615.964 375.968 615.548 375.52C615.132 375.072 614.924 374.437 614.924 373.616V367.568H616.396V373.456C616.396 374.032 616.498 374.443 616.7 374.688C616.903 374.923 617.234 375.04 617.692 375.04C618.514 375.04 619.218 374.555 619.804 373.584V367.568H621.276V376ZM624.701 373.968C625.021 373.968 625.288 374.075 625.501 374.288C625.714 374.501 625.821 374.763 625.821 375.072C625.821 375.403 625.725 375.781 625.533 376.208L624.461 378.656H623.405L624.045 376C623.906 375.893 623.794 375.76 623.709 375.6C623.634 375.44 623.597 375.264 623.597 375.072C623.597 374.763 623.704 374.501 623.917 374.288C624.13 374.075 624.392 373.968 624.701 373.968ZM636.331 364.784C636.992 364.784 637.547 364.869 637.995 365.04C638.454 365.211 638.918 365.488 639.387 365.872L638.555 366.848C637.883 366.304 637.174 366.032 636.427 366.032C635.51 366.032 634.768 366.384 634.203 367.088C633.648 367.792 633.371 368.923 633.371 370.48C633.371 371.995 633.648 373.115 634.203 373.84C634.758 374.555 635.494 374.912 636.411 374.912C636.88 374.912 637.291 374.832 637.643 374.672C637.995 374.512 638.368 374.288 638.763 374L639.515 374.96C639.174 375.312 638.736 375.605 638.203 375.84C637.67 376.075 637.056 376.192 636.363 376.192C635.467 376.192 634.667 375.973 633.963 375.536C633.27 375.088 632.726 374.437 632.331 373.584C631.947 372.72 631.755 371.685 631.755 370.48C631.755 369.275 631.958 368.245 632.363 367.392C632.768 366.528 633.318 365.877 634.011 365.44C634.704 365.003 635.478 364.784 636.331 364.784ZM647.3 376L646.468 373.232H642.292L641.46 376H639.924L643.46 364.976H645.38L648.9 376H647.3ZM642.66 372H646.1L644.388 366.24L642.66 372Z" fill="white"/>
<path d="M536.414 471.784C537.15 471.784 537.779 471.891 538.302 472.104C538.824 472.307 539.331 472.627 539.822 473.064L538.99 473.992C538.574 473.661 538.163 473.421 537.758 473.272C537.363 473.112 536.936 473.032 536.478 473.032C535.902 473.032 535.427 473.165 535.054 473.432C534.68 473.699 534.494 474.088 534.494 474.6C534.494 474.92 534.558 475.192 534.686 475.416C534.814 475.629 535.048 475.827 535.39 476.008C535.742 476.189 536.248 476.381 536.91 476.584C537.603 476.797 538.179 477.027 538.638 477.272C539.096 477.517 539.464 477.859 539.742 478.296C540.03 478.723 540.174 479.267 540.174 479.928C540.174 480.568 540.014 481.133 539.694 481.624C539.384 482.115 538.931 482.499 538.334 482.776C537.747 483.053 537.048 483.192 536.238 483.192C534.712 483.192 533.464 482.717 532.494 481.768L533.326 480.84C533.774 481.203 534.227 481.48 534.686 481.672C535.144 481.853 535.656 481.944 536.222 481.944C536.904 481.944 537.47 481.779 537.918 481.448C538.366 481.107 538.59 480.616 538.59 479.976C538.59 479.613 538.52 479.315 538.382 479.08C538.243 478.835 538.003 478.616 537.662 478.424C537.331 478.232 536.846 478.04 536.206 477.848C535.075 477.507 534.248 477.096 533.726 476.616C533.203 476.136 532.942 475.485 532.942 474.664C532.942 474.109 533.086 473.613 533.374 473.176C533.672 472.739 534.083 472.397 534.606 472.152C535.139 471.907 535.742 471.784 536.414 471.784ZM545.501 474.376C546.685 474.376 547.602 474.771 548.253 475.56C548.914 476.349 549.245 477.421 549.245 478.776C549.245 479.651 549.095 480.424 548.797 481.096C548.498 481.757 548.066 482.275 547.501 482.648C546.935 483.011 546.263 483.192 545.485 483.192C544.301 483.192 543.378 482.797 542.717 482.008C542.055 481.219 541.725 480.147 541.725 478.792C541.725 477.917 541.874 477.149 542.173 476.488C542.471 475.816 542.903 475.299 543.469 474.936C544.034 474.563 544.711 474.376 545.501 474.376ZM545.501 475.56C544.039 475.56 543.309 476.637 543.309 478.792C543.309 480.936 544.034 482.008 545.485 482.008C546.935 482.008 547.661 480.931 547.661 478.776C547.661 476.632 546.941 475.56 545.501 475.56ZM557.948 483H556.684L556.572 481.688C556.252 482.211 555.884 482.595 555.468 482.84C555.052 483.075 554.546 483.192 553.948 483.192C553.212 483.192 552.636 482.968 552.22 482.52C551.804 482.072 551.596 481.437 551.596 480.616V474.568H553.068V480.456C553.068 481.032 553.17 481.443 553.372 481.688C553.575 481.923 553.906 482.04 554.364 482.04C555.186 482.04 555.89 481.555 556.476 480.584V474.568H557.948V483ZM565.245 482.616C564.69 483 564.061 483.192 563.357 483.192C562.642 483.192 562.082 482.989 561.677 482.584C561.282 482.168 561.085 481.571 561.085 480.792V475.704H559.613V474.568H561.085V472.664L562.557 472.488V474.568H564.557L564.397 475.704H562.557V480.728C562.557 481.165 562.631 481.485 562.781 481.688C562.941 481.88 563.202 481.976 563.565 481.976C563.895 481.976 564.269 481.864 564.685 481.64L565.245 482.616ZM570.738 474.376C571.506 474.376 572.103 474.605 572.53 475.064C572.967 475.523 573.186 476.152 573.186 476.952V483H571.714V477.16C571.714 476.563 571.597 476.141 571.362 475.896C571.138 475.651 570.807 475.528 570.37 475.528C569.933 475.528 569.543 475.656 569.202 475.912C568.861 476.168 568.541 476.531 568.242 477V483H566.77V471.192L568.242 471.032V475.736C568.903 474.829 569.735 474.376 570.738 474.376ZM583.179 471.784C583.915 471.784 584.545 471.891 585.067 472.104C585.59 472.307 586.097 472.627 586.587 473.064L585.755 473.992C585.339 473.661 584.929 473.421 584.523 473.272C584.129 473.112 583.702 473.032 583.243 473.032C582.667 473.032 582.193 473.165 581.819 473.432C581.446 473.699 581.259 474.088 581.259 474.6C581.259 474.92 581.323 475.192 581.451 475.416C581.579 475.629 581.814 475.827 582.155 476.008C582.507 476.189 583.014 476.381 583.675 476.584C584.369 476.797 584.945 477.027 585.403 477.272C585.862 477.517 586.23 477.859 586.507 478.296C586.795 478.723 586.939 479.267 586.939 479.928C586.939 480.568 586.779 481.133 586.459 481.624C586.15 482.115 585.697 482.499 585.099 482.776C584.513 483.053 583.814 483.192 583.003 483.192C581.478 483.192 580.23 482.717 579.259 481.768L580.091 480.84C580.539 481.203 580.993 481.48 581.451 481.672C581.91 481.853 582.422 481.944 582.987 481.944C583.67 481.944 584.235 481.779 584.683 481.448C585.131 481.107 585.355 480.616 585.355 479.976C585.355 479.613 585.286 479.315 585.147 479.08C585.009 478.835 584.769 478.616 584.427 478.424C584.097 478.232 583.611 478.04 582.971 477.848C581.841 477.507 581.014 477.096 580.491 476.616C579.969 476.136 579.707 475.485 579.707 474.664C579.707 474.109 579.851 473.613 580.139 473.176C580.438 472.739 580.849 472.397 581.371 472.152C581.905 471.907 582.507 471.784 583.179 471.784ZM593.066 474.376C593.834 474.376 594.431 474.605 594.858 475.064C595.295 475.523 595.514 476.152 595.514 476.952V483H594.042V477.16C594.042 476.563 593.925 476.141 593.69 475.896C593.466 475.651 593.135 475.528 592.698 475.528C592.261 475.528 591.871 475.656 591.53 475.912C591.189 476.168 590.869 476.531 590.57 477V483H589.098V471.192L590.57 471.032V475.736C591.231 474.829 592.063 474.376 593.066 474.376ZM601.641 474.376C602.825 474.376 603.742 474.771 604.393 475.56C605.054 476.349 605.385 477.421 605.385 478.776C605.385 479.651 605.236 480.424 604.937 481.096C604.638 481.757 604.206 482.275 603.641 482.648C603.076 483.011 602.404 483.192 601.625 483.192C600.441 483.192 599.518 482.797 598.857 482.008C598.196 481.219 597.865 480.147 597.865 478.792C597.865 477.917 598.014 477.149 598.313 476.488C598.612 475.816 599.044 475.299 599.609 474.936C600.174 474.563 600.852 474.376 601.641 474.376ZM601.641 475.56C600.18 475.56 599.449 476.637 599.449 478.792C599.449 480.936 600.174 482.008 601.625 482.008C603.076 482.008 603.801 480.931 603.801 478.776C603.801 476.632 603.081 475.56 601.641 475.56ZM611.481 474.376C611.78 474.376 612.057 474.408 612.313 474.472L612.041 475.912C611.785 475.848 611.54 475.816 611.305 475.816C610.782 475.816 610.361 476.008 610.041 476.392C609.721 476.776 609.47 477.373 609.289 478.184V483H607.817V474.568H609.081L609.225 476.28C609.449 475.651 609.753 475.176 610.137 474.856C610.521 474.536 610.969 474.376 611.481 474.376ZM619.872 478.536C619.872 478.781 619.862 479.032 619.84 479.288H614.464C614.528 480.216 614.763 480.899 615.168 481.336C615.574 481.773 616.096 481.992 616.736 481.992C617.142 481.992 617.515 481.933 617.856 481.816C618.198 481.699 618.555 481.512 618.928 481.256L619.568 482.136C618.672 482.84 617.691 483.192 616.624 483.192C615.451 483.192 614.534 482.808 613.872 482.04C613.222 481.272 612.896 480.216 612.896 478.872C612.896 477.997 613.035 477.224 613.312 476.552C613.6 475.869 614.006 475.336 614.528 474.952C615.062 474.568 615.686 474.376 616.4 474.376C617.52 474.376 618.379 474.744 618.976 475.48C619.574 476.216 619.872 477.235 619.872 478.536ZM618.416 478.104C618.416 477.272 618.251 476.637 617.92 476.2C617.59 475.763 617.094 475.544 616.432 475.544C615.227 475.544 614.571 476.429 614.464 478.2H618.416V478.104ZM628.41 470.184V484.568H628.058V470.184H628.41ZM647.237 483H645.765L645.381 478.024C645.221 476.072 645.131 474.573 645.109 473.528L642.725 481.752H641.301L638.789 473.512C638.789 474.845 638.72 476.387 638.581 478.136L638.213 483H636.773L637.685 471.976H639.733L642.053 479.992L644.261 471.976H646.325L647.237 483ZM655.434 481.032C655.434 481.373 655.493 481.629 655.61 481.8C655.728 481.96 655.904 482.083 656.138 482.168L655.802 483.192C655.365 483.139 655.013 483.016 654.746 482.824C654.48 482.632 654.282 482.333 654.154 481.928C653.589 482.771 652.752 483.192 651.642 483.192C650.81 483.192 650.154 482.957 649.674 482.488C649.194 482.019 648.954 481.405 648.954 480.648C648.954 479.752 649.274 479.064 649.914 478.584C650.565 478.104 651.482 477.864 652.666 477.864H653.962V477.24C653.962 476.643 653.818 476.216 653.53 475.96C653.242 475.704 652.8 475.576 652.202 475.576C651.584 475.576 650.826 475.725 649.93 476.024L649.562 474.952C650.608 474.568 651.578 474.376 652.474 474.376C653.466 474.376 654.208 474.621 654.698 475.112C655.189 475.592 655.434 476.28 655.434 477.176V481.032ZM651.978 482.088C652.821 482.088 653.482 481.651 653.962 480.776V478.84H652.858C651.301 478.84 650.522 479.416 650.522 480.568C650.522 481.069 650.645 481.448 650.89 481.704C651.136 481.96 651.498 482.088 651.978 482.088ZM659.981 483.192C659.437 483.192 659.005 483.032 658.685 482.712C658.376 482.381 658.221 481.923 658.221 481.336V471.176L659.693 471V481.304C659.693 481.539 659.731 481.709 659.805 481.816C659.891 481.923 660.029 481.976 660.221 481.976C660.424 481.976 660.605 481.944 660.765 481.88L661.149 482.904C660.797 483.096 660.408 483.192 659.981 483.192ZM664.461 474.568V483H662.989V474.568H664.461ZM663.709 470.52C664.018 470.52 664.269 470.616 664.461 470.808C664.653 471 664.749 471.24 664.749 471.528C664.749 471.816 664.653 472.056 664.461 472.248C664.269 472.429 664.018 472.52 663.709 472.52C663.41 472.52 663.165 472.429 662.973 472.248C662.781 472.056 662.685 471.816 662.685 471.528C662.685 471.24 662.781 471 662.973 470.808C663.165 470.616 663.41 470.52 663.709 470.52ZM671.36 474.376C672.32 474.376 673.083 474.765 673.648 475.544C674.214 476.312 674.496 477.389 674.496 478.776C674.496 479.651 674.363 480.424 674.096 481.096C673.83 481.757 673.446 482.275 672.944 482.648C672.443 483.011 671.856 483.192 671.184 483.192C670.299 483.192 669.552 482.819 668.944 482.072L668.8 483H667.504V471.176L668.976 471V475.624C669.584 474.792 670.379 474.376 671.36 474.376ZM670.832 482.024C671.483 482.024 671.99 481.763 672.352 481.24C672.726 480.707 672.912 479.885 672.912 478.776C672.912 477.635 672.742 476.813 672.4 476.312C672.059 475.8 671.574 475.544 670.944 475.544C670.198 475.544 669.542 475.981 668.976 476.856V480.888C669.2 481.24 669.472 481.517 669.792 481.72C670.123 481.923 670.47 482.024 670.832 482.024ZM683.276 483H682.012L681.9 481.688C681.58 482.211 681.212 482.595 680.796 482.84C680.38 483.075 679.874 483.192 679.276 483.192C678.54 483.192 677.964 482.968 677.548 482.52C677.132 482.072 676.924 481.437 676.924 480.616V474.568H678.396V480.456C678.396 481.032 678.498 481.443 678.7 481.688C678.903 481.923 679.234 482.04 679.692 482.04C680.514 482.04 681.218 481.555 681.804 480.584V474.568H683.276V483ZM686.701 480.968C687.021 480.968 687.288 481.075 687.501 481.288C687.714 481.501 687.821 481.763 687.821 482.072C687.821 482.403 687.725 482.781 687.533 483.208L686.461 485.656H685.405L686.045 483C685.906 482.893 685.794 482.76 685.709 482.6C685.634 482.44 685.597 482.264 685.597 482.072C685.597 481.763 685.704 481.501 685.917 481.288C686.13 481.075 686.392 480.968 686.701 480.968ZM698.331 471.784C698.992 471.784 699.547 471.869 699.995 472.04C700.454 472.211 700.918 472.488 701.387 472.872L700.555 473.848C699.883 473.304 699.174 473.032 698.427 473.032C697.51 473.032 696.768 473.384 696.203 474.088C695.648 474.792 695.371 475.923 695.371 477.48C695.371 478.995 695.648 480.115 696.203 480.84C696.758 481.555 697.494 481.912 698.411 481.912C698.88 481.912 699.291 481.832 699.643 481.672C699.995 481.512 700.368 481.288 700.763 481L701.515 481.96C701.174 482.312 700.736 482.605 700.203 482.84C699.67 483.075 699.056 483.192 698.363 483.192C697.467 483.192 696.667 482.973 695.963 482.536C695.27 482.088 694.726 481.437 694.331 480.584C693.947 479.72 693.755 478.685 693.755 477.48C693.755 476.275 693.958 475.245 694.363 474.392C694.768 473.528 695.318 472.877 696.011 472.44C696.704 472.003 697.478 471.784 698.331 471.784ZM709.3 483L708.468 480.232H704.292L703.46 483H701.924L705.46 471.976H707.38L710.9 483H709.3ZM704.66 479H708.1L706.388 473.24L704.66 479Z" fill="white"/>
<path d="M186.359 207H184.327L179.847 197.64C179.911 198.376 179.959 199.059 179.991 199.688C180.034 200.307 180.055 201.059 180.055 201.944V207H178.631V195.976H180.615L185.143 205.352C185.111 205.075 185.069 204.589 185.015 203.896C184.962 203.203 184.935 202.568 184.935 201.992V195.976H186.359V207ZM192.641 198.376C193.825 198.376 194.742 198.771 195.393 199.56C196.054 200.349 196.385 201.421 196.385 202.776C196.385 203.651 196.236 204.424 195.937 205.096C195.638 205.757 195.206 206.275 194.641 206.648C194.076 207.011 193.404 207.192 192.625 207.192C191.441 207.192 190.518 206.797 189.857 206.008C189.196 205.219 188.865 204.147 188.865 202.792C188.865 201.917 189.014 201.149 189.313 200.488C189.612 199.816 190.044 199.299 190.609 198.936C191.174 198.563 191.852 198.376 192.641 198.376ZM192.641 199.56C191.18 199.56 190.449 200.637 190.449 202.792C190.449 204.936 191.174 206.008 192.625 206.008C194.076 206.008 194.801 204.931 194.801 202.776C194.801 200.632 194.081 199.56 192.641 199.56ZM202.481 198.376C202.78 198.376 203.057 198.408 203.313 198.472L203.041 199.912C202.785 199.848 202.54 199.816 202.305 199.816C201.782 199.816 201.361 200.008 201.041 200.392C200.721 200.776 200.47 201.373 200.289 202.184V207H198.817V198.568H200.081L200.225 200.28C200.449 199.651 200.753 199.176 201.137 198.856C201.521 198.536 201.969 198.376 202.481 198.376ZM209.245 206.616C208.69 207 208.061 207.192 207.357 207.192C206.642 207.192 206.082 206.989 205.677 206.584C205.282 206.168 205.085 205.571 205.085 204.792V199.704H203.613V198.568H205.085V196.664L206.557 196.488V198.568H208.557L208.397 199.704H206.557V204.728C206.557 205.165 206.631 205.485 206.781 205.688C206.941 205.88 207.202 205.976 207.565 205.976C207.895 205.976 208.269 205.864 208.685 205.64L209.245 206.616ZM214.738 198.376C215.506 198.376 216.103 198.605 216.53 199.064C216.967 199.523 217.186 200.152 217.186 200.952V207H215.714V201.16C215.714 200.563 215.597 200.141 215.362 199.896C215.138 199.651 214.807 199.528 214.37 199.528C213.933 199.528 213.543 199.656 213.202 199.912C212.861 200.168 212.541 200.531 212.242 201V207H210.77V195.192L212.242 195.032V199.736C212.903 198.829 213.735 198.376 214.738 198.376ZM227.179 195.784C227.915 195.784 228.545 195.891 229.067 196.104C229.59 196.307 230.097 196.627 230.587 197.064L229.755 197.992C229.339 197.661 228.929 197.421 228.523 197.272C228.129 197.112 227.702 197.032 227.243 197.032C226.667 197.032 226.193 197.165 225.819 197.432C225.446 197.699 225.259 198.088 225.259 198.6C225.259 198.92 225.323 199.192 225.451 199.416C225.579 199.629 225.814 199.827 226.155 200.008C226.507 200.189 227.014 200.381 227.675 200.584C228.369 200.797 228.945 201.027 229.403 201.272C229.862 201.517 230.23 201.859 230.507 202.296C230.795 202.723 230.939 203.267 230.939 203.928C230.939 204.568 230.779 205.133 230.459 205.624C230.15 206.115 229.697 206.499 229.099 206.776C228.513 207.053 227.814 207.192 227.003 207.192C225.478 207.192 224.23 206.717 223.259 205.768L224.091 204.84C224.539 205.203 224.993 205.48 225.451 205.672C225.91 205.853 226.422 205.944 226.987 205.944C227.67 205.944 228.235 205.779 228.683 205.448C229.131 205.107 229.355 204.616 229.355 203.976C229.355 203.613 229.286 203.315 229.147 203.08C229.009 202.835 228.769 202.616 228.427 202.424C228.097 202.232 227.611 202.04 226.971 201.848C225.841 201.507 225.014 201.096 224.491 200.616C223.969 200.136 223.707 199.485 223.707 198.664C223.707 198.109 223.851 197.613 224.139 197.176C224.438 196.739 224.849 196.397 225.371 196.152C225.905 195.907 226.507 195.784 227.179 195.784ZM237.066 198.376C237.834 198.376 238.431 198.605 238.858 199.064C239.295 199.523 239.514 200.152 239.514 200.952V207H238.042V201.16C238.042 200.563 237.925 200.141 237.69 199.896C237.466 199.651 237.135 199.528 236.698 199.528C236.261 199.528 235.871 199.656 235.53 199.912C235.189 200.168 234.869 200.531 234.57 201V207H233.098V195.192L234.57 195.032V199.736C235.231 198.829 236.063 198.376 237.066 198.376ZM245.641 198.376C246.825 198.376 247.742 198.771 248.393 199.56C249.054 200.349 249.385 201.421 249.385 202.776C249.385 203.651 249.236 204.424 248.937 205.096C248.638 205.757 248.206 206.275 247.641 206.648C247.076 207.011 246.404 207.192 245.625 207.192C244.441 207.192 243.518 206.797 242.857 206.008C242.196 205.219 241.865 204.147 241.865 202.792C241.865 201.917 242.014 201.149 242.313 200.488C242.612 199.816 243.044 199.299 243.609 198.936C244.174 198.563 244.852 198.376 245.641 198.376ZM245.641 199.56C244.18 199.56 243.449 200.637 243.449 202.792C243.449 204.936 244.174 206.008 245.625 206.008C247.076 206.008 247.801 204.931 247.801 202.776C247.801 200.632 247.081 199.56 245.641 199.56ZM255.481 198.376C255.78 198.376 256.057 198.408 256.313 198.472L256.041 199.912C255.785 199.848 255.54 199.816 255.305 199.816C254.782 199.816 254.361 200.008 254.041 200.392C253.721 200.776 253.47 201.373 253.289 202.184V207H251.817V198.568H253.081L253.225 200.28C253.449 199.651 253.753 199.176 254.137 198.856C254.521 198.536 254.969 198.376 255.481 198.376ZM263.872 202.536C263.872 202.781 263.862 203.032 263.84 203.288H258.464C258.528 204.216 258.763 204.899 259.168 205.336C259.574 205.773 260.096 205.992 260.736 205.992C261.142 205.992 261.515 205.933 261.856 205.816C262.198 205.699 262.555 205.512 262.928 205.256L263.568 206.136C262.672 206.84 261.691 207.192 260.624 207.192C259.451 207.192 258.534 206.808 257.872 206.04C257.222 205.272 256.896 204.216 256.896 202.872C256.896 201.997 257.035 201.224 257.312 200.552C257.6 199.869 258.006 199.336 258.528 198.952C259.062 198.568 259.686 198.376 260.4 198.376C261.52 198.376 262.379 198.744 262.976 199.48C263.574 200.216 263.872 201.235 263.872 202.536ZM262.416 202.104C262.416 201.272 262.251 200.637 261.92 200.2C261.59 199.763 261.094 199.544 260.432 199.544C259.227 199.544 258.571 200.429 258.464 202.2H262.416V202.104ZM272.41 194.184V208.568H272.058V194.184H272.41ZM291.237 207H289.765L289.381 202.024C289.221 200.072 289.131 198.573 289.109 197.528L286.725 205.752H285.301L282.789 197.512C282.789 198.845 282.72 200.387 282.581 202.136L282.213 207H280.773L281.685 195.976H283.733L286.053 203.992L288.261 195.976H290.325L291.237 207ZM299.434 205.032C299.434 205.373 299.493 205.629 299.61 205.8C299.728 205.96 299.904 206.083 300.138 206.168L299.802 207.192C299.365 207.139 299.013 207.016 298.746 206.824C298.48 206.632 298.282 206.333 298.154 205.928C297.589 206.771 296.752 207.192 295.642 207.192C294.81 207.192 294.154 206.957 293.674 206.488C293.194 206.019 292.954 205.405 292.954 204.648C292.954 203.752 293.274 203.064 293.914 202.584C294.565 202.104 295.482 201.864 296.666 201.864H297.962V201.24C297.962 200.643 297.818 200.216 297.53 199.96C297.242 199.704 296.8 199.576 296.202 199.576C295.584 199.576 294.826 199.725 293.93 200.024L293.562 198.952C294.608 198.568 295.578 198.376 296.474 198.376C297.466 198.376 298.208 198.621 298.698 199.112C299.189 199.592 299.434 200.28 299.434 201.176V205.032ZM295.978 206.088C296.821 206.088 297.482 205.651 297.962 204.776V202.84H296.858C295.301 202.84 294.522 203.416 294.522 204.568C294.522 205.069 294.645 205.448 294.89 205.704C295.136 205.96 295.498 206.088 295.978 206.088ZM303.981 207.192C303.437 207.192 303.005 207.032 302.685 206.712C302.376 206.381 302.221 205.923 302.221 205.336V195.176L303.693 195V205.304C303.693 205.539 303.731 205.709 303.805 205.816C303.891 205.923 304.029 205.976 304.221 205.976C304.424 205.976 304.605 205.944 304.765 205.88L305.149 206.904C304.797 207.096 304.408 207.192 303.981 207.192ZM308.461 198.568V207H306.989V198.568H308.461ZM307.709 194.52C308.018 194.52 308.269 194.616 308.461 194.808C308.653 195 308.749 195.24 308.749 195.528C308.749 195.816 308.653 196.056 308.461 196.248C308.269 196.429 308.018 196.52 307.709 196.52C307.41 196.52 307.165 196.429 306.973 196.248C306.781 196.056 306.685 195.816 306.685 195.528C306.685 195.24 306.781 195 306.973 194.808C307.165 194.616 307.41 194.52 307.709 194.52ZM315.36 198.376C316.32 198.376 317.083 198.765 317.648 199.544C318.214 200.312 318.496 201.389 318.496 202.776C318.496 203.651 318.363 204.424 318.096 205.096C317.83 205.757 317.446 206.275 316.944 206.648C316.443 207.011 315.856 207.192 315.184 207.192C314.299 207.192 313.552 206.819 312.944 206.072L312.8 207H311.504V195.176L312.976 195V199.624C313.584 198.792 314.379 198.376 315.36 198.376ZM314.832 206.024C315.483 206.024 315.99 205.763 316.352 205.24C316.726 204.707 316.912 203.885 316.912 202.776C316.912 201.635 316.742 200.813 316.4 200.312C316.059 199.8 315.574 199.544 314.944 199.544C314.198 199.544 313.542 199.981 312.976 200.856V204.888C313.2 205.24 313.472 205.517 313.792 205.72C314.123 205.923 314.47 206.024 314.832 206.024ZM327.276 207H326.012L325.9 205.688C325.58 206.211 325.212 206.595 324.796 206.84C324.38 207.075 323.874 207.192 323.276 207.192C322.54 207.192 321.964 206.968 321.548 206.52C321.132 206.072 320.924 205.437 320.924 204.616V198.568H322.396V204.456C322.396 205.032 322.498 205.443 322.7 205.688C322.903 205.923 323.234 206.04 323.692 206.04C324.514 206.04 325.218 205.555 325.804 204.584V198.568H327.276V207ZM330.701 204.968C331.021 204.968 331.288 205.075 331.501 205.288C331.714 205.501 331.821 205.763 331.821 206.072C331.821 206.403 331.725 206.781 331.533 207.208L330.461 209.656H329.405L330.045 207C329.906 206.893 329.794 206.76 329.709 206.6C329.634 206.44 329.597 206.264 329.597 206.072C329.597 205.763 329.704 205.501 329.917 205.288C330.13 205.075 330.392 204.968 330.701 204.968ZM342.331 195.784C342.992 195.784 343.547 195.869 343.995 196.04C344.454 196.211 344.918 196.488 345.387 196.872L344.555 197.848C343.883 197.304 343.174 197.032 342.427 197.032C341.51 197.032 340.768 197.384 340.203 198.088C339.648 198.792 339.371 199.923 339.371 201.48C339.371 202.995 339.648 204.115 340.203 204.84C340.758 205.555 341.494 205.912 342.411 205.912C342.88 205.912 343.291 205.832 343.643 205.672C343.995 205.512 344.368 205.288 344.763 205L345.515 205.96C345.174 206.312 344.736 206.605 344.203 206.84C343.67 207.075 343.056 207.192 342.363 207.192C341.467 207.192 340.667 206.973 339.963 206.536C339.27 206.088 338.726 205.437 338.331 204.584C337.947 203.72 337.755 202.685 337.755 201.48C337.755 200.275 337.958 199.245 338.363 198.392C338.768 197.528 339.318 196.877 340.011 196.44C340.704 196.003 341.478 195.784 342.331 195.784ZM353.3 207L352.468 204.232H348.292L347.46 207H345.924L349.46 195.976H351.38L354.9 207H353.3ZM348.66 203H352.1L350.388 197.24L348.66 203Z" fill="white"/>
<path d="M580.378 85.784C581.039 85.784 581.594 85.8693 582.042 86.04C582.501 86.2107 582.965 86.488 583.434 86.872L582.602 87.848C581.93 87.304 581.221 87.032 580.474 87.032C579.557 87.032 578.815 87.384 578.25 88.088C577.695 88.792 577.418 89.9227 577.418 91.48C577.418 92.9947 577.695 94.1147 578.25 94.84C578.805 95.5547 579.541 95.912 580.458 95.912C580.927 95.912 581.338 95.832 581.69 95.672C582.042 95.512 582.415 95.288 582.81 95L583.562 95.96C583.221 96.312 582.783 96.6053 582.25 96.84C581.717 97.0747 581.103 97.192 580.41 97.192C579.514 97.192 578.714 96.9733 578.01 96.536C577.317 96.088 576.773 95.4373 576.378 94.584C575.994 93.72 575.802 92.6853 575.802 91.48C575.802 90.2747 576.005 89.2453 576.41 88.392C576.815 87.528 577.365 86.8773 578.058 86.44C578.751 86.0027 579.525 85.784 580.378 85.784ZM591.401 97H590.137L590.025 95.688C589.705 96.2107 589.337 96.5947 588.921 96.84C588.505 97.0747 587.999 97.192 587.401 97.192C586.665 97.192 586.089 96.968 585.673 96.52C585.257 96.072 585.049 95.4373 585.049 94.616V88.568H586.521V94.456C586.521 95.032 586.623 95.4427 586.825 95.688C587.028 95.9227 587.359 96.04 587.817 96.04C588.639 96.04 589.343 95.5547 589.929 94.584V88.568H591.401V97ZM598.106 88.376C598.405 88.376 598.682 88.408 598.938 88.472L598.666 89.912C598.41 89.848 598.165 89.816 597.93 89.816C597.407 89.816 596.986 90.008 596.666 90.392C596.346 90.776 596.095 91.3733 595.914 92.184V97H594.442V88.568H595.706L595.85 90.28C596.074 89.6507 596.378 89.176 596.762 88.856C597.146 88.536 597.594 88.376 598.106 88.376ZM604.278 88.376C604.576 88.376 604.854 88.408 605.11 88.472L604.838 89.912C604.582 89.848 604.336 89.816 604.102 89.816C603.579 89.816 603.158 90.008 602.838 90.392C602.518 90.776 602.267 91.3733 602.086 92.184V97H600.614V88.568H601.878L602.022 90.28C602.246 89.6507 602.55 89.176 602.934 88.856C603.318 88.536 603.766 88.376 604.278 88.376ZM612.669 92.536C612.669 92.7813 612.659 93.032 612.637 93.288H607.261C607.325 94.216 607.56 94.8987 607.965 95.336C608.371 95.7733 608.893 95.992 609.533 95.992C609.939 95.992 610.312 95.9333 610.653 95.816C610.995 95.6987 611.352 95.512 611.725 95.256L612.365 96.136C611.469 96.84 610.488 97.192 609.421 97.192C608.248 97.192 607.331 96.808 606.669 96.04C606.019 95.272 605.693 94.216 605.693 92.872C605.693 91.9973 605.832 91.224 606.109 90.552C606.397 89.8693 606.803 89.336 607.325 88.952C607.859 88.568 608.483 88.376 609.197 88.376C610.317 88.376 611.176 88.744 611.773 89.48C612.371 90.216 612.669 91.2347 612.669 92.536ZM611.213 92.104C611.213 91.272 611.048 90.6373 610.717 90.2C610.387 89.7627 609.891 89.544 609.229 89.544C608.024 89.544 607.368 90.4293 607.261 92.2H611.213V92.104ZM618.988 88.376C619.756 88.376 620.353 88.6053 620.78 89.064C621.217 89.5227 621.436 90.152 621.436 90.952V97H619.964V91.16C619.964 90.5627 619.852 90.1413 619.628 89.896C619.404 89.6507 619.073 89.528 618.636 89.528C618.188 89.528 617.793 89.656 617.452 89.912C617.111 90.168 616.791 90.536 616.492 91.016V97H615.02V88.568H616.284L616.412 89.816C616.711 89.368 617.079 89.016 617.516 88.76C617.964 88.504 618.455 88.376 618.988 88.376ZM628.651 96.616C628.096 97 627.467 97.192 626.763 97.192C626.048 97.192 625.488 96.9893 625.083 96.584C624.688 96.168 624.491 95.5707 624.491 94.792V89.704H623.019V88.568H624.491V86.664L625.963 86.488V88.568H627.963L627.803 89.704H625.963V94.728C625.963 95.1653 626.038 95.4853 626.187 95.688C626.347 95.88 626.608 95.976 626.971 95.976C627.302 95.976 627.675 95.864 628.091 95.64L628.651 96.616ZM636.011 85.976V95.672H640.539L640.363 97H634.491V85.976H636.011ZM645.141 88.376C646.325 88.376 647.242 88.7707 647.893 89.56C648.554 90.3493 648.885 91.4213 648.885 92.776C648.885 93.6507 648.736 94.424 648.437 95.096C648.138 95.7573 647.706 96.2747 647.141 96.648C646.576 97.0107 645.904 97.192 645.125 97.192C643.941 97.192 643.018 96.7973 642.357 96.008C641.696 95.2187 641.365 94.1467 641.365 92.792C641.365 91.9173 641.514 91.1493 641.813 90.488C642.112 89.816 642.544 89.2987 643.109 88.936C643.674 88.5627 644.352 88.376 645.141 88.376ZM645.141 89.56C643.68 89.56 642.949 90.6373 642.949 92.792C642.949 94.936 643.674 96.008 645.125 96.008C646.576 96.008 647.301 94.9307 647.301 92.776C647.301 90.632 646.581 89.56 645.141 89.56ZM654.389 88.376C654.89 88.376 655.349 88.4507 655.765 88.6C656.181 88.7387 656.581 88.968 656.965 89.288L656.261 90.216C655.962 90.0027 655.669 89.848 655.381 89.752C655.104 89.6453 654.794 89.592 654.453 89.592C653.77 89.592 653.237 89.864 652.853 90.408C652.48 90.952 652.293 91.7573 652.293 92.824C652.293 93.8907 652.48 94.68 652.853 95.192C653.226 95.6933 653.76 95.944 654.453 95.944C654.784 95.944 655.088 95.896 655.365 95.8C655.642 95.6933 655.952 95.528 656.293 95.304L656.965 96.264C656.197 96.8827 655.338 97.192 654.389 97.192C653.248 97.192 652.346 96.808 651.685 96.04C651.034 95.272 650.709 94.2107 650.709 92.856C650.709 91.96 650.858 91.176 651.157 90.504C651.456 89.832 651.877 89.3093 652.421 88.936C652.976 88.5627 653.632 88.376 654.389 88.376ZM664.481 95.032C664.481 95.3733 664.54 95.6293 664.657 95.8C664.775 95.96 664.951 96.0827 665.185 96.168L664.849 97.192C664.412 97.1387 664.06 97.016 663.793 96.824C663.527 96.632 663.329 96.3333 663.201 95.928C662.636 96.7707 661.799 97.192 660.689 97.192C659.857 97.192 659.201 96.9573 658.721 96.488C658.241 96.0187 658.001 95.4053 658.001 94.648C658.001 93.752 658.321 93.064 658.961 92.584C659.612 92.104 660.529 91.864 661.713 91.864H663.009V91.24C663.009 90.6427 662.865 90.216 662.577 89.96C662.289 89.704 661.847 89.576 661.249 89.576C660.631 89.576 659.873 89.7253 658.977 90.024L658.609 88.952C659.655 88.568 660.625 88.376 661.521 88.376C662.513 88.376 663.255 88.6213 663.745 89.112C664.236 89.592 664.481 90.28 664.481 91.176V95.032ZM661.025 96.088C661.868 96.088 662.529 95.6507 663.009 94.776V92.84H661.905C660.348 92.84 659.569 93.416 659.569 94.568C659.569 95.0693 659.692 95.448 659.937 95.704C660.183 95.96 660.545 96.088 661.025 96.088ZM671.76 96.616C671.206 97 670.576 97.192 669.872 97.192C669.158 97.192 668.598 96.9893 668.192 96.584C667.798 96.168 667.6 95.5707 667.6 94.792V89.704H666.128V88.568H667.6V86.664L669.072 86.488V88.568H671.072L670.912 89.704H669.072V94.728C669.072 95.1653 669.147 95.4853 669.296 95.688C669.456 95.88 669.718 95.976 670.08 95.976C670.411 95.976 670.784 95.864 671.2 95.64L671.76 96.616ZM674.758 88.568V97H673.286V88.568H674.758ZM674.006 84.52C674.315 84.52 674.566 84.616 674.758 84.808C674.95 85 675.046 85.24 675.046 85.528C675.046 85.816 674.95 86.056 674.758 86.248C674.566 86.4293 674.315 86.52 674.006 86.52C673.707 86.52 673.462 86.4293 673.27 86.248C673.078 86.056 672.982 85.816 672.982 85.528C672.982 85.24 673.078 85 673.27 84.808C673.462 84.616 673.707 84.52 674.006 84.52ZM680.969 88.376C682.153 88.376 683.071 88.7707 683.721 89.56C684.383 90.3493 684.713 91.4213 684.713 92.776C684.713 93.6507 684.564 94.424 684.265 95.096C683.967 95.7573 683.535 96.2747 682.969 96.648C682.404 97.0107 681.732 97.192 680.953 97.192C679.769 97.192 678.847 96.7973 678.185 96.008C677.524 95.2187 677.193 94.1467 677.193 92.792C677.193 91.9173 677.343 91.1493 677.641 90.488C677.94 89.816 678.372 89.2987 678.937 88.936C679.503 88.5627 680.18 88.376 680.969 88.376ZM680.969 89.56C679.508 89.56 678.777 90.6373 678.777 92.792C678.777 94.936 679.503 96.008 680.953 96.008C682.404 96.008 683.129 94.9307 683.129 92.776C683.129 90.632 682.409 89.56 680.969 89.56ZM691.113 88.376C691.881 88.376 692.478 88.6053 692.905 89.064C693.342 89.5227 693.561 90.152 693.561 90.952V97H692.089V91.16C692.089 90.5627 691.977 90.1413 691.753 89.896C691.529 89.6507 691.198 89.528 690.761 89.528C690.313 89.528 689.918 89.656 689.577 89.912C689.236 90.168 688.916 90.536 688.617 91.016V97H687.145V88.568H688.409L688.537 89.816C688.836 89.368 689.204 89.016 689.641 88.76C690.089 88.504 690.58 88.376 691.113 88.376Z" fill="white"/>
<path d="M705 89C705 89 685.5 63 665.5 66C645.5 69 600.5 70 596 54.5C591.5 39 540 57.5 549 70C558 82.5 505 94 535 109.5C565 125 530.5 86 517 82.5C503.5 79 479.5 77 469.5 83C459.5 89 457.5 94.5 451 102C444.5 109.5 451 130 456 134.5C461 139 482.5 144.5 490 154C497.5 163.5 501.5 165 510 174.5C518.5 184 523 195.5 517 205C511 214.5 505 222 493 225C481 228 459.5 225 451.5 222C443.5 219 413 197.5 427.5 186C442 174.5 402 242 400.5 217.5C399 193 380.5 199 380.5 199L360 217" stroke="white" stroke-width="2"/>
<path d="M712.5 90.5001C712.5 90.5001 697 140.5 684 115.5C671 90.5001 678 225.5 674 236.5C670 247.5 666 249 658.5 254.5C651 260 619.5 258 614 254.5C608.5 251 602 253 595 236.5C588 220 595 103.5 606 115.5C617 127.5 505 249.5 548 244C591 238.5 606 272 583 281.5C560 291 567 313.5 567 313.5" stroke="white" stroke-width="2"/>
<path d="M724.5 90C724.5 90 703 127.5 724.5 115C746 102.5 761.5 116.5 765.5 122C769.5 127.5 777.5 141.5 777.5 164.5C777.5 187.5 764 193 756.5 197C749 201 724.5 203 715 193.5C705.5 184 697 131 708 121C719 111 700 188 709 197C718 206 777.5 243 777.5 258.5C777.5 274 702 191 708 207C714 223 714 284 708 289.5C702 295 684.5 315.5 667.5 294.5C650.5 273.5 651 315 667.5 325C684 335 652 358 652 358" stroke="white" stroke-width="2"/>
<path d="M737 92C737 92 795 111 809.5 121C824 131 813.5 184.5 804.5 164C795.5 143.5 922 147 914.5 158.5C907 170 825 169.5 813.5 172.5C802 175.5 828.5 237 809.5 218C790.5 199 884 205 882.5 212.5C881 220 807 216.5 813.5 231C820 245.5 830.5 348 813.5 304.5C796.5 261 726 328 749.5 341.5C773 355 746.5 386 765.5 403.5C784.5 421 760 456 749.5 440C739 424 716.5 461.5 716.5 461.5" stroke="white" stroke-width="2"/>
<g filter="url(#filter0_d_418_3026)">
<path d="M744.037 80.7039H735.75C735.485 80.7039 735.269 80.9219 735.269 81.1892C735.269 81.4565 735.485 81.6746 735.75 81.6746H744.037C744.302 81.6746 744.519 81.4565 744.519 81.1892C744.519 80.9219 744.302 80.7039 744.037 80.7039Z" fill="white"/>
<path d="M744.037 86.8558H734.746C734.481 86.8558 734.264 87.0738 734.264 87.3411C734.264 87.6084 734.481 87.8264 734.746 87.8264H744.037C744.302 87.8264 744.519 87.6084 744.519 87.3411C744.519 87.0738 744.302 86.8558 744.037 86.8558Z" fill="white"/>
<path d="M706.481 84.2074H713.974C714.239 84.2074 714.456 83.9894 714.456 83.7221C714.456 83.4548 714.239 83.2368 713.974 83.2368H706.481C706.216 83.2368 706 83.4548 706 83.7221C706 83.9913 706.216 84.2074 706.481 84.2074Z" fill="white"/>
<path fill-rule="evenodd" clip-rule="evenodd" d="M709.745 49.0504C709.931 48.9576 710.153 48.9955 710.3 49.1433L710.3 49.1436C710.445 49.2914 710.482 49.517 710.388 49.7047C710.089 50.3076 709.939 50.9502 709.939 51.6156C709.939 53.9929 711.868 55.9285 714.238 55.9285C714.902 55.9285 715.544 55.7749 716.145 55.4754C716.332 55.3825 716.553 55.4204 716.7 55.5683C716.847 55.7161 716.883 55.9417 716.79 56.1275C715.893 57.9418 714.088 59.0679 712.079 59.0679C709.177 59.0679 706.816 56.6961 706.816 53.7823C706.816 51.7633 707.939 49.951 709.745 49.0504ZM715.128 56.8229C714.834 56.874 714.539 56.8987 714.238 56.8987L714.238 56.8989C711.336 56.8989 708.976 54.529 708.977 51.6152C708.977 51.3119 709.002 51.0142 709.053 50.7204C708.248 51.5147 707.779 52.6067 707.779 53.7821C707.779 56.1612 709.709 58.0968 712.079 58.0968C713.251 58.0968 714.336 57.6286 715.128 56.8229Z" fill="white"/>
<path fill-rule="evenodd" clip-rule="evenodd" d="M744.039 72.9257H744.037C743.772 72.9257 743.558 73.1419 743.556 73.4092L743.544 76.0007L725.677 49.4393C725.498 49.172 725.06 49.172 724.88 49.4393L707.025 75.9817L707.037 73.231C707.038 72.9637 706.822 72.7437 706.557 72.7437H706.555C706.29 72.7437 706.076 72.9599 706.074 73.2272L706.057 77.5685C706.055 77.7827 706.194 77.9704 706.395 78.0348C706.442 78.05 706.489 78.0557 706.538 78.0557C706.694 78.0557 706.845 77.978 706.937 77.8434L709.747 73.667V77.5723C709.747 77.8396 709.963 78.0576 710.228 78.0576H720.952C721.5 79.8472 723.16 81.1515 725.12 81.1515C725.127 81.1515 725.133 81.151 725.139 81.1505L725.139 81.1505C725.145 81.15 725.151 81.1496 725.158 81.1496C725.161 81.1496 725.164 81.15 725.167 81.1505L725.167 81.1505L725.167 81.1505C725.17 81.151 725.174 81.1515 725.177 81.1515C725.183 81.1515 725.188 81.1509 725.194 81.1501L725.205 81.1486C725.214 81.1472 725.224 81.1458 725.233 81.1458C727.142 81.0965 728.75 79.8112 729.286 78.0576H740.33C740.595 78.0576 740.812 77.8395 740.812 77.5722V73.667L743.622 77.8433C743.74 78.0196 743.958 78.0974 744.16 78.0348C744.361 77.9723 744.5 77.7846 744.5 77.5723L744.519 73.4129C744.521 73.1437 744.306 72.9276 744.039 72.9257L744.039 72.9257ZM725.233 80.1754L725.227 80.1758C725.203 80.1775 725.18 80.1792 725.158 80.1792C724.322 80.1678 723.645 79.4853 723.645 78.6474C723.645 78.0958 724.45 76.8256 725.176 75.8682C725.902 76.8256 726.707 78.0957 726.707 78.6474C726.707 79.4721 726.051 80.1451 725.233 80.1754L725.233 80.1754ZM727.668 78.6455C727.668 78.7896 727.65 78.9261 727.627 79.0626L727.627 79.0626C728.178 78.456 728.517 77.654 728.513 76.7725C728.513 75.3185 726.324 72.2246 725.116 70.6852C723.911 72.2246 721.719 75.3204 721.719 76.7725C721.719 77.728 722.116 78.5925 722.75 79.2123C722.709 79.0284 722.681 78.8408 722.681 78.6455C722.681 77.417 724.45 75.2085 724.804 74.7781C724.986 74.5563 725.363 74.5563 725.545 74.7781C725.9 75.2085 727.668 77.4171 727.668 78.6455ZM725.49 69.6047C725.308 69.3829 724.932 69.3829 724.749 69.6047C724.341 70.0995 720.76 74.5127 720.76 76.7728C720.76 76.849 720.765 76.9241 720.77 76.9989V76.999C720.772 77.0285 720.774 77.058 720.775 77.0875H715.927V73.8875C716.555 73.3756 718.637 71.6012 720.745 68.9678C722.457 66.8313 724.411 63.8113 725.297 60.3685C726.183 63.8131 728.137 66.831 729.848 68.9678C731.957 71.601 734.039 73.3755 734.667 73.8875V77.0875H729.463C729.47 76.9833 729.478 76.879 729.478 76.7728C729.48 74.5131 725.899 70.0998 725.491 69.6047H725.49ZM735.628 77.0873H739.848L739.851 72.2361L725.28 50.5769L710.71 72.2361V77.0873H714.962V73.6522C714.962 73.5006 715.032 73.3584 715.15 73.2674L715.15 73.2671C715.267 73.1753 724.813 65.6329 724.813 56.706C724.813 56.4387 725.03 56.2206 725.295 56.2206C725.56 56.2206 725.776 56.4387 725.776 56.706C725.776 65.6298 735.317 73.17 735.439 73.267L735.44 73.2674C735.558 73.3603 735.628 73.5025 735.628 73.6522V77.0873Z" fill="white"/>
<path fill-rule="evenodd" clip-rule="evenodd" d="M732.596 82.9487C732.639 83.0701 732.63 83.2065 732.573 83.3222L732.574 83.3222C732.515 83.4397 732.416 83.5288 732.292 83.5705L730.511 84.1639L732.222 84.6511C732.346 84.6872 732.452 84.7706 732.514 84.8843C732.576 84.9981 732.589 85.1308 732.553 85.2559L731.938 87.345C731.876 87.5555 731.686 87.692 731.477 87.692C731.434 87.692 731.389 87.6844 731.346 87.673L725.218 85.927L719.594 87.8019C719.545 87.819 719.494 87.8265 719.444 87.8265C719.244 87.8265 719.058 87.7014 718.992 87.5005L718.283 85.4398C718.24 85.3184 718.249 85.1819 718.306 85.0663C718.362 84.9488 718.464 84.8616 718.586 84.8199L720.072 84.3251L718.287 83.817C718.163 83.781 718.057 83.6976 717.995 83.5838C717.933 83.4701 717.92 83.3374 717.956 83.2122L718.571 81.1231C718.646 80.8672 718.909 80.7212 719.163 80.7932L725.364 82.5601L731.281 80.5866C731.531 80.5032 731.8 80.6378 731.887 80.888L732.596 82.9487ZM719.359 81.8568L719.017 83.0151L721.703 83.781L723.734 83.1042L719.359 81.8568ZM731.49 85.4511L731.148 86.6094L726.848 85.3829L728.88 84.7061L731.49 85.4511ZM719.35 85.5876L719.743 86.7308L731.526 82.8027L731.133 81.6595L719.35 85.5876Z" fill="white"/>
</g>
<defs>
<filter id="filter0_d_418_3026" x="702" y="49" width="46.5188" height="46.8265" filterUnits="userSpaceOnUse" color-interpolation-filters="sRGB">
<feFlood flood-opacity="0" result="BackgroundImageFix"/>
<feColorMatrix in="SourceAlpha" type="matrix" values="0 0 0 0 0 0 0 0 0 0 0 0 0 0 0 0 0 0 127 0" result="hardAlpha"/>
<feOffset dy="4"/>
<feGaussianBlur stdDeviation="2"/>
<feColorMatrix type="matrix" values="0 0 0 0 0 0 0 0 0 0 0 0 0 0 0 0 0 0 0.25 0"/>
<feBlend mode="normal" in2="BackgroundImageFix" result="effect1_dropShadow_418_3026"/>
<feBlend mode="normal" in="SourceGraphic" in2="effect1_dropShadow_418_3026" result="shape"/>
</filter>
</defs>
</svg>
